<svg width="200" height="200" viewBox="0 0 200 200" fill="none" xmlns="http://www.w3.org/2000/svg">
<path d="M63.3036 108.534H49.2851C47.7866 108.534 46.8203 106.947 47.5083 105.615L91.8168 19.8883C91.9377 19.6542 92.1062 19.4425 92.3114 19.2773C99.5793 13.4251 107.056 16.6828 110.207 19.2834C110.404 19.4453 110.558 19.6507 110.672 19.8783L126.356 51.2456C127.065 52.6633 125.915 54.3612 124.331 54.3276C122.434 54.2875 120.052 54.3211 117.5 54.5338C112.7 54.9338 111.167 59.0338 111 61.0338L102.712 44.0443C101.998 42.5789 99.9238 42.5387 99.1527 43.9753L65.0658 107.48C64.7174 108.129 64.0403 108.534 63.3036 108.534Z" fill="#FFBC00"/>
<path d="M84.5 83.5338V105.225C84.5 105.884 85.127 106.363 85.7631 106.189L94.7631 103.735C95.1982 103.616 95.5 103.221 95.5 102.77V83.5338C95.5 82.9815 95.0523 82.5338 94.5 82.5338H85.5C84.9477 82.5338 84.5 82.9815 84.5 83.5338Z" fill="#A74EAF"/>
<path d="M100.5 71.5338V100.892C100.5 101.641 101.293 102.124 101.959 101.781L111.959 96.6197C112.291 96.4481 112.5 96.1052 112.5 95.7311V71.5338C112.5 70.9815 112.052 70.5338 111.5 70.5338H101.5C100.948 70.5338 100.5 70.9815 100.5 71.5338Z" fill="#A74EAF"/>
<path d="M117.5 60.5338V91.4667C117.5 92.3028 118.465 92.7698 119.121 92.2508L129.121 84.3341C129.36 84.1444 129.5 83.8556 129.5 83.55V60.5338C129.5 59.9815 129.052 59.5338 128.5 59.5338H118.5C117.948 59.5338 117.5 59.9815 117.5 60.5338Z" fill="#A74EAF"/>
<path d="M134.955 107.399L129.961 96.9947C129.673 96.3941 129.703 95.6894 130.04 95.1152L139.5 79.0338L152.144 105.676C152.774 107.003 151.806 108.534 150.337 108.534H136.758C135.989 108.534 135.288 108.093 134.955 107.399Z" fill="#FFBC00"/>
<path d="M82 110.534C115.5 114.534 147.072 89.8249 139.5 79.0338C131.333 88.8671 108 108.329 82 110.534Z" fill="#A74EAF"/>
<path d="M16.0682 160.534H5.52273L21.5909 113.988H34.2727L50.3182 160.534H39.7727L28.1136 124.625H27.75L16.0682 160.534ZM15.4091 142.238H40.3182V149.92H15.4091V142.238Z" fill="#A74EAF"/>
<path d="M65.4205 113.988V160.534H55.7386V113.988H65.4205Z" fill="#A74EAF"/>
<path d="M73.1761 160.534V125.625H82.5625V131.716H82.9261C83.5625 129.549 84.6307 127.913 86.1307 126.807C87.6307 125.685 89.358 125.125 91.3125 125.125C91.7973 125.125 92.3201 125.155 92.8807 125.216C93.4413 125.276 93.9337 125.36 94.358 125.466V134.057C93.9034 133.92 93.2746 133.799 92.4716 133.693C91.6686 133.587 90.9337 133.534 90.267 133.534C88.8428 133.534 87.5701 133.844 86.4489 134.466C85.3428 135.072 84.464 135.92 83.8125 137.011C83.1761 138.102 82.858 139.36 82.858 140.784V160.534H73.1761Z" fill="#A74EAF"/>
<path d="M108.318 161.193C106.091 161.193 104.106 160.807 102.364 160.034C100.621 159.246 99.2424 158.087 98.2273 156.557C97.2273 155.011 96.7273 153.087 96.7273 150.784C96.7273 148.844 97.0833 147.216 97.7955 145.897C98.5076 144.579 99.4773 143.519 100.705 142.716C101.932 141.913 103.326 141.307 104.886 140.897C106.462 140.488 108.114 140.2 109.841 140.034C111.871 139.822 113.508 139.625 114.75 139.443C115.992 139.246 116.894 138.958 117.455 138.579C118.015 138.2 118.295 137.64 118.295 136.897V136.761C118.295 135.322 117.841 134.208 116.932 133.42C116.038 132.632 114.765 132.238 113.114 132.238C111.371 132.238 109.985 132.625 108.955 133.397C107.924 134.155 107.242 135.11 106.909 136.261L97.9545 135.534C98.4091 133.413 99.303 131.579 100.636 130.034C101.97 128.473 103.689 127.276 105.795 126.443C107.917 125.594 110.371 125.17 113.159 125.17C115.098 125.17 116.955 125.397 118.727 125.852C120.515 126.307 122.098 127.011 123.477 127.966C124.871 128.92 125.97 130.147 126.773 131.647C127.576 133.132 127.977 134.913 127.977 136.988V160.534H118.795V155.693H118.523C117.962 156.784 117.212 157.746 116.273 158.579C115.333 159.397 114.205 160.041 112.886 160.511C111.568 160.966 110.045 161.193 108.318 161.193ZM111.091 154.511C112.515 154.511 113.773 154.231 114.864 153.67C115.955 153.094 116.811 152.322 117.432 151.352C118.053 150.382 118.364 149.284 118.364 148.057V144.352C118.061 144.549 117.644 144.731 117.114 144.897C116.598 145.049 116.015 145.193 115.364 145.329C114.712 145.45 114.061 145.564 113.409 145.67C112.758 145.761 112.167 145.844 111.636 145.92C110.5 146.087 109.508 146.352 108.659 146.716C107.811 147.079 107.152 147.572 106.682 148.193C106.212 148.799 105.977 149.557 105.977 150.466C105.977 151.784 106.455 152.791 107.409 153.488C108.379 154.17 109.606 154.511 111.091 154.511Z" fill="#A74EAF"/>
<path d="M154.057 125.625V132.897H133.034V125.625H154.057ZM137.807 117.261H147.489V149.807C147.489 150.7 147.625 151.397 147.898 151.897C148.17 152.382 148.549 152.723 149.034 152.92C149.534 153.117 150.11 153.216 150.761 153.216C151.216 153.216 151.67 153.178 152.125 153.102C152.58 153.011 152.928 152.943 153.17 152.897L154.693 160.102C154.208 160.254 153.527 160.428 152.648 160.625C151.769 160.837 150.701 160.966 149.443 161.011C147.11 161.102 145.064 160.791 143.307 160.079C141.564 159.367 140.208 158.261 139.239 156.761C138.269 155.261 137.792 153.367 137.807 151.079V117.261Z" fill="#A74EAF"/>
<path d="M175.761 161.216C172.231 161.216 169.178 160.466 166.602 158.966C164.042 157.45 162.064 155.344 160.67 152.647C159.277 149.935 158.58 146.791 158.58 143.216C158.58 139.61 159.277 136.458 160.67 133.761C162.064 131.049 164.042 128.943 166.602 127.443C169.178 125.928 172.231 125.17 175.761 125.17C179.292 125.17 182.337 125.928 184.898 127.443C187.473 128.943 189.458 131.049 190.852 133.761C192.246 136.458 192.943 139.61 192.943 143.216C192.943 146.791 192.246 149.935 190.852 152.647C189.458 155.344 187.473 157.45 184.898 158.966C182.337 160.466 179.292 161.216 175.761 161.216ZM175.807 153.716C177.413 153.716 178.754 153.261 179.83 152.352C180.905 151.428 181.716 150.17 182.261 148.579C182.822 146.988 183.102 145.178 183.102 143.147C183.102 141.117 182.822 139.307 182.261 137.716C181.716 136.125 180.905 134.867 179.83 133.943C178.754 133.019 177.413 132.557 175.807 132.557C174.186 132.557 172.822 133.019 171.716 133.943C170.625 134.867 169.799 136.125 169.239 137.716C168.693 139.307 168.42 141.117 168.42 143.147C168.42 145.178 168.693 146.988 169.239 148.579C169.799 150.17 170.625 151.428 171.716 152.352C172.822 153.261 174.186 153.716 175.807 153.716Z" fill="#A74EAF"/>
<path d="M32.3153 173.443C32.2599 172.975 32.0353 172.612 31.6413 172.353C31.2474 172.095 30.7642 171.966 30.1918 171.966C29.7732 171.966 29.407 172.033 29.093 172.169C28.7822 172.304 28.5391 172.49 28.3636 172.727C28.1913 172.964 28.1051 173.234 28.1051 173.535C28.1051 173.788 28.1651 174.005 28.2852 174.186C28.4083 174.365 28.5652 174.514 28.756 174.634C28.9469 174.751 29.1469 174.848 29.3562 174.925C29.5655 174.999 29.7578 175.059 29.9332 175.105L30.8935 175.363C31.1397 175.428 31.4136 175.517 31.7152 175.631C32.0199 175.745 32.3107 175.9 32.5877 176.097C32.8678 176.291 33.0986 176.541 33.2802 176.845C33.4618 177.15 33.5526 177.524 33.5526 177.967C33.5526 178.478 33.4187 178.94 33.1509 179.352C32.8862 179.764 32.4985 180.092 31.9876 180.335C31.4798 180.578 30.8627 180.7 30.1364 180.7C29.4593 180.7 28.873 180.591 28.3775 180.372C27.8851 180.154 27.4973 179.849 27.2141 179.458C26.9341 179.067 26.7756 178.613 26.7386 178.096H27.9205C27.9512 178.453 28.0713 178.749 28.2805 178.983C28.4929 179.214 28.7607 179.386 29.0838 179.5C29.41 179.611 29.7609 179.666 30.1364 179.666C30.5734 179.666 30.9658 179.595 31.3136 179.454C31.6613 179.309 31.9368 179.109 32.1399 178.853C32.343 178.595 32.4446 178.293 32.4446 177.949C32.4446 177.635 32.3569 177.379 32.1815 177.182C32.006 176.985 31.7752 176.825 31.489 176.702C31.2028 176.579 30.8935 176.471 30.5611 176.379L29.3977 176.047C28.6591 175.834 28.0743 175.531 27.6435 175.137C27.2126 174.743 26.9972 174.228 26.9972 173.591C26.9972 173.061 27.1403 172.6 27.4265 172.206C27.7158 171.809 28.1036 171.501 28.5898 171.282C29.0792 171.061 29.6255 170.95 30.2287 170.95C30.8381 170.95 31.3797 171.059 31.8537 171.278C32.3277 171.493 32.7031 171.789 32.9801 172.164C33.2602 172.54 33.4079 172.966 33.4233 173.443H32.3153Z" fill="#A74EAF"/>
<path d="M37.8798 171.079V180.534H36.7349V171.079H37.8798Z" fill="#A74EAF"/>
<path d="M46.6458 173.443C46.5904 172.975 46.3657 172.612 45.9718 172.353C45.5779 172.095 45.0947 171.966 44.5222 171.966C44.1037 171.966 43.7374 172.033 43.4235 172.169C43.1127 172.304 42.8695 172.49 42.6941 172.727C42.5218 172.964 42.4356 173.234 42.4356 173.535C42.4356 173.788 42.4956 174.005 42.6156 174.186C42.7387 174.365 42.8957 174.514 43.0865 174.634C43.2773 174.751 43.4774 174.848 43.6866 174.925C43.8959 174.999 44.0883 175.059 44.2637 175.105L45.2239 175.363C45.4701 175.428 45.7441 175.517 46.0457 175.631C46.3504 175.745 46.6412 175.9 46.9182 176.097C47.1982 176.291 47.4291 176.541 47.6107 176.845C47.7922 177.15 47.883 177.524 47.883 177.967C47.883 178.478 47.7491 178.94 47.4814 179.352C47.2167 179.764 46.8289 180.092 46.318 180.335C45.8102 180.578 45.1932 180.7 44.4668 180.7C43.7897 180.7 43.2035 180.591 42.708 180.372C42.2155 180.154 41.8277 179.849 41.5446 179.458C41.2645 179.067 41.106 178.613 41.0691 178.096H42.2509C42.2817 178.453 42.4017 178.749 42.611 178.983C42.8234 179.214 43.0911 179.386 43.4143 179.5C43.7405 179.611 44.0914 179.666 44.4668 179.666C44.9039 179.666 45.2963 179.595 45.644 179.454C45.9918 179.309 46.2673 179.109 46.4704 178.853C46.6735 178.595 46.7751 178.293 46.7751 177.949C46.7751 177.635 46.6874 177.379 46.5119 177.182C46.3365 176.985 46.1057 176.825 45.8195 176.702C45.5332 176.579 45.2239 176.471 44.8915 176.379L43.7282 176.047C42.9896 175.834 42.4048 175.531 41.9739 175.137C41.5431 174.743 41.3276 174.228 41.3276 173.591C41.3276 173.061 41.4707 172.6 41.757 172.206C42.0463 171.809 42.434 171.501 42.9203 171.282C43.4097 171.061 43.9559 170.95 44.5592 170.95C45.1685 170.95 45.7102 171.059 46.1842 171.278C46.6581 171.493 47.0336 171.789 47.3106 172.164C47.5906 172.54 47.7384 172.966 47.7538 173.443H46.6458Z" fill="#A74EAF"/>
<path d="M50.5483 172.095V171.079H57.6393V172.095H54.6662V180.534H53.5214V172.095H50.5483Z" fill="#A74EAF"/>
<path d="M60.7062 180.534V171.079H66.4122V172.095H61.8511V175.289H66.1167V176.305H61.8511V179.518H66.486V180.534H60.7062Z" fill="#A74EAF"/>
<path d="M69.7757 171.079H71.1422L74.3553 178.927H74.4661L77.6792 171.079H79.0456V180.534H77.9746V173.351H77.8823L74.9277 180.534H73.8936L70.9391 173.351H70.8468V180.534H69.7757V171.079Z" fill="#A74EAF"/>
<path d="M83.029 180.534H81.8287L85.3003 171.079H86.4821L89.9537 180.534H88.7534L85.9281 172.575H85.8542L83.029 180.534ZM83.4721 176.841H88.3102V177.856H83.4721V176.841Z" fill="#A74EAF"/>
<path d="M105.291 174.034H104.146C104.078 173.705 103.959 173.415 103.79 173.166C103.624 172.917 103.421 172.707 103.181 172.538C102.944 172.366 102.681 172.236 102.391 172.15C102.102 172.064 101.8 172.021 101.487 172.021C100.914 172.021 100.396 172.166 99.9308 172.455C99.4692 172.744 99.1014 173.171 98.8275 173.734C98.5566 174.297 98.4212 174.988 98.4212 175.807C98.4212 176.625 98.5566 177.316 98.8275 177.879C99.1014 178.443 99.4692 178.869 99.9308 179.158C100.396 179.447 100.914 179.592 101.487 179.592C101.8 179.592 102.102 179.549 102.391 179.463C102.681 179.377 102.944 179.249 103.181 179.08C103.421 178.907 103.624 178.696 103.79 178.447C103.959 178.195 104.078 177.906 104.146 177.579H105.291C105.204 178.062 105.047 178.495 104.82 178.876C104.592 179.258 104.309 179.583 103.97 179.851C103.632 180.115 103.252 180.317 102.83 180.455C102.411 180.594 101.964 180.663 101.487 180.663C100.68 180.663 99.9631 180.466 99.3353 180.072C98.7074 179.678 98.2135 179.118 97.8534 178.392C97.4933 177.665 97.3133 176.804 97.3133 175.807C97.3133 174.809 97.4933 173.948 97.8534 173.221C98.2135 172.495 98.7074 171.935 99.3353 171.541C99.9631 171.147 100.68 170.95 101.487 170.95C101.964 170.95 102.411 171.019 102.83 171.158C103.252 171.296 103.632 171.499 103.97 171.767C104.309 172.032 104.592 172.355 104.82 172.737C105.047 173.115 105.204 173.548 105.291 174.034Z" fill="#A74EAF"/>
<path d="M116.418 175.807C116.418 176.804 116.238 177.665 115.878 178.392C115.518 179.118 115.024 179.678 114.396 180.072C113.768 180.466 113.051 180.663 112.245 180.663C111.438 180.663 110.721 180.466 110.093 180.072C109.465 179.678 108.971 179.118 108.611 178.392C108.251 177.665 108.071 176.804 108.071 175.807C108.071 174.809 108.251 173.948 108.611 173.221C108.971 172.495 109.465 171.935 110.093 171.541C110.721 171.147 111.438 170.95 112.245 170.95C113.051 170.95 113.768 171.147 114.396 171.541C115.024 171.935 115.518 172.495 115.878 173.221C116.238 173.948 116.418 174.809 116.418 175.807ZM115.31 175.807C115.31 174.988 115.173 174.297 114.899 173.734C114.628 173.171 114.26 172.744 113.796 172.455C113.334 172.166 112.817 172.021 112.245 172.021C111.672 172.021 111.154 172.166 110.689 172.455C110.227 172.744 109.859 173.171 109.585 173.734C109.315 174.297 109.179 174.988 109.179 175.807C109.179 176.625 109.315 177.316 109.585 177.879C109.859 178.443 110.227 178.869 110.689 179.158C111.154 179.447 111.672 179.592 112.245 179.592C112.817 179.592 113.334 179.447 113.796 179.158C114.26 178.869 114.628 178.443 114.899 177.879C115.173 177.316 115.31 176.625 115.31 175.807Z" fill="#A74EAF"/>
<path d="M127.14 171.079V180.534H126.032L120.88 173.111H120.788V180.534H119.643V171.079H120.751L125.921 178.521H126.014V171.079H127.14Z" fill="#A74EAF"/>
<path d="M130.214 172.095V171.079H137.305V172.095H134.332V180.534H133.187V172.095H130.214Z" fill="#A74EAF"/>
<path d="M139.655 180.534H138.455L141.926 171.079H143.108L146.58 180.534H145.38L142.554 172.575H142.48L139.655 180.534ZM140.098 176.841H144.936V177.856H140.098V176.841Z" fill="#A74EAF"/>
<path d="M149.353 180.534V171.079H152.658C153.317 171.079 153.86 171.193 154.288 171.421C154.715 171.646 155.034 171.949 155.243 172.33C155.452 172.709 155.557 173.129 155.557 173.591C155.557 173.997 155.485 174.332 155.34 174.597C155.199 174.862 155.011 175.071 154.777 175.225C154.546 175.379 154.295 175.493 154.024 175.566V175.659C154.314 175.677 154.605 175.779 154.897 175.964C155.189 176.148 155.434 176.413 155.631 176.758C155.828 177.102 155.926 177.524 155.926 178.022C155.926 178.496 155.819 178.923 155.603 179.301C155.388 179.68 155.048 179.98 154.583 180.201C154.118 180.423 153.513 180.534 152.769 180.534H149.353ZM150.497 179.518H152.769C153.517 179.518 154.047 179.374 154.361 179.084C154.678 178.792 154.837 178.438 154.837 178.022C154.837 177.702 154.755 177.407 154.592 177.136C154.429 176.862 154.197 176.644 153.895 176.481C153.594 176.314 153.237 176.231 152.824 176.231H150.497V179.518ZM150.497 175.234H152.621C152.966 175.234 153.277 175.166 153.553 175.031C153.834 174.896 154.055 174.705 154.218 174.459C154.384 174.212 154.468 173.923 154.468 173.591C154.468 173.175 154.323 172.823 154.034 172.533C153.744 172.241 153.286 172.095 152.658 172.095H150.497V175.234Z" fill="#A74EAF"/>
<path d="M159.108 180.534V171.079H160.252V179.518H164.647V180.534H159.108Z" fill="#A74EAF"/>
<path d="M167.72 180.534V171.079H173.426V172.095H168.865V175.289H173.131V176.305H168.865V179.518H173.5V180.534H167.72Z" fill="#A74EAF"/>
</svg>
