<svg width="40" height="40" viewBox="0 0 40 40" fill="none" xmlns="http://www.w3.org/2000/svg">
<path d="M15.5834 11.2527V29.7382H12.181L4.07551 18.1036H3.93905V29.7382H0V11.2527H3.4569L11.4988 22.8784H11.6625V11.2527H15.5834Z" fill="white"/>
<path d="M28.9447 16.5691C28.872 15.841 28.5596 15.2754 28.0077 14.8722C27.4558 14.469 26.7068 14.2675 25.7607 14.2675C25.1179 14.2675 24.5751 14.3577 24.1324 14.5382C23.6896 14.7127 23.35 14.9565 23.1135 15.2694C22.883 15.5823 22.7678 15.9373 22.7678 16.3344C22.7557 16.6654 22.8254 16.9542 22.977 17.201C23.1347 17.4477 23.35 17.6613 23.6229 17.8418C23.8958 18.0163 24.2112 18.1698 24.569 18.3021C24.9268 18.4285 25.3089 18.5368 25.7153 18.6271L27.3891 19.0242C28.2018 19.2048 28.9478 19.4454 29.627 19.7463C30.3063 20.0472 30.8946 20.4173 31.3919 20.8565C31.8892 21.2958 32.2743 21.8133 32.5472 22.409C32.8262 23.0048 32.9687 23.6877 32.9748 24.458C32.9687 25.5892 32.6776 26.5701 32.1014 27.4005C31.5314 28.2249 30.7065 28.8657 29.627 29.323C28.5536 29.7743 27.2587 30 25.7426 30C24.2385 30 22.9285 29.7713 21.8126 29.314C20.7028 28.8567 19.8355 28.1797 19.2108 27.2831C18.5922 26.3805 18.2678 25.2643 18.2374 23.9344H22.0491C22.0916 24.5542 22.2705 25.0717 22.5859 25.4869C22.9073 25.8961 23.3349 26.206 23.8685 26.4166C24.4083 26.6212 25.0178 26.7235 25.6971 26.7235C26.3642 26.7235 26.9434 26.6272 27.4346 26.4347C27.9319 26.2421 28.317 25.9743 28.59 25.6314C28.8629 25.2884 28.9993 24.8942 28.9993 24.4489C28.9993 24.0337 28.875 23.6847 28.6263 23.4019C28.3837 23.1191 28.0259 22.8784 27.5529 22.6798C27.0859 22.4812 26.5128 22.3007 25.8335 22.1382L23.8049 21.6328C22.2341 21.2537 20.9939 20.661 20.0842 19.8546C19.1744 19.0483 18.7226 17.9622 18.7287 16.5962C18.7226 15.477 19.0228 14.4991 19.6293 13.6627C20.2418 12.8263 21.0818 12.1734 22.1492 11.704C23.2166 11.2347 24.4295 11 25.788 11C27.1708 11 28.3777 11.2347 29.4087 11.704C30.4458 12.1734 31.2524 12.8263 31.8285 13.6627C32.4047 14.4991 32.7018 15.4679 32.72 16.5691H28.9447Z" fill="white"/>
<path d="M37.8167 29.9729C37.2163 29.9729 36.7008 29.7623 36.2702 29.3411C35.8457 28.9139 35.6334 28.4024 35.6334 27.8067C35.6334 27.2169 35.8457 26.7115 36.2702 26.2903C36.7008 25.869 37.2163 25.6584 37.8167 25.6584C38.3989 25.6584 38.9083 25.869 39.345 26.2903C39.7817 26.7115 40 27.2169 40 27.8067C40 28.2038 39.8969 28.5679 39.6907 28.8988C39.4906 29.2238 39.2267 29.4855 38.8993 29.6841C38.5718 29.8766 38.2109 29.9729 37.8167 29.9729Z" fill="#42CEB5"/>
</svg>
