<svg width="100" height="100" viewBox="0 0 100 100" fill="none" xmlns="http://www.w3.org/2000/svg">
<mask id="path-1-inside-1_601_45" fill="white">
<path d="M46.1564 0.0946118C47.4752 -0.0788157 48.8683 0.0392404 50.1974 0.0392404C55.1213 0.0392404 59.9556 0.804907 64.6667 2.25606C70.679 4.10813 76.2791 7.06919 81.2217 10.9648C87.2798 15.7395 92.2995 22.0022 95.5204 29.0309C101.547 42.1809 101.503 58.1177 95.3285 71.2124C91.3366 79.6791 84.9323 86.7655 77.1807 91.9332C70.8561 96.1497 63.459 98.7306 55.933 99.6443C46.3534 100.808 35.9971 99.1077 27.3854 94.6853C11.2187 86.383 0.22789 69.6738 0.0104587 51.3623C-0.031385 47.8318 0.0234942 44.2804 0.721281 40.7842C1.85784 35.0905 3.83949 29.5867 6.81561 24.5907C10.035 19.1861 14.1934 14.4169 19.1731 10.5717C25.0127 6.06245 31.7997 2.81904 38.9869 1.169C40.7226 0.770566 42.4654 0.549759 44.2169 0.336208L44.7703 0.268813C45.2317 0.21252 45.6938 0.155488 46.1564 0.0946118ZM29.432 83.3433C27.2057 83.5824 24.8576 83.9882 22.9468 85.2406C23.3769 85.3442 23.8699 85.2414 24.3187 85.2406C25.3965 85.2388 26.4846 85.1982 27.5613 85.2455C30.2566 85.3639 33.0649 85.7958 35.6677 86.5106C39.0002 87.4259 41.9355 89.2271 45.1461 90.4417C48.5331 91.723 51.9046 92.1212 55.4974 92.1212C57.3079 92.1212 59.1047 92.1158 60.8602 91.6208C59.944 91.1322 58.6325 91.2239 57.6176 91.0203C55.4155 90.5786 53.2504 90.0393 51.1324 89.2824C49.5735 88.7253 48.072 88.0378 46.5773 87.3356L45.617 86.8834C44.2297 86.2304 42.839 85.5863 41.4046 85.0436C37.633 83.6165 33.4535 82.9114 29.432 83.3433ZM32.7993 73.8563C28.3875 73.8563 23.9254 74.6347 19.9536 76.6396C18.9913 77.1253 18.0767 77.7041 17.2099 78.3455C16.9458 78.541 16.4775 78.7922 16.3798 79.1321C16.2808 79.4769 16.6348 79.7658 16.8358 79.9863C17.8285 79.4564 18.7717 78.8954 19.8289 78.4931C26.6664 75.8916 34.9554 76.4369 41.7788 78.8222C45.1816 80.0118 48.3168 81.7908 51.6313 83.1859C55.338 84.7462 59.124 85.7579 63.105 86.2767C67.8009 86.8884 73.1548 86.3927 77.4473 84.2703C78.9556 83.5246 81.0498 82.3881 81.6876 80.7369C80.8999 80.8059 80.1911 81.1439 79.4427 81.3769C78.2527 81.7475 77.0484 82.0618 75.826 82.3071C71.6828 83.1384 67.277 83.31 63.105 82.5555C59.1731 81.8444 55.5197 80.4163 51.8835 78.9139L51.4194 78.7217C51.11 78.5934 50.8006 78.4648 50.4912 78.3362L50.0269 78.1434C48.1692 77.3728 46.3045 76.6115 44.3978 75.9449C40.6938 74.6499 36.7241 73.8563 32.7993 73.8563ZM40.5316 5.97889C35.2431 7.14897 30.5055 9.42745 25.94 12.2998C23.2894 13.9673 20.7539 15.6756 18.4571 17.8217C15.0414 21.0134 12.4308 24.8927 10.154 28.9446C7.80814 33.1194 6.30408 37.9849 5.57711 42.7059C4.86399 47.3374 4.74651 52.207 5.5634 56.8424C6.58456 62.6376 8.52825 68.0758 11.5977 73.1057C12.6293 72.6232 13.3616 71.523 14.2167 70.7819C15.9436 69.2856 17.7565 67.8987 19.7042 66.7018C20.4252 66.2589 21.1659 65.9148 21.9491 65.5996C22.2445 65.4806 22.7276 65.3719 22.8666 65.0469C23.0876 64.5307 22.6789 63.6323 22.6087 63.0975C22.4083 61.5679 22.2873 60.0123 22.3251 58.4687C22.4348 53.9734 23.2736 49.4155 24.8704 45.2079C26.0738 42.0376 27.9121 39.1591 30.0899 36.5759C30.8288 35.6993 31.6144 34.8834 32.4251 34.0739C32.9043 33.5956 33.4989 33.1862 33.797 32.5726C32.2333 32.5736 30.6694 33.0252 29.1826 33.4837C25.9794 34.4715 22.859 35.9372 20.2031 38.0052C18.9916 38.9486 18.1044 40.1851 16.9586 41.1779C16.6072 41.4825 15.9776 41.8907 15.492 41.6609C14.7583 41.3139 14.8715 39.8677 14.7874 39.203C14.4642 36.6464 15.4311 33.4127 16.6599 31.1965C18.6325 27.6389 22.2799 24.6012 26.5635 24.7073C28.4134 24.7531 30.033 25.3969 31.8016 25.8171C31.3531 25.1789 30.7518 24.7138 30.1803 24.1908C28.7798 22.9091 27.2481 21.7385 25.5658 20.853C24.889 20.4969 24.1603 20.2804 23.4457 20.0187C23.0864 19.8872 22.6339 19.7062 22.4987 19.3063C22.2484 18.5655 23.5801 17.8795 24.0692 17.5671C25.9602 16.3596 28.2787 15.3663 30.5544 15.3104C34.1108 15.2229 37.5856 17.1994 39.0505 20.5628C39.5655 21.7451 39.7178 22.9954 39.8189 24.2572L39.8373 24.4939L39.8636 24.8493C39.8665 24.8888 39.8694 24.9283 39.8723 24.9678L39.8899 25.2048L39.908 25.4418C41.025 24.5298 41.8106 23.1877 42.9012 22.2109C45.4519 19.9263 48.9427 18.9121 52.2548 19.9405C55.2481 20.8698 57.8497 22.9387 59.3808 25.692C59.7814 26.4123 60.899 28.1729 60.0916 28.8903C59.4596 29.452 58.6582 29.0143 57.9917 28.7814C57.4871 28.605 56.9656 28.4932 56.4424 28.3896L56.1569 28.3336C56.0617 28.315 55.9666 28.2963 55.8716 28.2772C54.0592 27.9133 51.951 27.9511 50.1347 28.271C48.9604 28.4778 47.8127 28.8963 46.6427 29.0697V29.3199C49.8421 29.3465 52.937 31.1746 54.5155 33.9487C55.1695 35.098 55.4962 36.4135 55.7467 37.7018C56.0565 39.2941 55.8388 41.0289 55.4044 42.5808C55.2587 43.1011 54.9943 43.9832 54.3731 44.103C53.934 44.1877 53.5611 43.7498 53.3104 43.4546C52.6533 42.6807 52.0282 41.945 51.2571 41.2767C49.3063 39.5862 47.2437 38.0268 45.1461 36.5232C44.0324 35.7248 42.8125 34.6868 41.5293 34.1989C41.8901 35.0694 42.2436 35.8787 42.3663 36.8261C42.7272 39.6128 41.5624 42.2359 39.814 44.3322C39.2805 44.972 38.7098 45.6164 38.0373 46.1134C37.7585 46.3196 37.4085 46.5888 37.0396 46.5305C35.883 46.3475 35.7453 44.6013 35.568 43.7067C34.9673 40.6766 35.2085 37.6671 36.0419 34.6993C35.3004 35.0759 34.7645 35.8999 34.299 36.5759C33.2747 38.0632 32.386 39.6364 31.7487 41.3297C29.2106 48.0751 29.2351 55.9758 32.523 62.4696C32.8902 63.1948 33.4474 63.0975 34.1712 63.0975C34.2802 63.0975 34.3894 63.0968 34.4986 63.0959L34.8266 63.0925C35.483 63.0856 36.1407 63.0827 36.7902 63.1696C37.1272 63.2146 37.5951 63.1745 37.8618 63.4232C38.1812 63.7212 38.011 64.2321 37.9374 64.5987C37.7319 65.6238 37.6632 66.5555 37.6632 67.6012C39.0283 67.3893 39.4067 65.1972 39.8906 64.0983C40.439 62.8534 40.9969 61.6073 41.5043 60.3453C41.7537 59.725 42.0873 59.0314 41.9998 58.3436C41.9015 57.5706 41.3439 56.7511 40.9553 56.0918C40.2197 54.8442 39.3836 53.5602 38.8421 52.2136C38.4092 51.1371 38.8123 49.7919 40.0329 49.4073C40.7061 49.1952 41.4243 49.6113 41.8625 50.0987C42.7811 51.1204 43.3741 52.6407 44.0411 53.84L49.2442 63.2226C49.6861 64.0171 50.1289 64.8108 50.581 65.5996C50.7574 65.9073 50.9368 66.3825 51.2981 66.5137C51.6199 66.6305 52.0595 66.4644 52.3795 66.4002C53.2104 66.2336 54.04 66.0537 54.8739 65.9028C55.8731 65.722 57.3962 65.7559 58.1164 64.9741C57.0631 64.6399 55.8455 64.6597 54.7491 64.735C54.0906 64.7803 53.3607 65.0162 52.7556 64.631C51.855 64.0578 51.2564 62.7337 50.7054 61.8465C49.3469 59.6587 48.0669 57.438 46.766 55.2161L46.5578 54.8623L46.1394 54.1554C45.9305 53.8017 45.7233 53.4471 45.5222 53.0893C45.3668 52.8126 45.1365 52.4479 45.3591 52.1428C45.5929 51.8225 46.1026 51.8036 46.5627 51.803L46.654 51.803C46.8348 51.8032 47.0043 51.8034 47.1415 51.7853C48.9983 51.5406 50.8808 51.3379 52.7537 51.3379C52.6079 50.83 52.191 50.2559 52.3243 49.7121C52.6226 48.4953 54.3705 48.1147 55.1834 48.9877C55.7291 49.5739 56.0463 50.3805 56.4014 51.0877C56.8699 52.0214 57.4034 52.9238 57.9052 53.84C58.7834 55.4439 59.7426 57.0038 60.6458 58.5938C60.7203 58.725 60.797 58.8555 60.8746 58.9858L60.9913 59.1814C61.3811 59.8334 61.7726 60.4897 61.9826 61.221C58.8458 61.0772 56.491 57.4303 55.1233 54.9659C55.0142 55.3605 55.1915 55.7126 55.3333 56.0918C55.628 56.8793 55.9802 57.6293 56.4234 58.3436C57.0565 59.3637 57.7822 60.4142 58.74 61.1548C60.4398 62.469 62.6811 62.4763 64.7263 62.3358C66.0378 62.2456 67.6766 61.6476 68.9667 62.0533C70.2546 62.4584 70.773 63.881 70.0081 64.9739C69.4352 65.7926 68.6705 66.1017 67.7195 66.2251C68.392 67.6699 69.273 69.0107 69.9115 70.4785C70.1775 71.09 70.4547 72.0272 71.0922 72.3498C71.5166 72.5645 72.1246 72.3646 72.5834 72.3551C72.1229 71.1348 71.2608 70.0994 70.8374 68.8522C72.1283 68.9114 73.3768 69.5861 74.5788 70.0167C76.9433 70.8637 79.278 71.7897 81.6094 72.7241L82.6853 73.1557C83.6442 73.5404 84.6089 73.9212 85.5537 74.3394C85.8995 74.4924 86.3781 74.8501 86.7602 74.6299C87.072 74.4502 87.2737 74.0216 87.466 73.7312C88.0039 72.9188 88.491 72.0753 88.9736 71.2292C90.906 67.8404 92.3234 64.1272 93.2702 60.3453C96.3934 47.8721 93.7141 34.1095 86.2091 23.6903C83.3256 19.6872 79.6993 16.2264 75.7013 13.3603C65.696 6.18806 52.5695 3.31571 40.5316 5.97889ZM60.9849 68.1803C58.3326 68.8729 55.5992 69.5006 52.8784 69.853C53.2362 71.0732 54.1106 72.26 54.7506 73.3559C54.9981 73.7796 55.2628 74.3471 55.7518 74.531C56.3042 74.7386 56.9717 74.4016 57.4929 74.2316C57.2515 73.5703 56.8455 72.9752 56.5131 72.3551C56.3762 72.0994 56.1643 71.7966 56.2771 71.493C56.4905 70.9193 57.3764 70.9531 57.867 70.8534C59.1599 70.5906 60.4394 70.2627 61.7332 70.0032C62.2098 69.9075 62.8736 69.6482 63.3526 69.8084C63.7113 69.9283 63.9275 70.2242 64.132 70.5329L64.2237 70.6721C64.3461 70.8574 64.4714 71.0384 64.6278 71.1799C65.1509 71.6529 65.9331 71.7256 66.5971 71.8547C66.1919 70.9414 65.5184 70.1424 65.0866 69.2275C64.8356 68.6955 64.6293 67.9127 64.0797 67.6052C63.3225 67.1816 61.7589 67.9781 60.9849 68.1803ZM44.2731 62.0967C44.1482 63.6827 43.6625 64.9732 42.9012 66.3502C43.7736 66.4608 44.6634 66.5002 45.5202 66.7128C46.1624 66.8722 46.7542 67.1762 47.3909 67.351C47.0505 66.418 46.4188 65.5855 45.9294 64.7238C45.4353 63.854 44.9931 62.797 44.2731 62.0967Z"/>
</mask>
<path d="M46.1564 0.0946118C47.4752 -0.0788157 48.8683 0.0392404 50.1974 0.0392404C55.1213 0.0392404 59.9556 0.804907 64.6667 2.25606C70.679 4.10813 76.2791 7.06919 81.2217 10.9648C87.2798 15.7395 92.2995 22.0022 95.5204 29.0309C101.547 42.1809 101.503 58.1177 95.3285 71.2124C91.3366 79.6791 84.9323 86.7655 77.1807 91.9332C70.8561 96.1497 63.459 98.7306 55.933 99.6443C46.3534 100.808 35.9971 99.1077 27.3854 94.6853C11.2187 86.383 0.22789 69.6738 0.0104587 51.3623C-0.031385 47.8318 0.0234942 44.2804 0.721281 40.7842C1.85784 35.0905 3.83949 29.5867 6.81561 24.5907C10.035 19.1861 14.1934 14.4169 19.1731 10.5717C25.0127 6.06245 31.7997 2.81904 38.9869 1.169C40.7226 0.770566 42.4654 0.549759 44.2169 0.336208L44.7703 0.268813C45.2317 0.21252 45.6938 0.155488 46.1564 0.0946118ZM29.432 83.3433C27.2057 83.5824 24.8576 83.9882 22.9468 85.2406C23.3769 85.3442 23.8699 85.2414 24.3187 85.2406C25.3965 85.2388 26.4846 85.1982 27.5613 85.2455C30.2566 85.3639 33.0649 85.7958 35.6677 86.5106C39.0002 87.4259 41.9355 89.2271 45.1461 90.4417C48.5331 91.723 51.9046 92.1212 55.4974 92.1212C57.3079 92.1212 59.1047 92.1158 60.8602 91.6208C59.944 91.1322 58.6325 91.2239 57.6176 91.0203C55.4155 90.5786 53.2504 90.0393 51.1324 89.2824C49.5735 88.7253 48.072 88.0378 46.5773 87.3356L45.617 86.8834C44.2297 86.2304 42.839 85.5863 41.4046 85.0436C37.633 83.6165 33.4535 82.9114 29.432 83.3433ZM32.7993 73.8563C28.3875 73.8563 23.9254 74.6347 19.9536 76.6396C18.9913 77.1253 18.0767 77.7041 17.2099 78.3455C16.9458 78.541 16.4775 78.7922 16.3798 79.1321C16.2808 79.4769 16.6348 79.7658 16.8358 79.9863C17.8285 79.4564 18.7717 78.8954 19.8289 78.4931C26.6664 75.8916 34.9554 76.4369 41.7788 78.8222C45.1816 80.0118 48.3168 81.7908 51.6313 83.1859C55.338 84.7462 59.124 85.7579 63.105 86.2767C67.8009 86.8884 73.1548 86.3927 77.4473 84.2703C78.9556 83.5246 81.0498 82.3881 81.6876 80.7369C80.8999 80.8059 80.1911 81.1439 79.4427 81.3769C78.2527 81.7475 77.0484 82.0618 75.826 82.3071C71.6828 83.1384 67.277 83.31 63.105 82.5555C59.1731 81.8444 55.5197 80.4163 51.8835 78.9139L51.4194 78.7217C51.11 78.5934 50.8006 78.4648 50.4912 78.3362L50.0269 78.1434C48.1692 77.3728 46.3045 76.6115 44.3978 75.9449C40.6938 74.6499 36.7241 73.8563 32.7993 73.8563ZM40.5316 5.97889C35.2431 7.14897 30.5055 9.42745 25.94 12.2998C23.2894 13.9673 20.7539 15.6756 18.4571 17.8217C15.0414 21.0134 12.4308 24.8927 10.154 28.9446C7.80814 33.1194 6.30408 37.9849 5.57711 42.7059C4.86399 47.3374 4.74651 52.207 5.5634 56.8424C6.58456 62.6376 8.52825 68.0758 11.5977 73.1057C12.6293 72.6232 13.3616 71.523 14.2167 70.7819C15.9436 69.2856 17.7565 67.8987 19.7042 66.7018C20.4252 66.2589 21.1659 65.9148 21.9491 65.5996C22.2445 65.4806 22.7276 65.3719 22.8666 65.0469C23.0876 64.5307 22.6789 63.6323 22.6087 63.0975C22.4083 61.5679 22.2873 60.0123 22.3251 58.4687C22.4348 53.9734 23.2736 49.4155 24.8704 45.2079C26.0738 42.0376 27.9121 39.1591 30.0899 36.5759C30.8288 35.6993 31.6144 34.8834 32.4251 34.0739C32.9043 33.5956 33.4989 33.1862 33.797 32.5726C32.2333 32.5736 30.6694 33.0252 29.1826 33.4837C25.9794 34.4715 22.859 35.9372 20.2031 38.0052C18.9916 38.9486 18.1044 40.1851 16.9586 41.1779C16.6072 41.4825 15.9776 41.8907 15.492 41.6609C14.7583 41.3139 14.8715 39.8677 14.7874 39.203C14.4642 36.6464 15.4311 33.4127 16.6599 31.1965C18.6325 27.6389 22.2799 24.6012 26.5635 24.7073C28.4134 24.7531 30.033 25.3969 31.8016 25.8171C31.3531 25.1789 30.7518 24.7138 30.1803 24.1908C28.7798 22.9091 27.2481 21.7385 25.5658 20.853C24.889 20.4969 24.1603 20.2804 23.4457 20.0187C23.0864 19.8872 22.6339 19.7062 22.4987 19.3063C22.2484 18.5655 23.5801 17.8795 24.0692 17.5671C25.9602 16.3596 28.2787 15.3663 30.5544 15.3104C34.1108 15.2229 37.5856 17.1994 39.0505 20.5628C39.5655 21.7451 39.7178 22.9954 39.8189 24.2572L39.8373 24.4939L39.8636 24.8493C39.8665 24.8888 39.8694 24.9283 39.8723 24.9678L39.8899 25.2048L39.908 25.4418C41.025 24.5298 41.8106 23.1877 42.9012 22.2109C45.4519 19.9263 48.9427 18.9121 52.2548 19.9405C55.2481 20.8698 57.8497 22.9387 59.3808 25.692C59.7814 26.4123 60.899 28.1729 60.0916 28.8903C59.4596 29.452 58.6582 29.0143 57.9917 28.7814C57.4871 28.605 56.9656 28.4932 56.4424 28.3896L56.1569 28.3336C56.0617 28.315 55.9666 28.2963 55.8716 28.2772C54.0592 27.9133 51.951 27.9511 50.1347 28.271C48.9604 28.4778 47.8127 28.8963 46.6427 29.0697V29.3199C49.8421 29.3465 52.937 31.1746 54.5155 33.9487C55.1695 35.098 55.4962 36.4135 55.7467 37.7018C56.0565 39.2941 55.8388 41.0289 55.4044 42.5808C55.2587 43.1011 54.9943 43.9832 54.3731 44.103C53.934 44.1877 53.5611 43.7498 53.3104 43.4546C52.6533 42.6807 52.0282 41.945 51.2571 41.2767C49.3063 39.5862 47.2437 38.0268 45.1461 36.5232C44.0324 35.7248 42.8125 34.6868 41.5293 34.1989C41.8901 35.0694 42.2436 35.8787 42.3663 36.8261C42.7272 39.6128 41.5624 42.2359 39.814 44.3322C39.2805 44.972 38.7098 45.6164 38.0373 46.1134C37.7585 46.3196 37.4085 46.5888 37.0396 46.5305C35.883 46.3475 35.7453 44.6013 35.568 43.7067C34.9673 40.6766 35.2085 37.6671 36.0419 34.6993C35.3004 35.0759 34.7645 35.8999 34.299 36.5759C33.2747 38.0632 32.386 39.6364 31.7487 41.3297C29.2106 48.0751 29.2351 55.9758 32.523 62.4696C32.8902 63.1948 33.4474 63.0975 34.1712 63.0975C34.2802 63.0975 34.3894 63.0968 34.4986 63.0959L34.8266 63.0925C35.483 63.0856 36.1407 63.0827 36.7902 63.1696C37.1272 63.2146 37.5951 63.1745 37.8618 63.4232C38.1812 63.7212 38.011 64.2321 37.9374 64.5987C37.7319 65.6238 37.6632 66.5555 37.6632 67.6012C39.0283 67.3893 39.4067 65.1972 39.8906 64.0983C40.439 62.8534 40.9969 61.6073 41.5043 60.3453C41.7537 59.725 42.0873 59.0314 41.9998 58.3436C41.9015 57.5706 41.3439 56.7511 40.9553 56.0918C40.2197 54.8442 39.3836 53.5602 38.8421 52.2136C38.4092 51.1371 38.8123 49.7919 40.0329 49.4073C40.7061 49.1952 41.4243 49.6113 41.8625 50.0987C42.7811 51.1204 43.3741 52.6407 44.0411 53.84L49.2442 63.2226C49.6861 64.0171 50.1289 64.8108 50.581 65.5996C50.7574 65.9073 50.9368 66.3825 51.2981 66.5137C51.6199 66.6305 52.0595 66.4644 52.3795 66.4002C53.2104 66.2336 54.04 66.0537 54.8739 65.9028C55.8731 65.722 57.3962 65.7559 58.1164 64.9741C57.0631 64.6399 55.8455 64.6597 54.7491 64.735C54.0906 64.7803 53.3607 65.0162 52.7556 64.631C51.855 64.0578 51.2564 62.7337 50.7054 61.8465C49.3469 59.6587 48.0669 57.438 46.766 55.2161L46.5578 54.8623L46.1394 54.1554C45.9305 53.8017 45.7233 53.4471 45.5222 53.0893C45.3668 52.8126 45.1365 52.4479 45.3591 52.1428C45.5929 51.8225 46.1026 51.8036 46.5627 51.803L46.654 51.803C46.8348 51.8032 47.0043 51.8034 47.1415 51.7853C48.9983 51.5406 50.8808 51.3379 52.7537 51.3379C52.6079 50.83 52.191 50.2559 52.3243 49.7121C52.6226 48.4953 54.3705 48.1147 55.1834 48.9877C55.7291 49.5739 56.0463 50.3805 56.4014 51.0877C56.8699 52.0214 57.4034 52.9238 57.9052 53.84C58.7834 55.4439 59.7426 57.0038 60.6458 58.5938C60.7203 58.725 60.797 58.8555 60.8746 58.9858L60.9913 59.1814C61.3811 59.8334 61.7726 60.4897 61.9826 61.221C58.8458 61.0772 56.491 57.4303 55.1233 54.9659C55.0142 55.3605 55.1915 55.7126 55.3333 56.0918C55.628 56.8793 55.9802 57.6293 56.4234 58.3436C57.0565 59.3637 57.7822 60.4142 58.74 61.1548C60.4398 62.469 62.6811 62.4763 64.7263 62.3358C66.0378 62.2456 67.6766 61.6476 68.9667 62.0533C70.2546 62.4584 70.773 63.881 70.0081 64.9739C69.4352 65.7926 68.6705 66.1017 67.7195 66.2251C68.392 67.6699 69.273 69.0107 69.9115 70.4785C70.1775 71.09 70.4547 72.0272 71.0922 72.3498C71.5166 72.5645 72.1246 72.3646 72.5834 72.3551C72.1229 71.1348 71.2608 70.0994 70.8374 68.8522C72.1283 68.9114 73.3768 69.5861 74.5788 70.0167C76.9433 70.8637 79.278 71.7897 81.6094 72.7241L82.6853 73.1557C83.6442 73.5404 84.6089 73.9212 85.5537 74.3394C85.8995 74.4924 86.3781 74.8501 86.7602 74.6299C87.072 74.4502 87.2737 74.0216 87.466 73.7312C88.0039 72.9188 88.491 72.0753 88.9736 71.2292C90.906 67.8404 92.3234 64.1272 93.2702 60.3453C96.3934 47.8721 93.7141 34.1095 86.2091 23.6903C83.3256 19.6872 79.6993 16.2264 75.7013 13.3603C65.696 6.18806 52.5695 3.31571 40.5316 5.97889ZM60.9849 68.1803C58.3326 68.8729 55.5992 69.5006 52.8784 69.853C53.2362 71.0732 54.1106 72.26 54.7506 73.3559C54.9981 73.7796 55.2628 74.3471 55.7518 74.531C56.3042 74.7386 56.9717 74.4016 57.4929 74.2316C57.2515 73.5703 56.8455 72.9752 56.5131 72.3551C56.3762 72.0994 56.1643 71.7966 56.2771 71.493C56.4905 70.9193 57.3764 70.9531 57.867 70.8534C59.1599 70.5906 60.4394 70.2627 61.7332 70.0032C62.2098 69.9075 62.8736 69.6482 63.3526 69.8084C63.7113 69.9283 63.9275 70.2242 64.132 70.5329L64.2237 70.6721C64.3461 70.8574 64.4714 71.0384 64.6278 71.1799C65.1509 71.6529 65.9331 71.7256 66.5971 71.8547C66.1919 70.9414 65.5184 70.1424 65.0866 69.2275C64.8356 68.6955 64.6293 67.9127 64.0797 67.6052C63.3225 67.1816 61.7589 67.9781 60.9849 68.1803ZM44.2731 62.0967C44.1482 63.6827 43.6625 64.9732 42.9012 66.3502C43.7736 66.4608 44.6634 66.5002 45.5202 66.7128C46.1624 66.8722 46.7542 67.1762 47.3909 67.351C47.0505 66.418 46.4188 65.5855 45.9294 64.7238C45.4353 63.854 44.9931 62.797 44.2731 62.0967Z" stroke="#42CEB5" stroke-width="4" mask="url(#path-1-inside-1_601_45)"/>
</svg>
