<svg width="100" height="100" viewBox="0 0 100 100" fill="none" xmlns="http://www.w3.org/2000/svg">
<path d="M100 77.5116C96.3625 78.4366 94.1125 77.5522 92.0938 74.5209L77.7375 54.6585L75.6625 51.9085L58.8969 74.5866C56.9813 77.3147 54.9719 78.5022 51.3969 77.5366L72.8656 48.7178L52.8781 22.6866C56.3156 22.0178 58.6906 22.3585 60.8 25.4366L75.6906 45.546L90.6906 25.546C92.6125 22.8178 94.6781 21.7803 98.1281 22.7866L90.3781 33.0616L79.8781 46.7335C78.6281 48.296 78.8 49.3647 79.95 50.8741L100 77.5116ZM0.025 48.2366L1.78125 39.5991C6.5625 22.5053 26.1563 15.4022 39.6688 25.9647C47.5656 32.1772 49.5281 40.9647 49.1375 50.8085H4.625C3.95625 68.5272 16.7094 79.221 32.9688 73.7647C38.6719 71.8491 42.0312 67.3835 43.7125 61.796C44.5656 58.996 45.9781 58.5585 48.6094 59.3585C47.2656 66.346 44.2344 72.1835 37.8281 75.8366C28.2562 81.3053 14.5937 79.5366 7.40625 71.9366C3.125 67.5272 1.35625 61.9397 0.5625 55.9647C0.4375 54.9772 0.1875 54.0366 0 53.0897C0.0166667 51.473 0.025 49.8564 0.025 48.2397V48.2366ZM4.70625 47.0491H44.9313C44.6688 34.2366 36.6906 25.1366 25.7875 25.0585C13.8187 24.9647 5.225 33.8491 4.70625 47.0491Z" fill="#42CEB5"/>
</svg>
