<svg width="100" height="100" viewBox="0 0 100 100" fill="none" xmlns="http://www.w3.org/2000/svg">
<mask id="path-1-inside-1_62_40" fill="white">
<path fill-rule="evenodd" clip-rule="evenodd" d="M8 0H92L86.3188 91.4445L50 100L13.6812 91.4445L8 0ZM78.4568 17.1843H33.0719H21.4842L23.0005 38.8904L23.1622 41.2025L23.7589 49.7435H23.7594H35.3465H64.7831L63.5516 69.0811L50.0671 72.1731L36.5505 69.0807L35.7251 55.5318H24.1285L24.792 66.3905L24.7674 66.3848L25.4037 76.4035L25.4562 77.2618H25.4607L50.0671 83.0495L74.6193 77.2612L74.9884 71.4496L75.0086 71.1324L76.3708 49.7435H76.3754L77.0669 38.8904H77.062H65.4743H34.5883L33.8301 28.0374H77.758L78.4568 17.1843Z"/>
</mask>
<path d="M92 0L93.9962 0.124015L94.1281 -2H92V0ZM8 0V-2H5.87189L6.00385 0.124015L8 0ZM86.3188 91.4445L86.7774 93.3912L88.2229 93.0507L88.315 91.5685L86.3188 91.4445ZM50 100L49.5414 101.947L50 102.055L50.4586 101.947L50 100ZM13.6812 91.4445L11.685 91.5685L11.7771 93.0507L13.2226 93.3912L13.6812 91.4445ZM78.4568 17.1843L80.4526 17.3128L80.5897 15.1843H78.4568V17.1843ZM21.4842 17.1843V15.1843H19.3396L19.4891 17.3237L21.4842 17.1843ZM23.0005 38.8904L21.0054 39.0298L21.0054 39.0299L23.0005 38.8904ZM23.1622 41.2025L25.1573 41.0631L25.1573 41.063L23.1622 41.2025ZM23.7589 49.7435L21.7637 49.8829L21.8937 51.7435H23.7589V49.7435ZM64.7831 49.7435L66.7791 49.8706L66.9146 47.7435H64.7831V49.7435ZM63.5516 69.0811L63.9986 71.0305L65.4527 70.6971L65.5476 69.2082L63.5516 69.0811ZM50.0671 72.1731L49.621 74.1228L50.0676 74.2249L50.5141 74.1226L50.0671 72.1731ZM36.5505 69.0807L34.5542 69.2023L34.6452 70.6965L36.1044 71.0303L36.5505 69.0807ZM35.7251 55.5318L37.7214 55.4102L37.607 53.5318H35.7251V55.5318ZM24.1285 55.5318V53.5318H22.0026L22.1323 55.6538L24.1285 55.5318ZM24.792 66.3905L24.3456 68.34L26.9513 68.9366L26.7882 66.2685L24.792 66.3905ZM24.7674 66.3848L25.2137 64.4353L22.6015 63.8372L22.7714 66.5116L24.7674 66.3848ZM25.4037 76.4035L27.4 76.2815L27.3997 76.2767L25.4037 76.4035ZM25.4562 77.2618L23.4599 77.3838L23.5746 79.2618H25.4562V77.2618ZM25.4607 77.2618L25.9186 75.3149L25.6927 75.2618H25.4607V77.2618ZM50.0671 83.0495L49.6091 84.9964L50.0676 85.1042L50.526 84.9962L50.0671 83.0495ZM74.6193 77.2612L75.0783 79.2079L76.5213 78.8677L76.6153 77.388L74.6193 77.2612ZM74.9884 71.4496L72.9924 71.3225L72.9924 71.3229L74.9884 71.4496ZM75.0086 71.1324L77.0046 71.2595V71.2595L75.0086 71.1324ZM76.3708 49.7435V47.7435H74.4941L74.3748 49.6164L76.3708 49.7435ZM76.3754 49.7435V51.7435H78.252L78.3713 49.8707L76.3754 49.7435ZM77.0669 38.8904L79.0628 39.0176L79.1984 36.8904H77.0669V38.8904ZM34.5883 38.8904L32.5932 39.0298L32.7231 40.8904H34.5883V38.8904ZM33.8301 28.0374V26.0374H31.6855L31.8349 28.1768L33.8301 28.0374ZM77.758 28.0374V30.0374H79.6334L79.7539 28.1659L77.758 28.0374ZM92 -2H8V2H92V-2ZM88.315 91.5685L93.9962 0.124015L90.0038 -0.124015L84.3227 91.3205L88.315 91.5685ZM50.4586 101.947L86.7774 93.3912L85.8603 89.4978L49.5414 98.0533L50.4586 101.947ZM13.2226 93.3912L49.5414 101.947L50.4586 98.0533L14.1397 89.4978L13.2226 93.3912ZM6.00385 0.124015L11.685 91.5685L15.6773 91.3205L9.99615 -0.124015L6.00385 0.124015ZM33.0719 19.1843H78.4568V15.1843H33.0719V19.1843ZM21.4842 19.1843H33.0719V15.1843H21.4842V19.1843ZM24.9956 38.7511L23.4794 17.045L19.4891 17.3237L21.0054 39.0298L24.9956 38.7511ZM25.1573 41.063L24.9956 38.7509L21.0054 39.0299L21.167 41.342L25.1573 41.063ZM25.754 49.6041L25.1573 41.0631L21.167 41.3419L21.7637 49.8829L25.754 49.6041ZM23.7594 47.7435H23.7589V51.7435H23.7594V47.7435ZM35.3465 47.7435H23.7594V51.7435H35.3465V47.7435ZM64.7831 47.7435H35.3465V51.7435H64.7831V47.7435ZM65.5476 69.2082L66.7791 49.8706L62.7872 49.6164L61.5557 68.954L65.5476 69.2082ZM50.5141 74.1226L63.9986 71.0305L63.1046 67.1317L49.6201 70.2237L50.5141 74.1226ZM36.1044 71.0303L49.621 74.1228L50.5131 70.2235L36.9965 67.1311L36.1044 71.0303ZM33.7288 55.6534L34.5542 69.2023L38.5468 68.9591L37.7214 55.4102L33.7288 55.6534ZM24.1285 57.5318H35.7251V53.5318H24.1285V57.5318ZM26.7882 66.2685L26.1248 55.4098L22.1323 55.6538L22.7957 66.5124L26.7882 66.2685ZM24.321 68.3344L24.3456 68.34L25.2383 64.4409L25.2137 64.4353L24.321 68.3344ZM27.3997 76.2767L26.7633 66.2581L22.7714 66.5116L23.4077 76.5303L27.3997 76.2767ZM27.4524 77.1399L27.4 76.2815L23.4074 76.5254L23.4599 77.3838L27.4524 77.1399ZM25.4607 75.2618H25.4562V79.2618H25.4607V75.2618ZM50.525 81.1027L25.9186 75.3149L25.0028 79.2087L49.6091 84.9964L50.525 81.1027ZM74.1604 75.3146L49.6081 81.1029L50.526 84.9962L75.0783 79.2079L74.1604 75.3146ZM72.9924 71.3229L72.6234 77.1345L76.6153 77.388L76.9844 71.5764L72.9924 71.3229ZM73.0127 71.0052L72.9924 71.3225L76.9844 71.5768L77.0046 71.2595L73.0127 71.0052ZM74.3748 49.6164L73.0127 71.0052L77.0046 71.2595L78.3667 49.8706L74.3748 49.6164ZM76.3754 47.7435H76.3708V51.7435H76.3754V47.7435ZM75.0709 38.7633L74.3794 49.6163L78.3713 49.8707L79.0628 39.0176L75.0709 38.7633ZM77.062 40.8904H77.0669V36.8904H77.062V40.8904ZM65.4743 40.8904H77.062V36.8904H65.4743V40.8904ZM34.5883 40.8904H65.4743V36.8904H34.5883V40.8904ZM31.8349 28.1768L32.5932 39.0298L36.5834 38.7511L35.8252 27.898L31.8349 28.1768ZM77.758 26.0374H33.8301V30.0374H77.758V26.0374ZM76.4609 17.0558L75.7622 27.9089L79.7539 28.1659L80.4526 17.3128L76.4609 17.0558Z" fill="#42CEB5" mask="url(#path-1-inside-1_62_40)"/>
</svg>
