<svg width="100" height="100" viewBox="0 0 100 100" fill="none" xmlns="http://www.w3.org/2000/svg">
<path d="M50.0005 1C52.2052 1.00016 54.4229 2.17889 56.5571 4.56738C58.6909 6.9553 60.658 10.4673 62.3306 14.8926C65.673 23.7362 67.7612 36.021 67.7612 49.6396C67.7612 63.2585 65.673 75.544 62.3306 84.3877C60.658 88.813 58.6909 92.325 56.5571 94.7129C54.4229 97.1014 52.2052 98.2801 50.0005 98.2803C47.7957 98.2803 45.5773 97.1015 43.4429 94.7129C41.3091 92.325 39.342 88.8129 37.6694 84.3877C34.327 75.544 32.2388 63.2585 32.2388 49.6396C32.2388 36.021 34.327 23.7362 37.6694 14.8926C39.342 10.4673 41.3092 6.9553 43.4429 4.56738C45.5773 2.17873 47.7957 1 50.0005 1Z" stroke="#42CEB5" stroke-width="2"/>
<path d="M10.2338 25.3417C11.36 23.2773 13.4629 21.8299 16.4762 21.07C19.4936 20.3092 23.3445 20.2621 27.7932 20.9404C36.6861 22.2966 47.7687 26.5199 58.9018 33.3227C70.0351 40.1256 79.0322 48.1716 84.5883 55.6445C87.3678 59.383 89.2547 62.9359 90.1408 66.082C91.0256 69.2237 90.8919 71.8745 89.7657 73.9389C88.6396 76.003 86.5376 77.4503 83.5246 78.2102C80.5073 78.9711 76.6564 79.0181 72.2076 78.3397C63.3147 76.9837 52.2318 72.7611 41.0986 65.9583C29.9653 59.1554 20.9687 51.1085 15.4126 43.6357C12.633 39.8971 10.7462 36.3443 9.8601 33.1982C8.97524 30.0565 9.10777 27.406 10.2338 25.3417Z" stroke="#42CEB5" stroke-width="2"/>
<path d="M10.234 73.9389C9.10783 71.8745 8.97489 69.2234 9.85978 66.0816C10.7459 62.9355 12.6328 59.3825 15.4123 55.6441C20.9684 48.1713 29.9655 40.1251 41.0987 33.3223C52.232 26.5195 63.3144 22.296 72.2073 20.94C76.6562 20.2616 80.5069 20.3087 83.5243 21.0696C86.5376 21.8294 88.6397 23.2774 89.7659 25.3417C90.8919 27.406 91.0251 30.0563 90.1405 33.1977C89.2544 36.3438 87.3674 39.8968 84.588 43.6352C79.0319 51.1081 70.0352 59.155 58.902 65.9579C47.7687 72.7608 36.6859 76.9832 27.7929 78.3393C23.344 79.0177 19.4934 78.9707 16.4759 78.2098C13.4627 77.4499 11.3602 76.0032 10.234 73.9389Z" stroke="#42CEB5" stroke-width="2"/>
<ellipse cx="49.9999" cy="49.6401" rx="4.69032" ry="4.96401" fill="#42CEB5"/>
</svg>
