<svg width="100" height="24" viewBox="0 0 100 24" fill="none" xmlns="http://www.w3.org/2000/svg">
<path d="M50.5635 17.1349L46.2617 23.5002H42.9355L48.9023 14.6769L50.5635 17.1349ZM46.2617 0.519714L51.959 8.94257L52.374 9.55487L52.7881 8.94257L58.4668 0.545105L61.7803 0.539246L54.2227 11.7287L54.0342 12.009L54.2227 12.2892L61.7939 23.4816H58.4668L42.9473 0.519714H46.2617ZM83.3955 0.509949V3.3371H76.4854V23.4719H74.0303V3.3371H66.9766V0.509949H83.3955ZM37.3301 0.509949V3.3371H23.3682V10.4943H34.5967V13.3215H23.3682V20.6447H37.3301V23.4719H20.9141V3.3371H20.9121V0.509949H37.3301Z" stroke="#42CEB5"/>
<path d="M4.05273 0.5L19.5928 23.4717H16.4609L3.86914 4.8418L2.95508 3.48926V23.4619H0.5V0.5H4.05273Z" stroke="#42CEB5"/>
<path d="M96.8159 14.0964C97.3519 14.0964 97.7964 14.2032 98.1675 14.404L98.1694 14.405C98.5005 14.5823 98.7651 14.8173 98.9683 15.111L99.0513 15.2399C99.1839 15.4613 99.278 15.7059 99.3315 15.9772H98.8081C98.7035 15.6326 98.5142 15.3323 98.23 15.0974C97.8334 14.7691 97.3406 14.6257 96.7954 14.6257C96.4159 14.6257 96.0607 14.694 95.7485 14.8474L95.7446 14.8493C95.4471 14.999 95.1941 15.2107 95.0161 15.4958C94.8409 15.7766 94.7588 16.0892 94.7524 16.4177V16.4274C94.7524 16.7017 94.8082 16.9659 94.9351 17.2018V17.2028C95.0513 17.4212 95.2106 17.6092 95.4165 17.7595V17.7585C95.595 17.8918 95.7874 18.0018 95.9907 18.0847C96.0852 18.1236 96.1799 18.1599 96.2749 18.1931L96.562 18.2839L97.3569 18.5163L97.3667 18.5192C97.6514 18.5963 97.9309 18.7039 98.2017 18.8405L98.2065 18.8425C98.4473 18.9611 98.6758 19.1217 98.8843 19.321V19.32C99.0664 19.4945 99.2198 19.719 99.3315 19.9802H99.3325C99.4387 20.2274 99.5005 20.5344 99.5005 20.9147C99.5005 21.4247 99.3904 21.8492 99.1851 22.2077C99.0061 22.5178 98.7583 22.772 98.4292 22.9704L98.2837 23.0515C97.8898 23.2541 97.392 23.3688 96.77 23.3688C96.1701 23.3688 95.6733 23.2595 95.272 23.0593L95.269 23.0573C94.8698 22.8615 94.5627 22.5775 94.3384 22.1999H94.3394C94.1857 21.941 94.0758 21.6328 94.0161 21.2692H94.5562C94.6159 21.505 94.7108 21.723 94.8442 21.9186L94.8481 21.9235C95.0635 22.231 95.3466 22.4583 95.6831 22.6091L95.689 22.612C96.0177 22.7541 96.3765 22.8229 96.7583 22.8229C97.1534 22.8229 97.5214 22.7511 97.8521 22.5983L97.854 22.5974C98.1785 22.4457 98.4502 22.2252 98.6489 21.9294L98.6499 21.9304C98.8586 21.6262 98.9545 21.2765 98.9575 20.905V20.8962C98.9545 20.5527 98.8664 20.2269 98.6646 19.9548L98.6616 19.9509C98.4793 19.7099 98.2377 19.5216 97.9556 19.3786L97.9497 19.3757C97.6655 19.236 97.372 19.1218 97.0718 19.0349H97.0728L96.104 18.7438C95.4679 18.5516 94.9964 18.2699 94.6646 17.9167L94.6636 17.9157L94.5562 17.7907C94.3215 17.4844 94.1909 17.0807 94.1909 16.5397C94.1909 16.032 94.3075 15.6096 94.5259 15.2575L94.5269 15.2556C94.7493 14.8931 95.0536 14.6114 95.4458 14.4079H95.4468C95.8388 14.203 96.2912 14.0964 96.8159 14.0964ZM91.5991 14.2311V20.7526C91.5968 21.3366 91.491 21.8088 91.3032 22.1901C91.1109 22.5754 90.8531 22.8559 90.5278 23.0534C90.2053 23.248 89.8168 23.3552 89.3511 23.3552C88.9268 23.3551 88.5604 23.2646 88.2397 23.0964L88.1274 23.0329C87.8718 22.8743 87.6616 22.6527 87.4976 22.361L87.4966 22.3591L87.4331 22.235C87.345 22.0466 87.2821 21.8251 87.2466 21.5661H87.8032C87.8368 21.7135 87.8847 21.8551 87.9517 21.988V21.987C88.0867 22.2561 88.291 22.4864 88.5503 22.6393V22.6403C88.8115 22.7959 89.1033 22.8669 89.4097 22.8669C89.7372 22.8669 90.0537 22.7852 90.3247 22.5905L90.3257 22.5915C90.595 22.4009 90.7796 22.1288 90.8979 21.8161L90.8989 21.8141C91.0139 21.5052 91.0663 21.1463 91.0688 20.7556V14.2311H91.5991ZM84.6626 22.1891H84.6714C84.7501 22.1891 84.8315 22.2145 84.9302 22.3288L84.9321 22.3317C85.0303 22.4438 85.0828 22.5759 85.0845 22.7556C85.0834 22.8688 85.0565 22.9753 85.0112 23.0632L85.0103 23.0651C84.9629 23.1576 84.902 23.2244 84.8403 23.2663L84.8315 23.2722C84.7768 23.3111 84.7232 23.3262 84.6763 23.3259V23.3249L84.6626 23.3259C84.6234 23.3266 84.5812 23.3181 84.5386 23.2975C84.4953 23.2767 84.4493 23.2419 84.4067 23.1911L84.4019 23.1852C84.3076 23.0759 84.2549 22.9439 84.2563 22.7556V22.7477C84.255 22.571 84.3055 22.4405 84.4019 22.3288L84.4067 22.3229C84.4493 22.2722 84.4953 22.2383 84.5386 22.2175C84.5813 22.1969 84.6233 22.1884 84.6626 22.1891Z" stroke="#42CEB5"/>
</svg>
