<svg width="100" height="88" viewBox="0 0 100 88" fill="none" xmlns="http://www.w3.org/2000/svg">
<path d="M50 1C51.1236 1 52.2301 1.17628 53.3848 1.52148C53.2938 1.54106 53.2037 1.56961 53.1162 1.60742C52.7634 1.75996 52.5152 2.03253 52.3721 2.32129C52.1614 2.74634 52.1358 3.32104 52.4219 3.79883V3.95898C51.982 3.40368 51.5033 2.8458 50.9824 2.28711L50.9551 2.25879L50.9258 2.23145C50.2328 1.597 49.3725 1.84725 48.9268 2.25586C48.5412 2.60952 48.27 3.23505 48.4775 3.88086V4.02441L48.6201 4.26172C50.3003 7.06754 51.3652 10.1962 51.7441 13.4414C52.1243 16.6956 51.8111 19.9934 50.8262 23.1191C50.5951 23.8345 50.9133 24.5133 51.4141 24.8574C51.6695 25.0329 52.0066 25.1471 52.3779 25.1084C52.766 25.0679 53.1042 24.8692 53.3438 24.5723L53.3594 24.5527C55.0239 22.3778 56.5911 19.1222 56.6465 15.2246C56.6949 11.8143 55.5839 7.99745 52.5098 4.07129L52.835 4.30762C55.3041 6.09889 57.3864 8.36362 58.96 10.9668L59.2676 11.4922C60.8789 14.3252 61.8788 17.4618 62.2051 20.7012C62.1985 21.0275 62.2997 21.3484 62.4941 21.6133V21.6123C62.7187 21.921 63.055 22.1297 63.4307 22.1934C63.8044 22.2566 64.1874 22.1705 64.5 21.9561L64.501 21.957C64.5042 21.9549 64.5066 21.9514 64.5098 21.9492C64.5112 21.9482 64.5133 21.9482 64.5146 21.9473L64.5137 21.9463C64.8103 21.7401 65.0205 21.4334 65.1064 21.082L65.1084 21.083C65.8056 18.3745 65.9617 14.7012 64.4902 11.0869C63.3925 8.39078 61.4099 5.78278 58.1729 3.65625C60.0548 4.70028 62.1507 6.02607 64.6416 7.60352L64.6426 7.60449C68.1487 9.82011 72.382 12.499 77.7705 15.4834L77.7744 15.4854C90.7065 22.5691 98.9999 34.4391 99 47.7686C99 69.2409 77.2773 87 50 87C22.7227 87 1 69.2409 1 47.7686C1.00005 34.6473 9.03657 22.9408 21.6191 15.8213L22.2217 15.4854L22.2275 15.4824C26.2342 13.2522 30.1659 10.8906 34.0166 8.40234L34.0156 8.40137C37.4271 6.24409 40.3675 4.38705 43.0205 3.0625C45.678 1.73575 47.9435 1 50 1ZM58.4912 57.8789H41.9688C41.782 57.8684 41.5949 57.8814 41.4131 57.9238L41.1973 57.9873C40.9846 58.0635 40.7871 58.1765 40.6133 58.3193L40.4473 58.4717L40.4395 58.4805C40.236 58.6962 40.0823 58.9542 39.9902 59.2363C39.8982 59.5187 39.8697 59.8187 39.9072 60.1133L39.9141 60.1631L39.9248 60.2119C40.5115 62.7458 41.8302 65.0487 43.7119 66.8379L44.0957 67.1885C45.7436 68.7966 47.8952 69.7926 50.1914 70.0068L50.2939 70.0156L50.3975 70.0049C52.6371 69.7504 54.7243 68.7494 56.3242 67.166C58.4152 65.3425 59.8842 62.9139 60.5215 60.2168L60.5322 60.1689L60.5391 60.1211C60.5691 59.8996 60.5618 59.675 60.5176 59.457L60.4609 59.2422L60.3809 59.0342C60.3199 58.8991 60.2435 58.7716 60.1543 58.6533L60.0107 58.4834C59.804 58.2643 59.5491 58.0959 59.2666 57.9922C59.0183 57.9011 58.7545 57.8647 58.4912 57.8789ZM69.627 35.3789C68.0079 35.0461 66.3294 35.1811 64.7881 35.7646L64.4824 35.8867C62.956 36.5266 61.641 37.5905 60.6816 38.9473L60.4971 39.2188C59.5143 40.7092 58.9996 42.4618 58.999 44.2471C58.9914 46.6213 59.9105 48.9046 61.5605 50.6152C62.9864 52.1 64.893 53.0331 66.9424 53.25C68.9924 53.4669 71.054 52.9536 72.7607 51.7998V51.7988C74.2335 50.8016 75.3777 49.3924 76.0498 47.748L76.0508 47.749C76.7296 46.096 76.9133 44.2816 76.5801 42.5264L76.5791 42.5244C76.2423 40.7717 75.4134 39.1574 74.1758 37.8818C72.938 36.606 71.355 35.7362 69.6289 35.3789H69.627ZM33.8584 35.3145C32.3415 35.0653 30.7851 35.2221 29.3486 35.7686L29.043 35.8916C27.4221 36.5774 26.0346 37.7368 25.0615 39.2266H25.0605C23.9228 40.9701 23.411 43.0471 23.6094 45.1182C23.8078 47.1891 24.7046 49.1318 26.1523 50.6289C27.5844 52.1113 29.4971 53.039 31.5498 53.249C33.6024 53.459 35.6633 52.9375 37.3672 51.7764H37.3682C38.8357 50.7742 39.9737 49.3586 40.6396 47.7158C41.2687 46.1638 41.4621 44.4721 41.2031 42.8223L41.1455 42.4932C40.8291 40.8563 40.0719 39.3309 38.9541 38.1025L38.7256 37.8613C37.4892 36.5969 35.9075 35.7279 34.1846 35.375L34.1836 35.374L33.8584 35.3145ZM47.5713 2.46484C47.2376 2.23089 46.8515 2.17176 46.5137 2.22656C45.8448 2.33512 45.2393 2.91462 45.2393 3.74414V3.75C45.2594 7.05267 44.5811 10.3227 43.248 13.3467L43.2471 13.3477C41.9265 16.3456 39.9768 19.0269 37.5293 21.2119L37.5215 21.2197C36.9616 21.7312 36.9025 22.4846 37.1631 23.0332C37.2959 23.3127 37.5302 23.5829 37.873 23.7373C38.232 23.8989 38.628 23.8961 38.9863 23.7578L38.9961 23.7539C41.5594 22.733 44.5797 20.6969 46.5986 17.3584C48.5691 14.0999 49.5325 9.68677 48.2959 3.95508L48.1689 3.39648C48.092 3.03324 47.898 2.69399 47.5713 2.46484ZM43.9756 5.46094L43.9629 5.38086C43.9087 5.05021 43.7779 4.67368 43.4668 4.3916C43.1295 4.08585 42.733 4.0273 42.4385 4.05469C42.1688 4.07983 41.9529 4.17578 41.834 4.2373C41.768 4.27143 41.7138 4.30506 41.6738 4.33105C41.6535 4.34423 41.6361 4.35633 41.6221 4.36621C41.6152 4.37102 41.6089 4.37501 41.6035 4.37891L41.5918 4.3877L41.5908 4.38867H41.5898C41.5895 4.38895 41.5894 4.38948 42.1904 5.18848L41.5889 4.38965L41.4189 4.51758L41.3154 4.7041C40.0437 7.00215 38.8014 8.85021 37.0127 10.582C35.2187 12.3189 32.8338 13.9789 29.2373 15.8398L28.8994 16.0146L28.7627 16.3701C28.5565 16.908 28.643 17.4996 29.0361 17.9336C29.3929 18.3273 29.8958 18.4775 30.3447 18.4775H30.4941L30.6367 18.4336C33.8825 17.4412 36.8492 16.5009 39.6035 14.0771C41.039 12.8158 42.1199 11.0461 42.8369 9.47266C43.199 8.67816 43.4781 7.91113 43.6689 7.25C43.8531 6.61199 43.9755 6.00116 43.9756 5.54297V5.46094Z" stroke="#42CEB5" stroke-width="2"/>
</svg>
