<svg width="100" height="100" viewBox="0 0 100 100" fill="none" xmlns="http://www.w3.org/2000/svg">
<path d="M44.5254 15.2158L44.2324 14.9229C41.0479 11.7383 41.0474 6.57412 44.2324 3.38867C47.4174 0.203284 52.582 0.203264 55.7676 3.38867C58.9525 6.57364 58.9523 11.7378 55.7676 14.9229L55.4746 15.2158V36.7842L70.7256 21.5332V21.1191C70.7257 16.6149 74.3764 12.9631 78.8809 12.9629C83.385 12.9629 87.037 16.6147 87.0371 21.1191C87.0371 25.6236 83.3851 29.2754 78.8809 29.2754H78.4668L64.9238 42.8184L63.2158 44.5254H84.7842L85.0771 44.2324C88.2622 41.0482 93.4264 41.0479 96.6113 44.2324C99.7966 47.4174 99.7964 52.5815 96.6113 55.7666L96.6104 55.7676C93.4258 58.9525 88.2625 58.952 85.0771 55.7666L84.7842 55.4746H63.2158L78.1738 70.4326L78.4668 70.7246H78.8809C83.3852 70.7246 87.037 74.3762 87.0371 78.8809C87.0371 83.3851 83.3857 87.0361 78.8809 87.0361C74.3765 87.0361 70.7256 83.3852 70.7256 78.8809V78.4668L55.4746 63.2158V84.7832L55.7676 85.0762C58.9523 88.2617 58.9523 93.4258 55.7676 96.6113C52.5821 99.7962 47.4179 99.7964 44.2324 96.6113C41.0475 93.4262 41.0474 88.2612 44.2324 85.0762L44.5254 84.7842V63.2158L42.8184 64.9229L29.5684 78.1738L29.2754 78.4668V78.8809C29.2754 83.3851 25.6239 87.037 21.1191 87.0371C16.6154 87.0371 12.964 83.3856 12.9639 78.8809C12.9639 74.3766 16.6149 70.7248 21.1191 70.7246H21.5332L21.8262 70.4326L35.0762 57.1816L36.7832 55.4746H15.2168L14.9238 55.7676C11.7383 58.9523 6.57419 58.9523 3.38867 55.7676C0.204178 52.5821 0.203268 47.4179 3.3877 44.2324L3.38867 44.2334C6.57422 41.0486 11.7384 41.0474 14.9238 44.2324L15.2168 44.5254H36.7842L35.0771 42.8184L21.8262 29.5684L21.5332 29.2754H21.1191C16.6154 29.2754 12.964 25.6239 12.9639 21.1191C12.9639 16.6153 16.6149 12.963 21.1191 12.9629C25.6235 12.9629 29.2754 16.6152 29.2754 21.1191V21.5332L29.5684 21.8262L42.8184 35.0771L44.5254 36.7842V15.2158Z" stroke="#42CEB5" stroke-width="2"/>
</svg>
