<svg width="100" height="100" viewBox="0 0 100 100" fill="none" xmlns="http://www.w3.org/2000/svg">
<mask id="path-1-inside-1_62_25" fill="white">
<path d="M86.0848 56.0427C82.5884 56.0624 79.5608 56.9022 77.0215 58.1525C76.0839 56.2968 75.1463 54.6754 74.9903 53.4645C74.8145 52.0582 74.5996 51.1985 74.8145 49.5189C75.0291 47.8389 76.0058 45.4558 76.0058 45.2605C75.9861 45.0847 75.7907 44.2253 73.779 44.2057C71.7673 44.1862 70.0287 44.5964 69.8334 45.1238C69.638 45.6512 69.2474 46.8622 68.9935 48.1123C68.6419 49.9484 64.9697 56.4529 62.8796 59.8712C62.196 58.5429 61.61 57.3709 61.4926 56.4332C61.317 55.027 61.1019 54.1673 61.317 52.4877C61.5319 50.8077 62.5085 48.4249 62.5085 48.2295C62.489 48.0537 62.2937 47.1943 60.282 47.1747C58.2699 47.1552 56.5316 47.5654 56.3363 48.0928C56.141 48.6202 55.9261 49.8703 55.4964 51.0813C55.086 52.2924 50.2028 63.1527 48.9331 65.985C48.2885 67.4304 47.7223 68.5829 47.3119 69.3642C46.9017 70.1455 47.2923 69.4228 47.2533 69.5009C46.9017 70.165 46.7064 70.5362 46.7064 70.5362V70.5559C46.4329 71.0442 46.1399 71.5128 46.003 71.5128C45.9053 71.5128 45.71 70.2041 46.042 68.4073C46.7648 64.6372 48.5227 58.758 48.5034 58.5431C48.5034 58.4454 48.8353 57.41 47.3703 56.8828C45.9444 56.3554 45.4367 57.2344 45.3193 57.2344C45.2021 57.2344 45.1045 57.5469 45.1045 57.5469C45.1045 57.5469 46.6866 50.9255 42.0769 50.9255C39.186 50.9255 35.2012 54.0703 33.2284 56.9416C31.9783 57.6253 29.3218 59.0705 26.5091 60.6138C25.4348 61.1998 24.3214 61.8248 23.2666 62.3913L23.0519 62.1565C17.4655 56.199 7.13259 51.9798 7.56231 43.9713C7.71858 41.0609 8.73429 33.3845 27.408 24.0868C42.7023 16.4689 54.9495 18.559 57.0784 23.2078C60.106 29.849 50.5348 42.1938 34.6352 43.9713C28.58 44.655 25.3959 42.311 24.5952 41.4321C23.7553 40.514 23.6381 40.4749 23.3256 40.6507C22.8177 40.9242 23.1303 41.7446 23.3256 42.2329C23.7944 43.4635 25.7477 45.6512 29.0683 46.745C31.9785 47.7021 39.0887 48.2295 47.6832 44.9089C57.313 41.1781 64.8331 30.8257 62.6259 22.1726C60.3796 13.3632 45.769 10.4723 31.9592 15.3751C23.7356 18.305 14.8286 22.8757 8.42176 28.8724C0.803911 35.9824 -0.407132 42.1938 0.100725 44.7722C1.87842 53.9722 14.5551 59.9688 19.6337 64.4028C19.3798 64.5393 19.1454 64.6761 18.9305 64.7935C16.3912 66.0434 6.7224 71.1026 4.30031 76.4544C1.5657 82.5097 4.73004 86.8657 6.83959 87.4517C13.3636 89.2683 20.0439 86.0063 23.6575 80.6347C27.2513 75.2631 26.8218 68.2899 25.1615 65.106L25.1027 64.9888L27.0951 63.8168C28.3844 63.055 29.6541 62.3518 30.7673 61.7461C30.1424 63.4455 29.693 65.4574 29.4588 68.3873C29.1853 71.8253 30.5917 76.2787 32.4473 78.0366C33.2677 78.7982 34.2443 78.8179 34.8499 78.8179C36.9985 78.8179 37.9751 77.0402 39.0494 74.9113C40.3777 72.3135 41.5497 69.3054 41.5497 69.3054C41.5497 69.3054 40.0847 77.4506 44.0889 77.4506C45.5539 77.4506 47.0189 75.5559 47.683 74.5793V74.5988C47.683 74.5988 47.7221 74.5402 47.8002 74.4035C47.8822 74.2823 47.9603 74.1586 48.0346 74.0326V73.9935C48.6206 72.9778 49.9293 70.6534 51.8826 66.8054C54.4021 61.844 56.8244 55.6325 56.8244 55.6325C56.8244 55.6325 57.0588 57.1561 57.7815 59.6563C58.2111 61.141 59.1487 62.762 59.8714 64.3442C59.2854 65.1646 58.9338 65.6336 58.9338 65.6336L58.9533 65.6531C58.4847 66.2782 57.9571 66.9425 57.4104 67.6064C55.4181 69.9894 53.035 72.7047 52.7225 73.486C52.3514 74.4039 52.4295 75.0875 53.1522 75.6347C53.6796 76.0253 54.6172 76.1032 55.6134 76.0253C57.4104 75.9079 58.6605 75.4589 59.2856 75.1852C60.2622 74.8336 61.3756 74.3062 62.4499 73.5249C64.4032 72.0797 65.5947 70.0287 65.4775 67.2941C65.4189 65.79 64.9306 64.3055 64.3251 62.8992C64.5009 62.6452 64.6769 62.3911 64.8525 62.1178C67.9387 57.6055 70.3217 52.6444 70.3217 52.6444C70.3217 52.6444 70.5561 54.1679 71.2788 56.6681C71.6497 57.9378 72.3922 59.3248 73.0563 60.6921C70.1654 63.0556 68.3489 65.7902 67.7238 67.5873C66.5714 70.9079 67.4699 72.4119 69.1693 72.7635C69.9308 72.9198 71.0249 72.5682 71.8451 72.2166C72.8608 71.8845 74.0914 71.3179 75.2245 70.4781C77.1778 69.0327 79.0529 67.0208 78.9553 64.3057C78.8967 63.0556 78.5646 61.825 78.1153 60.6531C80.5765 59.6374 83.7602 59.0514 87.8037 59.5397C96.4959 60.5554 98.2148 65.9856 97.8829 68.2514C97.5508 70.5174 95.7343 71.7673 95.1286 72.158C94.523 72.5291 94.3277 72.666 94.3863 72.9393C94.4644 73.3497 94.7379 73.33 95.2653 73.252C95.988 73.1346 99.836 71.3964 99.9923 67.2165C100.227 61.8442 95.1286 55.9843 86.0848 56.0427ZM19.0477 78.6423C16.1763 81.7871 12.133 82.9786 10.4141 81.9629C8.55849 80.8886 9.28102 76.2593 12.8167 72.9192C14.9653 70.8878 17.7585 69.0126 19.5946 67.8601C20.0048 67.6062 20.6299 67.2353 21.3721 66.7858C21.4893 66.7079 21.5674 66.6686 21.5674 66.6686C21.7042 66.5905 21.8604 66.4928 22.0167 66.3952C23.3254 71.1612 22.0753 75.3413 19.0477 78.6423ZM40.0456 64.3637C39.0494 66.8054 36.9399 73.0754 35.6702 72.7239C34.5762 72.4309 33.9123 67.6843 35.4552 62.9964C36.2365 60.6328 37.8968 57.8202 38.8734 56.7262C40.4558 54.9682 42.1745 54.3822 42.6044 55.1049C43.1123 56.0427 40.6707 62.8402 40.0456 64.3637ZM57.3714 72.6457C56.9416 72.8608 56.551 73.0168 56.3752 72.8998C56.2384 72.8217 56.5508 72.5287 56.5508 72.5287C56.5508 72.5287 58.7189 70.2043 59.5784 69.13C60.0667 68.5051 60.6527 67.7824 61.2777 66.9618V67.1962C61.2779 70.0088 58.5824 71.8839 57.3714 72.6457ZM70.7317 69.5986C70.4192 69.3642 70.4584 68.6415 71.513 66.3756C71.9234 65.4771 72.8608 63.9731 74.482 62.5472C74.6774 63.1332 74.7947 63.6994 74.775 64.227C74.7557 67.7429 72.2555 69.0517 70.7317 69.5986Z"/>
</mask>
<path d="M86.0848 56.0427C82.5884 56.0624 79.5608 56.9022 77.0215 58.1525C76.0839 56.2968 75.1463 54.6754 74.9903 53.4645C74.8145 52.0582 74.5996 51.1985 74.8145 49.5189C75.0291 47.8389 76.0058 45.4558 76.0058 45.2605C75.9861 45.0847 75.7907 44.2253 73.779 44.2057C71.7673 44.1862 70.0287 44.5964 69.8334 45.1238C69.638 45.6512 69.2474 46.8622 68.9935 48.1123C68.6419 49.9484 64.9697 56.4529 62.8796 59.8712C62.196 58.5429 61.61 57.3709 61.4926 56.4332C61.317 55.027 61.1019 54.1673 61.317 52.4877C61.5319 50.8077 62.5085 48.4249 62.5085 48.2295C62.489 48.0537 62.2937 47.1943 60.282 47.1747C58.2699 47.1552 56.5316 47.5654 56.3363 48.0928C56.141 48.6202 55.9261 49.8703 55.4964 51.0813C55.086 52.2924 50.2028 63.1527 48.9331 65.985C48.2885 67.4304 47.7223 68.5829 47.3119 69.3642C46.9017 70.1455 47.2923 69.4228 47.2533 69.5009C46.9017 70.165 46.7064 70.5362 46.7064 70.5362V70.5559C46.4329 71.0442 46.1399 71.5128 46.003 71.5128C45.9053 71.5128 45.71 70.2041 46.042 68.4073C46.7648 64.6372 48.5227 58.758 48.5034 58.5431C48.5034 58.4454 48.8353 57.41 47.3703 56.8828C45.9444 56.3554 45.4367 57.2344 45.3193 57.2344C45.2021 57.2344 45.1045 57.5469 45.1045 57.5469C45.1045 57.5469 46.6866 50.9255 42.0769 50.9255C39.186 50.9255 35.2012 54.0703 33.2284 56.9416C31.9783 57.6253 29.3218 59.0705 26.5091 60.6138C25.4348 61.1998 24.3214 61.8248 23.2666 62.3913L23.0519 62.1565C17.4655 56.199 7.13259 51.9798 7.56231 43.9713C7.71858 41.0609 8.73429 33.3845 27.408 24.0868C42.7023 16.4689 54.9495 18.559 57.0784 23.2078C60.106 29.849 50.5348 42.1938 34.6352 43.9713C28.58 44.655 25.3959 42.311 24.5952 41.4321C23.7553 40.514 23.6381 40.4749 23.3256 40.6507C22.8177 40.9242 23.1303 41.7446 23.3256 42.2329C23.7944 43.4635 25.7477 45.6512 29.0683 46.745C31.9785 47.7021 39.0887 48.2295 47.6832 44.9089C57.313 41.1781 64.8331 30.8257 62.6259 22.1726C60.3796 13.3632 45.769 10.4723 31.9592 15.3751C23.7356 18.305 14.8286 22.8757 8.42176 28.8724C0.803911 35.9824 -0.407132 42.1938 0.100725 44.7722C1.87842 53.9722 14.5551 59.9688 19.6337 64.4028C19.3798 64.5393 19.1454 64.6761 18.9305 64.7935C16.3912 66.0434 6.7224 71.1026 4.30031 76.4544C1.5657 82.5097 4.73004 86.8657 6.83959 87.4517C13.3636 89.2683 20.0439 86.0063 23.6575 80.6347C27.2513 75.2631 26.8218 68.2899 25.1615 65.106L25.1027 64.9888L27.0951 63.8168C28.3844 63.055 29.6541 62.3518 30.7673 61.7461C30.1424 63.4455 29.693 65.4574 29.4588 68.3873C29.1853 71.8253 30.5917 76.2787 32.4473 78.0366C33.2677 78.7982 34.2443 78.8179 34.8499 78.8179C36.9985 78.8179 37.9751 77.0402 39.0494 74.9113C40.3777 72.3135 41.5497 69.3054 41.5497 69.3054C41.5497 69.3054 40.0847 77.4506 44.0889 77.4506C45.5539 77.4506 47.0189 75.5559 47.683 74.5793V74.5988C47.683 74.5988 47.7221 74.5402 47.8002 74.4035C47.8822 74.2823 47.9603 74.1586 48.0346 74.0326V73.9935C48.6206 72.9778 49.9293 70.6534 51.8826 66.8054C54.4021 61.844 56.8244 55.6325 56.8244 55.6325C56.8244 55.6325 57.0588 57.1561 57.7815 59.6563C58.2111 61.141 59.1487 62.762 59.8714 64.3442C59.2854 65.1646 58.9338 65.6336 58.9338 65.6336L58.9533 65.6531C58.4847 66.2782 57.9571 66.9425 57.4104 67.6064C55.4181 69.9894 53.035 72.7047 52.7225 73.486C52.3514 74.4039 52.4295 75.0875 53.1522 75.6347C53.6796 76.0253 54.6172 76.1032 55.6134 76.0253C57.4104 75.9079 58.6605 75.4589 59.2856 75.1852C60.2622 74.8336 61.3756 74.3062 62.4499 73.5249C64.4032 72.0797 65.5947 70.0287 65.4775 67.2941C65.4189 65.79 64.9306 64.3055 64.3251 62.8992C64.5009 62.6452 64.6769 62.3911 64.8525 62.1178C67.9387 57.6055 70.3217 52.6444 70.3217 52.6444C70.3217 52.6444 70.5561 54.1679 71.2788 56.6681C71.6497 57.9378 72.3922 59.3248 73.0563 60.6921C70.1654 63.0556 68.3489 65.7902 67.7238 67.5873C66.5714 70.9079 67.4699 72.4119 69.1693 72.7635C69.9308 72.9198 71.0249 72.5682 71.8451 72.2166C72.8608 71.8845 74.0914 71.3179 75.2245 70.4781C77.1778 69.0327 79.0529 67.0208 78.9553 64.3057C78.8967 63.0556 78.5646 61.825 78.1153 60.6531C80.5765 59.6374 83.7602 59.0514 87.8037 59.5397C96.4959 60.5554 98.2148 65.9856 97.8829 68.2514C97.5508 70.5174 95.7343 71.7673 95.1286 72.158C94.523 72.5291 94.3277 72.666 94.3863 72.9393C94.4644 73.3497 94.7379 73.33 95.2653 73.252C95.988 73.1346 99.836 71.3964 99.9923 67.2165C100.227 61.8442 95.1286 55.9843 86.0848 56.0427ZM19.0477 78.6423C16.1763 81.7871 12.133 82.9786 10.4141 81.9629C8.55849 80.8886 9.28102 76.2593 12.8167 72.9192C14.9653 70.8878 17.7585 69.0126 19.5946 67.8601C20.0048 67.6062 20.6299 67.2353 21.3721 66.7858C21.4893 66.7079 21.5674 66.6686 21.5674 66.6686C21.7042 66.5905 21.8604 66.4928 22.0167 66.3952C23.3254 71.1612 22.0753 75.3413 19.0477 78.6423ZM40.0456 64.3637C39.0494 66.8054 36.9399 73.0754 35.6702 72.7239C34.5762 72.4309 33.9123 67.6843 35.4552 62.9964C36.2365 60.6328 37.8968 57.8202 38.8734 56.7262C40.4558 54.9682 42.1745 54.3822 42.6044 55.1049C43.1123 56.0427 40.6707 62.8402 40.0456 64.3637ZM57.3714 72.6457C56.9416 72.8608 56.551 73.0168 56.3752 72.8998C56.2384 72.8217 56.5508 72.5287 56.5508 72.5287C56.5508 72.5287 58.7189 70.2043 59.5784 69.13C60.0667 68.5051 60.6527 67.7824 61.2777 66.9618V67.1962C61.2779 70.0088 58.5824 71.8839 57.3714 72.6457ZM70.7317 69.5986C70.4192 69.3642 70.4584 68.6415 71.513 66.3756C71.9234 65.4771 72.8608 63.9731 74.482 62.5472C74.6774 63.1332 74.7947 63.6994 74.775 64.227C74.7557 67.7429 72.2555 69.0517 70.7317 69.5986Z" stroke="#42CEB5" stroke-width="2" mask="url(#path-1-inside-1_62_25)"/>
</svg>
