<svg width="100" height="100" viewBox="0 0 100 100" fill="none" xmlns="http://www.w3.org/2000/svg">
<path d="M26.8252 10.876C26.8216 10.8219 26.8169 10.7315 26.8193 10.6113C26.8243 10.3708 26.8547 10.0106 26.96 9.57031C27.1688 8.69666 27.6794 7.48304 28.9248 6.24219C31.4268 3.74957 37.0544 1.00001 49.6396 1C62.7652 1 68.5312 4.30174 71.0635 7.31445C72.3348 8.82702 72.8442 10.3254 73.041 11.4326C73.1398 11.9881 73.1599 12.4465 73.1562 12.7578C73.1544 12.9129 73.1471 13.0309 73.1406 13.1055C73.1374 13.1425 73.1336 13.1691 73.1318 13.1836C73.1314 13.1872 73.1311 13.1903 73.1309 13.1924L73.1201 13.2666V35.3896C73.1201 38.5458 72.3241 40.8311 71.1846 42.501C70.0404 44.1776 68.5069 45.2972 66.9395 46.0459C65.3681 46.7964 63.7836 47.1636 62.583 47.3418C61.9853 47.4305 61.4893 47.4716 61.1465 47.4902C60.9755 47.4995 60.8431 47.5024 60.7559 47.5039C60.7123 47.5046 60.6792 47.5049 60.6592 47.5049H36.5928C32.8184 47.5049 29.9447 48.4409 27.7754 49.9023C25.6116 51.3601 24.2119 53.2974 23.3096 55.2031C22.4095 57.1042 21.9952 58.9925 21.8037 60.3955C21.7076 61.0996 21.6671 61.6887 21.6504 62.1055C21.642 62.3137 21.6389 62.4794 21.6387 62.5957C21.6386 62.6537 21.6391 62.6999 21.6396 62.7324L21.6406 62.7578V73.707H14.1465L14.1162 73.708C14.1135 73.7081 14.1086 73.7088 14.1025 73.709C14.0857 73.7096 14.0564 73.7108 14.0156 73.7109C13.9333 73.7113 13.8041 73.7083 13.6348 73.6973C13.2958 73.6751 12.7982 73.6182 12.1953 73.4746C10.9911 73.1877 9.36765 72.5575 7.73438 71.1797C4.4927 68.4449 1 62.5696 1 49.8701C1.00008 37.2129 4.97974 31.6069 8.68359 29.0938C10.5627 27.8188 12.4429 27.2882 13.8545 27.0762C14.5597 26.9703 15.1443 26.944 15.5459 26.9443C15.7464 26.9445 15.9006 26.9519 16.001 26.958C16.0511 26.9611 16.0883 26.9639 16.1104 26.9658L16.1318 26.9678L16.1875 26.9736H51.0928V21.5322H26.8643L26.8389 11.0645L26.8379 10.9941L26.8281 10.9268L26.8252 10.876ZM36.2812 6.70996C35.5771 6.7095 34.8799 6.8487 34.2295 7.11914C33.5787 7.38979 32.9877 7.78701 32.4902 8.28711C31.9927 8.78721 31.5978 9.38036 31.3291 10.0332C31.0607 10.6854 30.9235 11.3844 30.9238 12.0898C30.9232 12.7959 31.0606 13.4957 31.3291 14.1484C31.5978 14.8013 31.9927 15.3954 32.4902 15.8955C32.9877 16.3955 33.5787 16.7929 34.2295 17.0635C34.8798 17.3339 35.5772 17.4712 36.2812 17.4707C36.9857 17.4713 37.6833 17.334 38.334 17.0635C38.9847 16.7929 39.5758 16.3955 40.0732 15.8955C40.5708 15.3954 40.9657 14.8013 41.2344 14.1484C41.5029 13.4957 41.6403 12.7959 41.6396 12.0898C41.64 11.3844 41.5028 10.6854 41.2344 10.0332C40.9657 9.38035 40.5707 8.78721 40.0732 8.28711C39.5757 7.787 38.9848 7.38979 38.334 7.11914C37.6833 6.84857 36.9857 6.70938 36.2812 6.70996Z" stroke="#42CEB5" stroke-width="2"/>
<path d="M86.3647 26.3021C86.7038 26.3243 87.2021 26.3821 87.8052 26.5258C89.0094 26.8127 90.633 27.442 92.2661 28.8197C95.5078 31.5545 98.9995 37.4301 98.9995 50.1293C98.9995 62.7871 95.0198 68.3934 91.3159 70.9066C89.4368 72.1816 87.5566 72.7122 86.145 72.9242C85.4398 73.0301 84.8553 73.0563 84.4536 73.056C84.2532 73.0559 84.0988 73.0485 83.9985 73.0424C83.9486 73.0393 83.9122 73.0365 83.8901 73.0345C83.8791 73.0336 83.8713 73.033 83.8677 73.0326H83.8687L83.812 73.0267H48.9077V78.4681H73.1362L73.1616 88.9359V89.0062L73.1714 89.0756C73.1724 89.0852 73.1738 89.1016 73.1753 89.1244C73.1789 89.1785 73.1826 89.268 73.1802 89.3881C73.1752 89.6286 73.1459 89.9894 73.0405 90.4301C72.8316 91.3037 72.3211 92.5173 71.0757 93.7582C68.5737 96.2508 62.9452 99.0004 50.3599 99.0004C37.2346 99.0003 31.4693 95.6976 28.937 92.6849C27.6657 91.1725 27.1554 89.6749 26.9585 88.5677C26.8597 88.0123 26.8397 87.5539 26.8433 87.2426C26.8451 87.0874 26.8534 86.9694 26.8599 86.8949C26.8631 86.8579 26.8659 86.8313 26.8677 86.8168L26.8696 86.8041L26.8804 86.7338V64.6097C26.8804 61.4535 27.6754 59.1683 28.8149 57.4984C29.9591 55.8218 31.4936 54.7031 33.061 53.9545C34.6322 53.204 36.216 52.8358 37.4165 52.6576C38.0143 52.5689 38.5112 52.5288 38.854 52.5101C39.025 52.5008 39.1575 52.4969 39.2446 52.4955C39.2881 52.4948 39.3203 52.4945 39.3403 52.4945H63.4067C67.1811 52.4945 70.0548 51.5584 72.2241 50.097C74.388 48.6393 75.7876 46.702 76.6899 44.7963C77.5901 42.8951 78.0043 41.0069 78.1958 39.6039C78.2919 38.8998 78.3333 38.3106 78.3501 37.8939C78.3585 37.6857 78.3606 37.5199 78.3608 37.4037C78.3609 37.3456 78.3604 37.2995 78.3599 37.267C78.3597 37.2574 78.359 37.2489 78.3589 37.2416V26.2933H85.853L85.8853 26.2914H85.897C85.9137 26.2908 85.9429 26.2896 85.9839 26.2894C86.0662 26.2891 86.1956 26.2911 86.3647 26.3021ZM63.7183 82.5287C63.014 82.5282 62.317 82.6674 61.6665 82.9379C61.0156 83.2086 60.4238 83.6047 59.9263 84.1049C59.4288 84.605 59.0348 85.199 58.7661 85.8519C58.4977 86.5042 58.3604 87.203 58.3608 87.9086C58.3602 88.6147 58.4975 89.3144 58.7661 89.9672C59.0348 90.62 59.4297 91.2141 59.9272 91.7142C60.4247 92.2142 61.0158 92.6106 61.6665 92.8812C62.3167 93.1516 63.0134 93.2898 63.7173 93.2894V93.2904C64.4224 93.291 65.1206 93.1517 65.771 92.8812C66.4219 92.6106 67.0127 92.2134 67.5103 91.7133C68.0077 91.2132 68.4017 90.6199 68.6704 89.9672C68.9054 89.396 69.0411 88.789 69.0708 88.1732L69.0767 87.9086C69.0771 87.203 68.9388 86.5042 68.6704 85.8519C68.4017 85.1991 68.0078 84.605 67.5103 84.1049C67.0128 83.6048 66.4218 83.2075 65.771 82.9369C65.1203 82.6663 64.4227 82.5281 63.7183 82.5287Z" stroke="#42CEB5" stroke-width="2"/>
</svg>
