<svg width="100" height="100" viewBox="0 0 100 100" fill="none" xmlns="http://www.w3.org/2000/svg">
<path d="M21.2266 23.7998C35.0221 8.26224 58.8003 6.66916 74.5674 20.1318L74.2432 22.9229L66.0908 31.0283H63.8594C54.6162 23.8246 41.3561 24.8323 33.3223 33.3564C33.2902 33.3686 33.2603 33.3803 33.2334 33.3926C33.0536 33.4746 32.9038 33.585 32.792 33.6787C32.5681 33.8666 32.3657 34.101 32.2109 34.2969C32.0949 34.4437 31.9893 34.5902 31.9023 34.7158L15.1533 37.4619C14.6099 37.3368 14.0536 37.2913 13.502 37.3252C15.1025 32.3402 17.7303 27.7342 21.2256 23.8008L21.2266 23.7998Z" stroke="#42CEB5" stroke-width="2"/>
<path d="M75.8062 21.1265C81.0037 25.9408 84.7479 32.1058 86.6138 38.9302L86.7114 39.2886L87.02 39.4956C96.8105 46.079 101.192 58.1745 97.9341 69.4224L97.7729 69.9575C94.208 81.3513 83.5564 89.091 71.5444 88.9985V88.9976H50.2319L48.6528 87.4272V75.3091L50.2368 73.7134H71.5366C78.0771 73.7134 83.3931 68.4423 83.3931 61.9214C83.393 55.7404 78.6144 50.6752 72.5366 50.1704V48.9937C72.6611 42.4415 69.9144 36.1813 65.0493 31.8188L75.8062 21.1265Z" stroke="#42CEB5" stroke-width="2"/>
<path d="M23.5298 72.6897C24.9698 73.2892 26.5143 73.5969 28.0737 73.5969H48.7905V88.8772H28.0698C22.3545 88.9004 16.7867 87.1303 12.1558 83.8284L12.6851 81.7209L21.0649 73.4475L23.5298 72.6897Z" stroke="#42CEB5" stroke-width="2"/>
<path d="M28.0781 34.8158C36.2919 34.789 44.0616 38.4496 49.2412 44.7435L38.2354 55.6849C36.9977 53.6524 35.1685 52.0268 32.9736 51.0385H32.9727C27.0083 48.3603 19.9865 50.99 17.2881 56.9281C14.7873 62.4319 16.8824 68.8315 21.9492 71.8744L10.9502 82.808C2.2315 75.6925 -1.19183 63.9307 2.4248 53.2504C6.13478 42.2947 16.4385 34.8847 28.0781 34.8158Z" stroke="#42CEB5" stroke-width="2"/>
</svg>
