<svg width="94" height="98" viewBox="0 0 94 98" fill="none" xmlns="http://www.w3.org/2000/svg">
<path d="M64.3877 1.00195L64.3975 1.00293H64.4082C66.3853 1.033 67.3913 1.12673 69.0029 1.91895C70.7216 2.76379 73.0775 4.38081 77.6523 7.58496V7.58594C84.4543 12.366 88.0949 14.9397 90.1094 16.4609C92.1085 17.9706 92.3651 18.3483 92.5381 18.6816H92.5391C92.5802 18.7666 92.6619 18.9442 92.7295 19.7676C92.7971 20.5918 92.8454 21.9608 92.876 24.3643C92.9371 29.16 92.9294 37.9649 92.8984 54.5117C92.8529 74.0482 92.868 83.0338 92.6289 87.3721C92.507 89.585 92.321 90.4054 92.1357 90.7822C92.0671 90.9218 91.9977 91 91.8799 91.0977C91.8068 91.1582 91.7256 91.2177 91.6006 91.3096C91.4825 91.3964 91.3375 91.504 91.1797 91.6348L91.1729 91.6396L91.166 91.6455C90.6583 92.0809 90.5971 92.1855 90.2354 92.3271C89.8129 92.4925 89.0371 92.6594 87.2539 92.8457C84.607 93.1222 79.9878 93.423 71.5479 93.9385L61.7656 94.5322C56.5291 94.8299 48.6796 95.3007 42.0215 95.7109L35.8994 96.0928C32.2927 96.3063 28.8259 96.4892 26.1514 96.6074C24.8133 96.6666 23.6769 96.7091 22.8223 96.7314C21.9332 96.7547 21.425 96.7529 21.2812 96.7383H21.2783C20.5325 96.6637 20.0495 96.5807 19.5859 96.3828C19.1269 96.1868 18.6165 95.8462 17.9014 95.1523C16.7999 94.0835 15.3414 92.3087 12.9727 89.2734L10.2803 85.7979C8.25005 83.1575 6.30529 80.5563 4.80078 78.4805C4.04817 77.442 3.4077 76.5391 2.92383 75.8301C2.55001 75.2824 2.28976 74.8794 2.13965 74.626L2.02637 74.4229L1.15234 72.6475L1.06152 40.7705L1 8.89062L1.54492 7.75L1.54395 7.74902C2.13352 6.52009 3.41752 5.55509 4.82715 5.30371L4.84668 5.2998C4.83354 5.30242 4.87378 5.29524 5.01855 5.2793C5.14411 5.26548 5.31732 5.2485 5.53711 5.22754C5.97653 5.18563 6.59123 5.13058 7.3623 5.06445C8.90397 4.93225 11.0631 4.75534 13.6826 4.54688C18.922 4.12993 25.9986 3.58655 33.6484 3.02051H33.6504C41.2834 2.43909 48.5714 1.91973 54.1602 1.55273C59.7911 1.18297 63.6124 0.974295 64.3877 1.00195ZM83.375 21.2979C81.5488 21.3185 78.4895 21.4841 73.1963 21.8047L67.1221 22.1768C59.3737 22.6357 45.884 23.4626 37.1631 23.9521H37.1602C30.9488 24.3188 26.9267 24.5796 24.3867 24.7949C23.1191 24.9024 22.2011 24.9998 21.5576 25.0967C21.2369 25.1449 20.9652 25.1961 20.7432 25.2529C20.5562 25.3008 20.3174 25.3741 20.1084 25.5049L20.1074 25.5039C19.7171 25.7426 19.404 26.137 19.1875 26.4727C18.9564 26.8311 18.7523 27.2529 18.6299 27.6602V27.6631C18.5613 27.8938 18.53 28.2473 18.5068 28.5889C18.4805 28.9778 18.4573 29.4998 18.4375 30.1553C18.3978 31.468 18.3689 33.3506 18.3496 35.8486C18.3111 40.8472 18.3108 48.3354 18.3418 58.7109V58.7119L18.4326 88.2773L18.4346 88.667L18.6992 88.9531L19.4346 89.749L19.4473 89.7627L19.4619 89.7764C19.7488 90.0632 20.1254 90.3409 20.5 90.5654C20.8711 90.7878 21.3056 90.9984 21.7197 91.1074V91.1045C21.8388 91.1362 21.9513 91.1477 21.9961 91.1514C22.069 91.1573 22.1508 91.1607 22.2354 91.1631C22.406 91.1678 22.6272 91.1687 22.8896 91.166C23.417 91.1606 24.1461 91.1416 25.043 91.1113C26.8386 91.0507 29.3322 90.9431 32.2881 90.8027C38.2016 90.5218 45.9802 90.108 53.7578 89.666C61.5353 89.224 69.3153 88.7533 75.2324 88.3613C78.1901 88.1654 80.686 87.989 82.4844 87.8447C83.3827 87.7727 84.1136 87.7084 84.6426 87.6533C84.9059 87.6259 85.1276 87.5996 85.2988 87.5752C85.3838 87.5631 85.4656 87.5503 85.5381 87.5361C85.5803 87.5279 85.6678 87.5074 85.7637 87.4746L85.7646 87.4775C86.1618 87.3457 86.5418 87.0907 86.8428 86.8359C87.1466 86.5788 87.4447 86.2564 87.6631 85.9121L87.6641 85.9131C87.6666 85.9092 87.6684 85.9043 87.6709 85.9004C87.6722 85.8983 87.6745 85.8966 87.6758 85.8945L87.6748 85.8936C87.9248 85.5038 88.0464 85.0644 88.1289 84.3184C88.2119 83.5677 88.2675 82.381 88.3096 80.4053C88.394 76.4378 88.4243 69.1411 88.4697 55.4355C88.5007 47.4453 88.5006 40.0205 88.4814 34.501C88.4719 31.7416 88.4581 29.4564 88.4404 27.8145C88.4316 26.994 88.4215 26.3314 88.4111 25.8496C88.4015 25.4018 88.3904 25.0416 88.3711 24.8857L88.3701 24.8711L88.3672 24.8564C88.224 23.9229 87.7917 22.8737 87.1689 22.251C86.9139 21.9959 86.59 21.6634 85.9141 21.4805C85.3541 21.3289 84.5728 21.2843 83.375 21.2979ZM63.29 4.53223C61.1529 4.5221 58.1845 4.68163 53.8799 5.00879L51.9521 5.15918C46.9965 5.55764 38.8593 6.1694 33.9053 6.50586H33.9014C20.9549 7.43765 14.4971 7.906 11.2832 8.27246C10.4769 8.3644 9.85488 8.45179 9.37695 8.54199C8.91203 8.62975 8.52421 8.73031 8.21973 8.86914C7.89771 9.01603 7.56487 9.25412 7.38672 9.66504C7.24122 10.0008 7.26265 10.3575 7.2627 10.4102C7.2627 10.7036 7.39121 10.9184 7.41504 10.96C7.46235 11.0423 7.51436 11.1124 7.55371 11.1621C7.63497 11.2647 7.73586 11.3735 7.83789 11.4775C8.04656 11.6904 8.33392 11.959 8.66992 12.2598C9.34608 12.865 10.2684 13.6455 11.2666 14.4648C13.2558 16.0977 15.603 17.9283 16.9746 18.8584L16.9805 18.8623C17.7351 19.3669 19.002 19.8822 19.918 20.0283L19.9307 20.0303C20.0653 20.0499 20.2458 20.0531 20.3916 20.0537C20.5639 20.0544 20.785 20.051 21.0479 20.0449C21.5752 20.0328 22.2938 20.0077 23.1719 19.9717C24.9292 19.8997 27.3448 19.7835 30.1934 19.6357C35.8918 19.3401 43.3348 18.9186 50.7373 18.4785C58.1396 18.0385 65.5041 17.5794 71.0459 17.207C73.8162 17.0209 76.135 16.8563 77.7754 16.7266C78.5942 16.6618 79.2501 16.6052 79.7109 16.5586C79.9396 16.5355 80.131 16.5143 80.2734 16.4941C80.3426 16.4844 80.4167 16.472 80.4834 16.458C80.5152 16.4513 80.5648 16.4409 80.6191 16.4238C80.6283 16.4212 80.8173 16.3682 80.9912 16.2188L81.0195 16.1943L81.0469 16.167C81.4916 15.722 81.4776 15.1507 81.332 14.7549C81.2049 14.4095 80.9644 14.1188 80.7412 13.8955L80.708 13.8643L80.3369 13.5488C79.2702 12.6834 76.8656 10.9526 74.542 9.33496C73.1967 8.3984 71.8509 7.48097 70.7588 6.75977C69.7061 6.06457 68.7986 5.49077 68.3867 5.30469L68.3828 5.30273L68.1562 5.20703C67.0094 4.7462 65.5762 4.54308 63.29 4.53223Z" stroke="#42CEB5" stroke-width="2"/>
<path d="M67.719 36.9858L66.8459 36.8745L65.4075 36.6909L65.4006 36.6899L64.3098 36.5522C63.9943 36.51 63.724 36.4705 63.4915 36.4312C63.1272 36.3695 62.8984 36.3148 62.7561 36.269C62.7564 36.2655 62.7568 36.262 62.7571 36.2583C62.8371 35.659 63.2068 35.0897 63.9182 34.7075C63.9302 34.7045 63.9459 34.7003 63.9661 34.6958C64.0553 34.676 64.1874 34.6519 64.3645 34.6245C64.7164 34.5701 65.2007 34.5101 65.7883 34.4478C66.9613 34.3232 68.5084 34.1942 70.1516 34.0874H70.1526C73.3111 33.8802 76.3475 33.702 77.0413 33.6675C77.0413 33.6702 77.0422 33.6735 77.0422 33.6763C77.0421 34.2321 76.8889 34.5602 76.6526 34.7944C76.3873 35.0573 75.9034 35.3131 75.0403 35.478L73.4182 35.7847L72.6077 35.937L72.6038 36.7622L72.5129 57.6665V57.6685L72.4514 77.9878L72.1858 78.1548L72.177 78.1597L72.1682 78.1655C71.1401 78.8376 69.5145 79.3634 67.8831 79.5923C67.0782 79.7052 66.3055 79.7404 65.6428 79.6958C64.9637 79.65 64.4731 79.5248 64.1809 79.3716L64.1711 79.3657L63.9768 79.2583C63.5081 78.9699 62.8929 78.3717 61.3899 76.228C59.6913 73.8053 56.9581 69.565 52.0715 61.9058H52.0706L42.7678 47.3071L40.9241 44.4146V61.9546C40.9241 68.5237 40.9323 72.0766 41.0061 74.0024C41.0422 74.945 41.095 75.5836 41.1975 76.0093C41.2496 76.2256 41.3351 76.4823 41.5081 76.7085C41.7121 76.9752 41.9675 77.1106 42.1946 77.1772L42.2249 77.186L42.2561 77.1929C42.5263 77.2538 43.8341 77.5567 45.1516 77.8628V77.8638C45.6495 77.9821 46.1075 78.1099 46.4719 78.2241C46.4442 78.2823 46.4174 78.3421 46.3879 78.4009C46.2106 78.748 46.0798 78.9187 45.9211 79.0444C45.7554 79.1757 45.4755 79.3231 44.8987 79.4614C43.6976 79.7495 41.6159 79.9154 37.6448 80.147H37.6418C35.6524 80.269 33.794 80.3841 32.4094 80.4683C31.733 80.5094 31.1706 80.5431 30.762 80.5669C30.8022 80.4148 30.8641 80.2357 30.9563 80.0396L30.9641 80.0239C31.0265 79.8849 31.1023 79.6739 32.7893 79.1646L32.7952 79.1626L34.8762 78.52L35.5813 78.3022V38.98H33.2952C32.094 38.98 31.3006 38.8948 30.8372 38.7671C30.7907 38.7543 30.7512 38.7406 30.717 38.729C30.7766 38.4501 30.9174 38.0853 31.1438 37.7056C31.4573 37.18 31.8048 36.8419 32.01 36.7358L32.0237 36.729L32.0364 36.7222C32.0144 36.7344 32.1348 36.6794 32.5579 36.6001C32.9345 36.5295 33.4549 36.4556 34.1292 36.3784C35.1389 36.2628 36.4617 36.144 38.1038 36.021L39.8538 35.897C41.8704 35.7588 43.7169 35.6433 45.0647 35.5708C45.7395 35.5345 46.2843 35.5091 46.6614 35.4966C46.6808 35.4959 46.6997 35.4952 46.718 35.4946C46.8429 35.6823 47.006 35.9288 47.2043 36.229C47.6948 36.9714 48.3975 38.0391 49.26 39.353C50.985 41.9806 53.3493 45.5918 55.9348 49.5542L55.9358 49.5552C58.5228 53.504 60.9028 57.132 62.6555 59.7954C63.5317 61.1269 64.2513 62.2185 64.762 62.9888C65.0171 63.3737 65.2212 63.6797 65.3665 63.896C65.4862 64.0743 65.6131 64.2628 65.675 64.3374L65.7043 64.3726L65.7366 64.4058C65.8571 64.5263 66.1302 64.7301 66.5295 64.6987C66.905 64.6692 67.13 64.4492 67.2161 64.3491C67.371 64.169 67.4241 63.9748 67.4309 63.9517C67.4653 63.8364 67.4818 63.715 67.4915 63.6392C67.5141 63.4614 67.5334 63.2134 67.55 62.9185C67.584 62.3189 67.614 61.4333 67.6389 60.311C67.6887 58.0627 67.719 54.8256 67.719 50.9351V36.9858Z" stroke="#42CEB5" stroke-width="2"/>
</svg>
