<svg width="97" height="95" viewBox="0 0 97 95" fill="none" xmlns="http://www.w3.org/2000/svg">
<path d="M89.0153 73.161C83.7573 73.0302 79.6821 73.5546 76.2643 74.9963C75.2783 75.3892 73.7006 75.3895 73.5692 76.6349C74.0951 77.1593 74.1608 78.0114 74.6209 78.7321C75.4105 80.0426 76.7898 81.8124 78.0388 82.7304C79.4188 83.7788 80.7996 84.8272 82.245 85.7448C84.8087 87.318 87.701 88.2352 90.1986 89.8084C91.6451 90.7253 93.0901 91.9059 94.5363 92.8887C95.2594 93.4123 95.7192 94.2652 96.6398 94.5926V94.3963C96.1793 93.806 96.0478 92.9543 95.5881 92.2988C94.9315 91.6433 94.2734 91.0534 93.616 90.3979C91.7101 87.8423 89.344 85.6137 86.7807 83.7788C84.6776 82.3368 80.0762 80.3707 79.222 77.9455C79.222 77.9455 79.1559 77.8803 79.0905 77.8148C80.5363 77.6837 82.245 77.1593 83.6258 76.766C85.8604 76.1757 87.8978 76.3072 90.1986 75.7173C91.2499 75.4551 92.3017 75.1274 93.3531 74.7996V74.2101C92.1706 73.0302 91.3161 71.4575 90.0671 70.3432C86.715 67.4587 83.0339 64.641 79.222 62.2817C77.1842 60.9707 74.5548 60.1186 72.386 59.0047C71.5979 58.611 70.2828 58.4148 69.823 57.7593C68.6394 56.3176 67.9821 54.4171 67.1279 52.7129C65.2224 49.1078 63.3814 45.1102 61.7381 41.3093C60.5556 38.7529 59.8325 36.1966 58.3863 33.8377C51.6164 22.6958 44.2549 15.9452 32.95 9.32535C30.5178 7.94924 27.6258 7.35931 24.5367 6.63867C22.8941 6.57275 21.2503 6.44203 19.6073 6.37611C18.5556 5.91728 17.5038 4.67226 16.5835 4.08234C12.8378 1.72265 3.17515 -3.38888 0.414671 3.3617C-1.36017 7.6215 3.04406 11.8158 4.55521 13.9792C5.67345 15.4864 7.11886 17.1902 7.90768 18.8945C8.36782 20.008 8.49892 21.1886 8.95906 22.3681C10.0112 25.251 10.9965 28.4632 12.3773 31.1506C13.1004 32.5267 13.8888 33.9684 14.8091 35.2138C15.335 35.9344 16.2549 36.2625 16.4524 37.442C15.5325 38.7529 15.4664 40.7193 14.9402 42.3576C12.5741 49.7637 13.4948 58.9391 16.8465 64.3788C17.8979 66.0167 20.3958 69.6225 23.7479 68.2457C26.7059 67.0662 26.0486 63.3304 26.9024 60.0534C27.1003 59.2661 26.9689 58.7425 27.3629 58.2181V58.3496C28.2832 60.1842 29.2031 61.9543 30.0577 63.7892C32.0954 67.0003 35.6444 70.3432 38.602 72.5718C40.1801 73.7509 41.4286 75.7828 43.4007 76.5038V76.3068H43.2688C42.8744 75.7169 42.2828 75.4551 41.7573 74.9959C40.5745 73.8168 39.2594 72.3748 38.3395 71.0638C35.5794 67.3932 33.1468 63.33 30.9779 59.1354C29.9266 57.1042 29.0059 54.8756 28.1517 52.844C27.7569 52.0567 27.7569 50.8776 27.1 50.4847C26.114 51.9264 24.6682 53.1718 23.9451 54.9411C22.6969 57.7593 22.565 61.2329 22.1049 64.8372C21.8419 64.9035 21.973 64.8372 21.8416 64.9691C19.7388 64.444 19.0157 62.2817 18.2265 60.4463C16.2545 55.7933 15.9258 48.3217 17.6353 42.9476C18.0954 41.5711 20.0675 37.2457 19.2787 35.9348C18.8843 34.6894 17.5692 33.9684 16.8465 32.9855C15.9923 31.7402 15.0716 30.1678 14.4804 28.7909C12.9028 25.1207 12.114 21.0571 10.4052 17.3869C9.61641 15.6826 8.23673 13.9136 7.11886 12.3405C5.87028 10.5711 4.48985 9.32535 3.50383 7.22822C3.17553 6.50758 2.71501 5.32773 3.24089 4.54117C3.37236 4.01679 3.63492 3.82053 4.16118 3.68944C5.01573 2.96804 7.44792 3.8857 8.30171 4.27898C10.7339 5.26143 12.7713 6.17984 14.8091 7.55595C15.729 8.21142 16.715 9.45682 17.8979 9.78455H19.2783C21.3818 10.243 23.7475 9.91565 25.7195 10.5052C29.2035 11.6191 32.358 13.2578 35.1846 15.0276C43.7951 20.4672 50.8929 28.201 55.6916 37.442C56.4804 38.9488 56.8087 40.3261 57.5318 41.8984C58.9126 45.1102 60.6213 48.3872 62.001 51.5331C63.3814 54.613 64.6957 57.7593 66.6678 60.3156C67.6538 61.6914 71.5971 62.4127 73.372 63.1338C74.6867 63.7233 76.7244 64.2481 77.9073 64.9687C80.1419 66.3444 82.3765 67.9183 84.48 69.4251C85.5318 70.2117 88.8178 71.8504 89.0153 73.161Z" fill="#42CEB5"/>
<path d="M21.9727 16.2067C20.8556 16.2067 20.0671 16.3385 19.2783 16.5348V16.6659H19.4098C19.936 17.7146 20.8556 18.4356 21.5125 19.3529C22.0388 20.4013 22.4986 21.4504 23.0248 22.4992C23.0902 22.4333 23.1559 22.3681 23.1559 22.3681C24.0766 21.7122 24.5363 20.6639 24.5363 19.0907C24.1419 18.6323 24.0762 18.1735 23.7475 17.7146C23.3535 17.0588 22.4986 16.7314 21.9727 16.2067Z" fill="#42CEB5"/>
</svg>
