<svg width="97" height="100" viewBox="0 0 97 100" fill="none" xmlns="http://www.w3.org/2000/svg">
<path d="M96.8985 61.345C96.8404 61.169 96.7602 61.001 96.6598 60.845C96.0779 59.7533 94.6628 59.4242 92.4439 59.8825C85.5192 61.2992 82.8397 60.4242 81.8684 59.7992C87.4869 51.2657 92.1048 40.9571 94.6 31.3403C95.7388 26.9652 97.9409 16.6608 95.1108 11.6315C94.9314 11.2858 94.7212 10.9567 94.4828 10.6482C89.0778 3.78972 81.1567 0.102143 71.5693 0.00214105C65.3103 -0.064527 59.9723 1.44384 58.5238 1.99801C57.807 1.86433 57.0866 1.75039 56.3635 1.65634C54.5501 1.33069 52.713 1.15371 50.8706 1.12716C45.922 1.048 41.6474 2.22719 38.1013 4.62723C34.5176 3.28971 18.0599 -2.22707 7.87383 4.95641C2.17582 8.96899 -0.445014 16.1358 0.0615694 26.2652C0.233221 29.6736 2.18419 40.1571 5.26556 50.199C7.19141 56.4741 9.19262 61.4575 11.265 65.1243C13.5802 69.266 15.9792 71.7619 18.4409 72.5828C20.3165 73.1995 23.1844 73.1786 26.2197 69.5452C28.8527 66.4108 31.5679 63.3458 34.3627 60.3534C36.1839 61.3325 38.1558 61.8617 40.1821 61.9242C40.1819 61.9298 40.1819 61.9353 40.1821 61.9409C39.8299 62.3584 39.4851 62.7821 39.148 63.2117C37.7287 65.0035 37.4315 65.3785 32.868 66.316C31.5702 66.5827 28.1204 67.2868 28.0702 69.6952C28.0606 70.1767 28.193 70.6504 28.4511 71.0577C29.4015 72.8203 32.3112 73.5995 32.7006 73.6953C38.2897 75.0828 43.1881 74.0786 46.8179 70.8661C46.7467 80.1621 47.1403 89.2748 48.2623 92.0665C49.1876 94.3707 51.4525 100 58.6033 100C59.65 100 60.8055 99.875 62.074 99.6083C69.5346 98.0166 72.7751 94.7332 74.0269 87.4997C74.6549 83.8747 75.7099 75.5203 76.2835 70.4119C76.3546 70.1202 76.4342 69.9119 76.5221 69.8452C76.5221 69.8452 76.8152 69.6452 78.3098 69.9702C78.3705 69.9836 78.4321 69.9934 78.494 69.9994L79.5574 70.0911L79.6202 70.0952C83.1663 70.2577 87.6209 69.5035 90.2166 68.3035C92.9128 67.0535 97.7818 63.9993 96.8985 61.345ZM8.18364 49.4823C5.06879 39.3363 3.25179 29.1277 3.10944 26.2693C2.6531 17.2192 4.85527 10.9232 9.64897 7.54813C17.3398 2.13552 29.9123 5.29808 35.2209 7.00645L35.1791 7.04812C26.7095 15.5566 26.9105 30.1069 26.9398 30.9986C26.9398 31.3403 26.9649 31.8278 27.0068 32.4986C27.1491 34.9403 27.4254 39.4988 26.6969 44.6572C26.0271 49.449 27.5092 54.1407 30.7705 57.5283C31.1055 57.8783 31.4613 58.2075 31.8256 58.5158C30.3728 60.0617 27.2203 63.4868 23.8584 67.5077C21.4804 70.3494 19.8392 69.8035 19.3033 69.6244C17.6622 69.0827 15.8996 67.1785 14.1161 64.1159C12.1065 60.62 10.0844 55.6491 8.19202 49.4823H8.18364ZM33.3328 70.6827C32.6972 70.5235 32.088 70.2736 31.5241 69.9411C31.8968 69.7785 32.5164 69.566 33.5463 69.3577C38.9219 68.2535 39.7509 67.4785 41.5637 65.191C42.052 64.5564 42.5646 63.9406 43.1002 63.3451C43.2409 63.1885 43.3466 63.0038 43.41 62.8034C44.1217 62.1742 44.5488 62.3451 45.2354 62.6284C45.8885 62.8992 46.5249 63.7118 46.7844 64.6076C46.91 65.0326 47.044 65.8368 46.596 66.4618C42.8113 71.7369 37.2933 71.6703 33.3328 70.6827ZM42.0996 54.0657L41.8819 54.6491C41.3251 56.1366 40.8059 57.52 40.4835 58.8325C37.6911 58.8242 34.9697 57.6325 32.9057 55.4866C30.2765 52.7574 29.0833 48.9615 29.6276 45.0697C30.3937 39.6196 30.1132 34.8737 29.9625 32.3236L29.9081 31.4069C31.1473 30.3153 36.883 27.2569 40.9734 28.1902C42.8406 28.6152 43.9794 29.8819 44.4483 32.057C46.8975 43.3238 44.7748 48.0156 43.0667 51.7907C42.7201 52.538 42.3989 53.2968 42.1038 54.0657H42.0996ZM72.93 73.1161C72.8588 73.8536 72.7792 74.6828 72.6704 75.5995L72.0591 77.4245C72.0108 77.5698 71.9854 77.7216 71.9838 77.8746C71.9587 79.8538 71.7577 80.5788 71.5023 81.4996C71.0866 82.9351 70.8338 84.4124 70.7487 85.9039C70.2882 91.7957 67.0729 95.1832 60.6296 96.5541C54.2869 97.9083 53.1607 94.4874 52.1726 91.4665C52.0696 91.1493 51.9607 90.8339 51.8461 90.5206C50.9459 88.0789 51.0506 84.6372 51.1888 79.8746C51.2558 77.537 51.0841 71.9536 49.8072 68.8494C49.8239 67.6285 49.849 66.3868 49.8867 65.1326C49.8902 64.9731 49.8676 64.8141 49.8197 64.6618C49.7791 64.3689 49.7175 64.0793 49.6355 63.7951C49.1248 62.0117 47.8771 60.52 46.37 59.8992C45.7754 59.6533 44.6827 59.2033 43.3681 59.5367C43.6486 58.3867 44.1343 57.0908 44.6618 55.6824L44.8837 55.0908C45.1349 54.4241 45.4447 53.7366 45.7754 53.0074C47.559 49.0573 50.004 43.6489 47.3496 31.4319C46.3574 26.8569 43.0374 24.6235 38.0051 25.1401C34.9907 25.4527 32.2275 26.6652 30.8501 27.3569C30.5738 27.496 30.3002 27.6404 30.0295 27.7902C30.4147 23.1818 31.8674 14.5649 37.2975 9.11483C37.7005 8.71032 38.1239 8.32648 38.5661 7.9648C38.7861 7.92286 38.9937 7.83167 39.1731 7.69813C42.3215 5.32308 46.2695 4.15639 50.9041 4.22723C52.6206 4.25639 54.2618 4.3689 55.8192 4.56473C63.9413 6.04393 69.4006 10.594 72.7164 14.4941C76.1244 18.5025 77.9707 22.5401 78.7075 24.7193C73.1686 24.161 69.4006 25.2485 67.4873 27.9694C63.3342 33.8778 69.7649 45.3531 72.8546 50.8698C73.4198 51.8782 73.9096 52.7532 74.0645 53.1199C75.0693 55.5491 76.3714 57.17 77.3217 58.3533C77.6148 58.7158 77.8995 59.0658 78.113 59.3742C76.4384 59.8575 73.424 60.97 73.6961 66.5285C73.5921 67.6618 73.4749 68.7938 73.3444 69.9244C73.1519 70.7911 73.0556 71.8411 72.93 73.1161ZM76.6561 66.3618C76.4886 62.8951 77.7865 62.5326 79.1555 62.1534C79.3453 62.1011 79.5337 62.0441 79.7207 61.9826C79.8973 62.1385 80.0848 62.282 80.2817 62.4117C82.6681 63.9784 86.9091 64.1659 92.8709 62.9701C92.0252 63.7076 90.698 64.6368 88.8811 65.4743C87.1645 66.266 84.2925 66.8618 81.567 66.991C78.5526 67.1327 77.0203 66.6577 76.6561 66.3618ZM79.0425 27.7319C78.9932 29.1306 78.8463 30.5243 78.6029 31.9028C78.3726 33.3945 78.134 34.9362 78.0712 36.807C78.0125 38.6238 78.2386 40.5155 78.4605 42.3488C78.9085 46.0447 79.3648 49.849 77.5939 53.6032C77.2991 53.0849 77.0362 52.5491 76.8068 51.999C76.3932 51.1217 75.9391 50.2638 75.4461 49.4281C72.8672 44.828 66.8342 34.0528 69.9198 29.6611C71.5107 27.3985 75.5382 27.3027 79.0425 27.7319ZM79.997 56.9533C79.8792 56.804 79.7606 56.6554 79.6411 56.5075L79.4946 56.3241C82.5341 51.324 81.9396 46.3781 81.4079 41.9947C81.1902 40.1946 80.9892 38.4946 81.0395 36.9029C81.0939 35.207 81.3158 33.757 81.5335 32.3528C81.8014 30.6236 82.0778 28.8361 81.9982 26.7277C82.0603 26.4686 82.0773 26.2008 82.0485 25.936C81.8559 23.911 79.5365 17.8608 74.8056 12.3816C71.7222 8.76515 67.8812 5.86393 63.5519 3.88139C66.3407 3.31377 69.1838 3.05386 72.0298 3.10637C80.6208 3.29804 87.4157 6.49811 92.2262 12.6191C92.3288 12.7516 92.4225 12.8908 92.5067 13.0357C95.5336 18.6859 91.347 39.1821 79.997 56.9533ZM43.0876 31.4694C42.983 32.2195 41.7898 33.232 40.4877 33.232C40.3742 33.2315 40.2609 33.2232 40.1486 33.207C39.2985 33.0586 38.5392 32.5882 38.0302 31.8945C37.8376 31.6444 37.5278 31.1528 37.5864 30.7069C37.6057 30.5826 37.6501 30.4635 37.7171 30.3567C37.784 30.25 37.872 30.1579 37.9757 30.0861C38.4698 29.7152 39.4494 29.5777 40.5296 29.7277C41.8526 29.9111 43.2216 30.5319 43.0876 31.4694ZM76.2876 29.7569C76.3337 30.0902 76.0825 30.5903 75.6471 31.0486C75.1962 31.5373 74.5957 31.864 73.9389 31.9778C73.8349 31.9919 73.73 31.9989 73.6249 31.9986C72.3983 31.9986 71.36 31.0236 71.2804 30.4528C71.18 29.7152 72.3857 29.1611 73.6249 28.9861C74.8726 28.8111 76.1872 29.0236 76.2876 29.7569Z" fill="#42CEB5"/>
</svg>
