<svg width="100" height="100" viewBox="0 0 100 100" fill="none" xmlns="http://www.w3.org/2000/svg">
<path d="M36.5 33.2266V45.3516L13 31.7842L11.5 30.918V59.7842L1 53.7217V12.7314L36.5 33.2266Z" stroke="#42CEB5" stroke-width="2"/>
<path d="M74 53.7217L50 67.5781L39.5 61.5166L63 47.9492L63.5 47.6611V30.918L62 31.7842L38.5 45.3516V33.2266L74 12.7314V53.7217Z" stroke="#42CEB5" stroke-width="2"/>
<path d="M61.5 76.5275V88.6515L38.5 75.3722V63.2482L61.5 76.5275Z" stroke="#42CEB5" stroke-width="2"/>
<path d="M99 68.1553L63.5 88.6514V76.5273L88 62.3828L88.5 62.0938V47.6602L99 41.5977V68.1553ZM99 24.8555L88.5 30.918V18.7939L99 12.7314V24.8555Z" stroke="#42CEB5" stroke-width="2"/>
</svg>
