<svg width="91" height="100" viewBox="0 0 91 100" fill="none" xmlns="http://www.w3.org/2000/svg">
<path d="M89.6035 1L77.1533 37.5342L76.7812 38.6279L77.917 38.8398C82.8495 39.7617 86.5869 44.0772 86.5869 49.2363V49.2373C86.5891 51.1787 86.0511 53.0833 85.0312 54.7393L84.7119 55.2578L85.0264 55.7793C87.2269 59.4293 88.1221 63.72 87.376 67.9961C86.5083 72.968 83.4385 77.3134 78.9346 79.9092C75.0276 82.1603 70.5937 82.8088 66.085 83.4561C63.8365 83.7786 61.6547 84.0902 59.5264 84.6123C53.8305 86.0102 48.091 88.8529 42.6611 91.5361C35.032 95.3069 27.5118 98.9999 20.1387 99C16.2679 99 12.4291 97.9774 8.62695 95.3555H8.62598C2.48533 91.1208 -0.156363 83.5664 1.46875 73.8135C2.28105 68.9396 4.43205 64.5279 6.40039 60.5059L6.39941 60.5049C6.81288 59.6645 7.22166 58.8218 7.62305 57.9756L7.92871 57.332L7.41992 56.833C5.45928 54.91 4.24512 52.2444 4.24512 49.3027C4.24529 43.4737 9.01457 38.7217 14.8848 38.7217C20.7548 38.7217 25.5233 43.4737 25.5234 49.3027C25.5234 53.9135 22.5388 57.851 18.3789 59.2949L17.9609 59.4404L17.7871 59.8467L17.5195 60.4717L17.3779 60.8047C15.3449 65.5602 17.3326 70.9442 21.8389 73.7607L22.2646 74.0273L22.7324 73.8447C26.7027 72.2962 30.3947 69.9956 33.7314 67.001L34.3945 66.3926C36.6052 64.3171 38.5363 62.0459 40.166 59.6299L40.7471 58.7686L39.8643 58.2207C36.8431 56.3472 34.835 53.019 34.835 49.2363C34.835 44.1982 38.3994 39.9645 43.1611 38.9102L44.251 38.668L43.8916 37.6113L31.4219 1H89.6035ZM63.5234 49.7373C61.3525 49.6792 59.1045 49.689 56.9717 49.7666L56.1289 49.7979L56.0176 50.6338C55.3277 55.8056 50.865 59.8173 45.4736 59.8174C44.9403 59.8174 44.4072 59.7774 43.8799 59.6982L43.2373 59.6016L42.8887 60.1504C41.0381 63.0564 38.7844 65.7786 36.1611 68.2412C32.1053 72.049 27.5429 74.8611 22.6016 76.6123L22.0762 76.7979L21.5801 76.5449C15.554 73.4645 12.7483 66.9948 14.543 61.1016L14.8936 59.9502L13.6973 59.8164C12.7546 59.7116 11.8298 59.4811 10.9492 59.1309L10.083 58.7861L9.67871 59.627C9.35939 60.2912 9.03744 60.9544 8.71289 61.6162L8.71191 61.6172C6.87084 65.3803 4.89046 69.4124 4.07812 73.8027L4.00391 74.2285C3.59894 76.6589 3.30672 80.1371 4.00977 83.6387C4.71611 87.1566 6.43915 90.7454 10.0938 93.2656C14.9978 96.6476 20.062 97.0341 25.292 95.873C30.461 94.7255 35.8683 92.0474 41.5146 89.2568C47.2081 86.4428 52.9767 83.5962 58.9092 82.1406C61.1447 81.5923 63.4413 81.2619 65.7168 80.9355C69.7754 80.3534 73.8468 79.7814 77.3105 77.8945L77.6436 77.708C81.4701 75.5024 84.1038 71.8087 84.8447 67.5625C85.404 64.3568 84.8773 61.1449 83.4814 58.3018L82.9697 57.2588L82.0146 57.9209C80.2916 59.1153 78.2017 59.8174 75.9473 59.8174C70.5561 59.8172 66.0936 55.806 65.4043 50.6338L65.293 49.7969L64.4492 49.7666L63.5234 49.7373ZM14.8848 41.2686C10.4388 41.2686 6.81463 44.8668 6.81445 49.3027L6.81836 49.5635C6.86028 50.8696 7.2239 52.1466 7.87793 53.2822C8.8162 54.9146 10.2967 56.169 12.0635 56.8301L12.0654 56.8311C12.9438 57.1578 13.8941 57.3379 14.8848 57.3379C15.0786 57.3379 15.2649 57.3287 15.4365 57.3174H15.4385C18.0593 57.1393 20.3375 55.7106 21.6777 53.6309L21.6787 53.6318C22.4842 52.3825 22.9541 50.8955 22.9541 49.3027C22.9539 44.8669 19.3307 41.2686 14.8848 41.2686ZM75.9473 41.2021C73.1687 41.2023 70.7198 42.6092 69.2695 44.7373C68.9694 45.1754 68.7137 45.6425 68.5059 46.1309L68.5039 46.1338C68.1007 47.0895 67.8779 48.1384 67.8779 49.2363C67.8779 49.9404 67.9705 50.6415 68.1543 51.3213C69.0506 54.6386 72.0281 57.1125 75.6006 57.2637L75.9473 57.2715C77.5982 57.2728 79.209 56.766 80.5615 55.8223L80.5625 55.8232C82.0495 54.789 83.146 53.2869 83.6738 51.5576V51.5557C83.8964 50.8209 84.0176 50.042 84.0176 49.2363C84.0175 45.0533 80.7961 41.618 76.7021 41.2383H76.7031C76.4565 41.2151 76.2045 41.2021 75.9473 41.2021ZM45.4736 41.2012C45.169 41.2012 44.8679 41.2187 44.5713 41.252L44.2764 41.29C40.3965 41.8675 37.4043 45.205 37.4043 49.2363C37.4044 52.0676 38.8835 54.5553 41.1006 55.9844V55.9834C42.403 56.8244 43.9219 57.2706 45.4736 57.2695C45.748 57.2695 46.0191 57.2571 46.2861 57.2305H46.2871C49.728 56.8857 52.5348 54.3823 53.3223 51.1025C53.4298 50.654 53.5006 50.1903 53.5293 49.7148L53.5439 49.2363C53.5449 48.0596 53.2846 46.8969 52.7822 45.832L52.7812 45.8311C52.5249 45.2899 52.2089 44.7789 51.8389 44.3076H51.8379C50.3629 42.422 48.0606 41.2012 45.4736 41.2012ZM59.627 25.4268L52.3105 40.1465L51.9707 40.8311L52.543 41.3389C54.0699 42.6931 55.2023 44.4741 55.748 46.4883L55.9551 47.2549L56.749 47.2266C59.3893 47.1297 62.0326 47.1297 64.6729 47.2266L65.4668 47.2549L65.6748 46.4893C66.1826 44.6236 67.1945 42.9311 68.6006 41.5957L69.1338 41.0889L68.8086 40.4287L61.4189 25.4307L60.5264 23.6172L59.627 25.4268ZM35.4512 4.87012L46.8037 38.2021L46.9902 38.749L47.5566 38.8613C48.0229 38.9534 48.483 39.0759 48.9326 39.2295L49.7607 39.5127L50.1514 38.7285L60.5352 17.834L70.8955 38.8623L71.2979 39.6787L72.1484 39.3545C72.5784 39.1906 73.019 39.055 73.4668 38.9482L74.0039 38.8203L74.1816 38.2979L85.5723 4.87012L86.0234 3.54688H35.001L35.4512 4.87012Z" stroke="#42CEB5" stroke-width="2"/>
</svg>
