<svg width="100" height="91" viewBox="0 0 100 91" fill="none" xmlns="http://www.w3.org/2000/svg">
<path d="M25.3877 1.0332C26.4571 0.998315 27.7548 0.987199 29.0225 1.0166H29.0283C31.1524 1.05402 32.3611 1.09906 33.3672 1.21582C34.3565 1.33067 35.1694 1.51786 36.5049 1.86621V1.86523C40.1505 2.8577 42.6953 3.888 46.4482 5.94238L46.4561 5.94629L49.4648 7.55957L49.9746 7.83301L50.4658 7.52734L51.3779 6.95898L51.377 6.95801C55.053 4.69656 59.489 2.81125 63.6309 1.73145L63.6299 1.73047C64.9113 1.39794 65.6456 1.23318 66.6396 1.14551C67.6632 1.05525 68.9735 1.04652 71.4014 1.06152H71.4082C75.9221 1.06153 76.7796 1.15343 78.3809 1.58984V1.59082C89.1017 4.6578 96.016 13.0039 98.0605 25.5215L98.1543 26.1211C98.3835 27.659 98.7019 29.5444 98.8701 30.3271V30.3281C99.0712 31.3794 99.0416 33.4846 98.7666 36.2002C98.4957 38.8749 97.9994 42.0294 97.3271 45.1152L97.3262 45.1162C95.5066 53.4948 91.174 62.706 85.7969 69.5781L85.7852 69.5938C85.5571 69.8975 85.3258 70.2141 85.1416 70.4844C85.0501 70.6186 84.9634 70.7509 84.8926 70.8701C84.8466 70.9476 84.7709 71.08 84.7158 71.2266C84.7128 71.2317 84.7093 71.2388 84.7041 71.2471C84.6761 71.2915 84.6297 71.3598 84.5596 71.4531C84.42 71.6389 84.2186 71.885 83.9639 72.1816C83.4562 72.7728 82.7679 73.5257 82.0078 74.3252C80.4816 75.9303 78.7124 77.6739 77.5879 78.6328C73.3534 82.2411 66.9442 86.1036 62.3105 87.8047C54.7508 90.5802 46.2311 90.7381 38.6523 88.1982L38.6504 88.1973L37.9355 87.9502C30.509 85.2844 21.8044 79.2533 16.7168 73.209C9.23039 64.286 3.94968 53.613 2.07617 43.665V43.6641L1.86328 42.4736C0.857412 36.5172 0.735683 30.4902 1.4707 26.1475C2.45241 20.596 4.03524 16.2218 6.43164 12.54L6.43359 12.5371C10.2864 6.56438 16.0629 2.66907 23.2227 1.17969C23.5086 1.12796 24.2916 1.06897 25.3877 1.0332ZM73.0078 7.99121C71.5618 7.861 70.0823 7.8156 69.1377 7.9248L69.123 7.92676C67.2524 8.16984 64.5621 8.79588 62.7197 9.375L61.9756 9.62305C47.8613 14.832 35.2578 30.0016 31.4004 46.2461C28.9304 56.5812 29.383 64.3932 33.0879 72.335L33.0898 72.3389C34.0155 74.2977 34.6951 75.2381 36.6035 77.208L36.6045 77.209C38.4279 79.0835 40.1877 80.4287 42.1797 81.333C44.1717 82.2373 46.3355 82.6736 48.9287 82.8125H48.9395C52.5516 82.9679 55.1674 82.4962 58.1328 81.0371C60.7977 79.7321 63.1557 77.811 64.8496 75.4912C69.5362 69.119 71.0795 58.9937 69.0752 49.0293L69.0742 49.0273L68.7412 47.4521C68.4134 45.9663 68.1035 44.7513 67.8252 43.8574C67.6429 43.2719 67.4583 42.7725 67.2715 42.4189C67.1856 42.2564 67.0526 42.0322 66.8555 41.8564C66.7525 41.7647 66.5756 41.634 66.3252 41.5771C66.0412 41.5127 65.7485 41.5633 65.5039 41.7129V41.7139C65.3989 41.7727 65.2763 41.8481 65.1777 41.9121C65.0197 42.0147 64.8175 42.1492 64.5889 42.3027C64.0714 42.6504 63.607 42.9678 62.9512 43.4082L62.9424 43.4141C60.6229 45.0053 57.9695 46.7542 55.8613 48.1045C54.8069 48.7798 53.894 49.3529 53.2295 49.7549C52.8958 49.9567 52.6326 50.1106 52.4492 50.2119C52.4354 50.2196 52.4216 50.2257 52.4092 50.2324C52.359 50.2132 52.3041 50.1797 52.2334 50.1211C52.0348 49.9566 51.7622 49.6345 51.3359 48.9893L51.3291 48.9785C50.8349 48.2497 50.067 47.0916 49.6143 46.4434L49.6123 46.4404L49.4727 46.2305C49.1615 45.7347 48.9476 45.1935 48.8525 44.7246C48.7983 44.4574 48.789 44.2436 48.8047 44.0938C48.8138 44.0067 48.8287 43.9606 48.8359 43.9424C48.85 43.9291 48.8749 43.907 48.9121 43.876C48.981 43.8186 49.0721 43.7485 49.1807 43.6719C49.3998 43.5173 49.6605 43.3549 49.9033 43.2295C50.2915 43.0337 51.6227 42.2124 53.3848 41.1045C55.2109 39.9563 57.5796 38.4499 60.0547 36.8662L60.0557 36.8652C62.5275 35.2761 64.8321 33.8114 66.5566 32.7314C67.4194 32.1911 68.1345 31.7489 68.6514 31.4365C68.9102 31.2801 69.1143 31.1588 69.2607 31.0752C69.3346 31.0331 69.3881 31.0036 69.4229 30.9854C69.4291 30.9821 69.4343 30.9796 69.4385 30.9775C69.5851 30.9197 69.6413 30.9272 69.6455 30.9277C69.6487 30.9281 69.6556 30.9288 69.6699 30.9355C69.6864 30.9433 69.7191 30.9623 69.7686 31.0039C70.0098 31.2072 70.3598 31.7041 70.8818 32.7969L70.8857 32.8057L70.8906 32.8145C71.4503 33.9265 72.277 35.8518 72.7617 37.1025C73.0122 37.749 73.2595 38.348 73.4551 38.7979C73.5524 39.0218 73.6394 39.2146 73.709 39.3604C73.7432 39.432 73.7771 39.5009 73.8086 39.5596C73.824 39.5882 73.8439 39.6241 73.8662 39.6602C73.8737 39.6723 73.908 39.7235 73.959 39.7861C73.9668 39.8019 73.977 39.8238 73.9893 39.8516C74.0407 39.968 74.1094 40.1468 74.1924 40.3887C74.3569 40.868 74.5569 41.5299 74.7686 42.2949C75.0857 43.4414 75.4212 44.791 75.6982 46.0557L75.9531 47.2822C77.1625 53.5249 77.3012 59.4237 76.4395 64.9111C76.3294 65.5849 76.2403 66.2054 76.1855 66.6709C76.1585 66.9011 76.1381 67.1075 76.1289 67.2686C76.1245 67.3457 76.1215 67.4361 76.125 67.5225C76.1267 67.563 76.1307 67.6326 76.1455 67.7119C76.153 67.7517 76.1678 67.8175 76.1963 67.8936C76.2204 67.9579 76.2814 68.1051 76.4189 68.2471L76.4355 68.2637L76.4531 68.2803C76.8955 68.6952 77.4125 68.5246 77.5 68.4932C77.6446 68.4411 77.7499 68.3666 77.792 68.3359C77.8912 68.2637 77.9808 68.1776 78.0449 68.1133C78.1848 67.9728 78.3566 67.7777 78.542 67.5576C78.9186 67.1105 79.414 66.4833 79.9492 65.7803C81.0192 64.3748 82.2841 62.6201 83.1279 61.3135L83.1299 61.3096C87.5768 54.3651 90.2922 47.1773 91.4092 39.291L91.5117 38.5254C93.392 23.7562 87.9001 11.6269 77.0557 8.64062C75.9953 8.34875 74.4624 8.1222 73.0078 7.99121ZM33.0059 8.33887C29.0565 7.66157 24.7719 7.84582 21.5859 8.93945L21.2705 9.05273C17.645 10.3586 13.6159 13.769 11.6465 17.2227C10.1559 19.7607 8.63561 24.7387 8.14648 28.4561V28.459C6.79401 38.9527 10.3372 52.0945 17.1182 62.1328V62.1338C17.8679 63.2525 19.0093 64.786 19.9873 66.0381C20.4771 66.6651 20.9338 67.2313 21.2861 67.6465C21.4608 67.8523 21.6194 68.0326 21.748 68.167C21.8105 68.2322 21.8808 68.3025 21.9512 68.3633C21.9853 68.3927 22.0377 68.4356 22.1016 68.4775C22.1308 68.4968 22.3034 68.6154 22.5518 68.6475L22.6152 68.6553H22.6797C23.0459 68.6553 23.3212 68.4671 23.4775 68.2715C23.6084 68.1077 23.6577 67.9437 23.6768 67.8691C23.7165 67.7135 23.7161 67.5716 23.7148 67.5059C23.7119 67.3489 23.6884 67.1695 23.6621 67.0059C23.6346 66.8344 23.5959 66.6359 23.5498 66.4199L23.3906 65.7295C23.1071 64.5417 23.0002 62.9068 23.0293 57.5801V57.5752C23.0293 51.3397 23.087 50.7147 23.7188 47.5557L23.7178 47.5547C24.1131 45.6854 24.4527 44.2227 24.7314 43.1738C24.8713 42.6474 24.9931 42.2374 25.0957 41.9385C25.2081 41.6112 25.2689 41.5046 25.2656 41.5088L25.2627 41.5068C25.3264 41.4172 25.3762 41.3302 25.3994 41.2852C25.4374 41.2114 25.477 41.127 25.5166 41.0391C25.5963 40.8618 25.6902 40.6358 25.792 40.3828C25.9962 39.8749 26.2431 39.2258 26.4844 38.5615L26.4863 38.5557C28.3919 33.2124 31.2975 27.7097 34.7031 22.9434L34.7041 22.9443C35.663 21.6148 36.6628 20.1846 36.9219 19.75C36.9234 19.7476 36.9288 19.7384 36.9404 19.7217C36.9554 19.7001 36.9768 19.6718 37.0039 19.6357C37.0583 19.5633 37.1309 19.4704 37.2217 19.3584C37.4031 19.1346 37.6439 18.8486 37.9297 18.5195C38.5007 17.8622 39.2367 17.0474 40.002 16.2354L40.0049 16.2324L42.7979 13.2451L43.7344 12.2422L42.4932 11.6572L41.0029 10.9561L40.9932 10.9512L40.9824 10.9463C38.4554 9.82404 35.9556 8.94449 33.8252 8.49219L33.8184 8.49121L33.0059 8.33887Z" stroke="#42CEB5" stroke-width="2"/>
</svg>
