<svg width="102" height="102" viewBox="0 0 102 102" fill="none" xmlns="http://www.w3.org/2000/svg">
<path d="M87.3433 47.3433C90.4675 44.2191 95.5326 44.2191 98.6568 47.3433C101.781 50.4675 101.781 55.5326 98.6568 58.6568L58.6568 98.6568C55.5326 101.781 50.4675 101.781 47.3433 98.6568C44.2191 95.5326 44.2191 90.4675 47.3433 87.3433L87.3433 47.3433ZM79.3433 3.34315C82.4675 0.218949 87.5326 0.218949 90.6568 3.34315C93.781 6.46735 93.781 11.5325 90.6568 14.6567L14.6567 90.6568C11.5325 93.781 6.46735 93.781 3.34315 90.6568C0.218949 87.5326 0.218949 82.4675 3.34315 79.3433L79.3433 3.34315Z" stroke="#42CEB5" stroke-width="2" stroke-linecap="round" stroke-linejoin="round"/>
</svg>
