<svg width="100" height="100" viewBox="0 0 100 100" fill="none" xmlns="http://www.w3.org/2000/svg">
<path d="M50 2C77.0602 2 99 23.9398 99 51C99 71.8212 85.9894 89.5608 67.667 96.6543V85.6377C67.667 82.9124 66.7744 79.8094 65.3066 77.0879C64.3011 75.2236 62.9946 73.4827 61.459 72.1484C68.6241 71.0531 74.1224 68.6462 77.9404 65.1777C82.2296 61.2812 84.3125 56.1236 84.3125 50.25C84.3125 45.2984 82.2827 40.5585 78.8877 36.5615C79.4424 34.5678 80.0225 31.7686 80.1455 29.042C80.2127 27.5524 80.1463 26.0483 79.8477 24.6934C79.5501 23.3435 79.0054 22.0695 78.0605 21.126L77.7676 20.833H77.3545C70.1973 20.833 65.605 25.0069 63.9229 26.8535C60.2504 25.6642 56.2466 25 52.0625 25C47.886 25 43.8979 25.664 40.2354 26.8457C38.549 24.9992 33.9599 20.833 26.8125 20.833H26.3975L26.1045 21.127C25.1639 22.069 24.6217 23.3398 24.3242 24.6855C24.0256 26.0366 23.9574 27.5359 24.0225 29.0215C24.1415 31.741 24.7143 34.5344 25.2627 36.5293C21.8467 40.5348 19.8037 45.2884 19.8037 50.25C19.8037 56.128 21.8907 61.289 26.1865 65.1865C30.0105 68.656 35.5171 71.0623 42.6934 72.1543C40.7274 73.8653 39.1442 76.2499 38.0762 78.7568C35.7692 79.0787 33.3811 79.1709 31.7373 79.1709C29.8989 79.1709 28.9376 79.0172 28.2119 78.6543C27.4885 78.2924 26.8752 77.662 25.8828 76.3604L25.8809 76.3584L25.4902 75.8613C23.5221 73.4201 21.3425 71.6687 18.6719 70.9131L18.5898 70.8896L18.5049 70.8809L18.3311 70.8672C17.4611 70.8216 16.5469 71.1155 16.0518 71.8418C15.7701 72.255 15.6628 72.7717 15.8027 73.2979C15.9364 73.8002 16.2683 74.2156 16.6826 74.541L16.7041 74.5576L16.7266 74.5732C18.5371 75.841 19.5276 77.5185 20.2734 79.3252C20.6516 80.2414 20.9534 81.1545 21.2822 82.0859C21.5635 82.8826 21.8636 83.6898 22.2354 84.4375L22.3994 84.7539C24.0916 87.8896 27.5277 89.4834 31.2168 89.4834H36.5V97.0293C36.5 97.3951 36.5206 97.7394 36.5566 98.0654C16.0376 92.2161 1 73.3901 1 51C1 23.9398 22.9398 2 50 2Z" stroke="#42CEB5" stroke-width="2"/>
</svg>
