<svg width="100" height="100" viewBox="0 0 100 100" fill="none" xmlns="http://www.w3.org/2000/svg">
<path fill-rule="evenodd" clip-rule="evenodd" d="M10 2H90V98H10V2ZM8 0H10H90H92V2V98V100H90H10H8V98V2V0ZM50.4105 83.0165V65.245H54.682V83.0165C54.6702 84.2118 54.4417 85.3134 53.9964 86.3212C53.5628 87.3173 52.9593 88.1786 52.1859 88.9052C51.4242 89.6317 50.5218 90.1942 49.4788 90.5927C48.4476 90.9911 47.3285 91.1903 46.1214 91.1903C44.8792 91.1903 43.7425 91.0204 42.7113 90.6805C41.6917 90.329 40.8128 89.8251 40.0745 89.1688C39.3363 88.5126 38.7503 87.6981 38.3167 86.7255C37.8949 85.7528 37.6605 84.6337 37.6136 83.368H41.8675C41.8792 84.0243 41.973 84.6161 42.1488 85.1434C42.3245 85.6591 42.5706 86.0985 42.887 86.4618C43.2503 86.8837 43.7015 87.2001 44.2406 87.411C44.7796 87.6219 45.4066 87.7274 46.1214 87.7274C46.7777 87.7274 47.3695 87.6044 47.8968 87.3583C48.4242 87.1122 48.8753 86.7782 49.2503 86.3563C49.6136 85.9344 49.8949 85.4364 50.0941 84.8622C50.305 84.2762 50.4105 83.661 50.4105 83.0165ZM72.9632 85.7411C73.2093 85.3075 73.3324 84.8094 73.3324 84.2469C73.3324 83.6493 73.2093 83.1219 72.9632 82.6649C72.7171 82.2079 72.3714 81.7977 71.9261 81.4344C71.4574 81.0946 70.9007 80.7899 70.2562 80.5204C69.6234 80.2391 68.9144 79.9872 68.1292 79.7645C66.9222 79.4247 65.8089 79.0087 64.7894 78.5165C63.7816 78.0126 62.9202 77.4501 62.2054 76.829C61.4906 76.1962 60.9281 75.4813 60.5179 74.6844C60.1195 73.8759 59.9202 72.9677 59.9202 71.9598C59.9202 70.87 60.1546 69.8915 60.6234 69.0243C61.0921 68.1454 61.7249 67.3954 62.5218 66.7743C63.3187 66.1649 64.2445 65.702 65.2992 65.3856C66.3656 65.0575 67.4847 64.8934 68.6566 64.8934C69.8988 64.8934 71.0531 65.0868 72.1195 65.4735C73.1976 65.8485 74.1351 66.3759 74.932 67.0555C75.7288 67.7469 76.3558 68.5731 76.8128 69.5341C77.2816 70.4833 77.516 71.538 77.516 72.6981H73.3324C73.2738 72.0536 73.1331 71.4677 72.9105 70.9403C72.6995 70.4012 72.4007 69.9384 72.014 69.5516C71.6156 69.1766 71.1292 68.8837 70.555 68.6727C69.9925 68.4501 69.3421 68.3387 68.6038 68.3387C67.9593 68.3387 67.3617 68.4266 66.8109 68.6024C66.2718 68.7665 65.8031 69.0009 65.4046 69.3055C65.0062 69.6219 64.6956 70.0028 64.473 70.4481C64.2503 70.8934 64.139 71.3915 64.139 71.9423C64.1507 72.5282 64.3031 73.0438 64.596 73.4891C64.889 73.9227 65.2816 74.3036 65.7738 74.6317C66.2777 74.9598 66.8519 75.2469 67.4964 75.493C68.1527 75.7391 68.8382 75.9677 69.5531 76.1786C70.4554 76.4364 71.3343 76.7587 72.1898 77.1454C73.057 77.5204 73.8538 77.9774 74.5804 78.5165C75.4827 79.1962 76.2035 80.0106 76.7425 80.9598C77.2933 81.8973 77.5687 82.9813 77.5687 84.2118C77.5687 85.3485 77.3285 86.3505 76.848 87.2177C76.3792 88.0848 75.7464 88.8055 74.9495 89.3798C74.141 89.9774 73.2035 90.4286 72.137 90.7333C71.0706 91.0262 69.9456 91.1727 68.762 91.1727C67.5081 91.1727 66.2718 90.9794 65.0531 90.5927C63.8343 90.1942 62.7738 89.62 61.8714 88.87C61.0394 88.1669 60.3773 87.3407 59.8851 86.3915C59.4046 85.4423 59.1585 84.3524 59.1468 83.1219H63.3656C63.4242 83.9071 63.5882 84.5927 63.8577 85.1786C64.139 85.7528 64.5199 86.2274 65.0003 86.6024C65.4691 86.9891 66.0199 87.2762 66.6527 87.4637C67.2972 87.6512 68.0003 87.745 68.762 87.745C69.4066 87.745 70.0042 87.6688 70.555 87.5165C71.1175 87.3641 71.6038 87.1356 72.014 86.8309C72.4124 86.538 72.7288 86.1747 72.9632 85.7411Z" fill="#42CEB5"/>
</svg>
