<svg width="101" height="98" viewBox="0 0 101 98" fill="none" xmlns="http://www.w3.org/2000/svg">
<path d="M25.5508 77.4111L24.0654 78.9736L26.2178 79.0986L36.0068 79.6631L36.4639 79.6895L36.7822 79.3613L88.9668 25.5615V75.4111L83.2529 80.7822L81.5615 82.3721L83.8789 82.5088L98.2529 83.3584V95.9463L53.7109 92.1729L76.4287 70.0625L76.7314 69.7676V55.21L75.0264 56.9062L40.6816 91.0723L2.11426 87.8057L66.8369 17.3613L68.5088 15.541L66.041 15.6865L55.0742 16.334L54.665 16.3584L54.3906 16.6631L8.39941 67.7041V25.6582L12.6592 20.5283L14.1318 18.7549L11.8311 18.8916L1.84863 19.4805V9.35547L37.1943 6.3623L17.5176 29.3213L17.2764 29.6016V43.1367L19.0293 41.1279L50.3496 5.24902L97.958 1.21777L25.5508 77.4111Z" stroke="#42CEB5" stroke-width="2"/>
</svg>
