<svg width="100" height="100" viewBox="0 0 100 100" fill="none" xmlns="http://www.w3.org/2000/svg">
<path d="M99 1V99H1V1H99Z" stroke="#42CEB5" stroke-width="2"/>
<path d="M71.042 37.4219C71.374 37.4232 72.5087 37.4812 73.6094 37.5586C76.6397 37.8117 78.6097 38.5398 80.5166 40.0625L80.5195 40.0654C81.2297 40.628 82.1702 41.6141 82.9121 42.5244C83.2195 42.9016 83.4748 43.2468 83.6582 43.5234C83.5326 43.6123 83.3917 43.7152 83.2344 43.8242C82.6284 44.2441 81.8278 44.7864 81.0166 45.3262C80.2054 45.866 79.3887 46.4004 78.752 46.8066C78.4676 46.9881 78.2216 47.1392 78.0312 47.2549C76.9921 46.0129 76.1717 45.1468 75.3027 44.5928C74.3682 43.997 73.4506 43.8045 72.3281 43.7363H72.3291C71.5517 43.6867 70.8818 43.7016 70.2471 43.8447C69.5976 43.9913 69.0434 44.2588 68.4766 44.6367C67.1139 45.5452 66.5 46.9382 66.5 48.6562V48.6641C66.5089 49.87 66.7507 50.9036 67.5244 51.8389C68.2487 52.7143 69.3693 53.4123 70.8848 54.1621L70.8867 54.1631C71.8586 54.6412 72.7635 55.0773 73.4434 55.3955C73.7821 55.554 74.0711 55.6865 74.2871 55.7803C74.3938 55.8266 74.4931 55.8682 74.5752 55.8994C74.615 55.9146 74.6633 55.9321 74.7129 55.9473C74.7162 55.9483 74.7522 55.9594 74.8076 55.9717C74.8267 55.9794 74.853 55.9909 74.8877 56.0059C75.0024 56.0553 75.1671 56.1306 75.373 56.2275C75.7828 56.4203 76.3281 56.6855 76.9033 56.9727C78.0669 57.5535 79.2983 58.1934 79.7842 58.4834L79.791 58.4873C82.1547 59.8737 83.7349 61.2318 84.792 62.79C85.7779 64.2435 86.3557 65.9409 86.627 68.1396L86.6768 68.5859C87.0266 72.1515 86.0144 75.3338 83.8994 77.5615L83.8984 77.5625C82.1498 79.4115 80.2818 80.4605 77.0039 81.3477H77.002C76.2766 81.5462 75.9152 81.6316 75.3447 81.6768C74.7306 81.7254 73.8822 81.7266 72.1924 81.7188C70.5006 81.7108 69.6454 81.7062 69.0049 81.6553C68.4049 81.6075 67.9984 81.5197 67.2041 81.3135L67.2012 81.3125C63.1791 80.2807 59.993 78.2796 57.8369 75.4971L57.8359 75.4951C57.5392 75.1135 57.1273 74.4993 56.7852 73.9443C56.7174 73.8344 56.6539 73.7285 56.5957 73.6299C56.7987 73.5099 57.0061 73.3835 57.1494 73.2988C57.5096 73.086 58.101 72.7307 58.4912 72.5283C58.9481 72.2914 60.1989 71.5533 61.251 70.9189C61.7666 70.6081 62.2566 70.3288 62.6279 70.1289C63.1654 70.9633 63.9502 71.8441 64.7754 72.6016C65.672 73.4246 66.6967 74.1803 67.6094 74.5859L67.623 74.5918C68.1877 74.8325 69.0277 75.0635 69.8242 75.2324C70.6174 75.4006 71.48 75.5312 72.0938 75.5312C72.6737 75.5312 73.4229 75.4103 74.1152 75.249C74.8132 75.0864 75.544 74.8612 76.0879 74.6123L76.0898 74.6113C76.6406 74.3578 77.1019 74.0831 77.5176 73.7178C77.9312 73.3542 78.2617 72.9348 78.5869 72.4385L78.5908 72.4326L78.5947 72.4258C78.8051 72.094 79.0027 71.765 79.1035 71.3066C79.1707 71.0013 79.1889 70.6632 79.1904 70.2656L79.1875 69.8467C79.1873 69.2922 79.1729 68.8496 79.0986 68.4648C79.015 68.0318 78.8648 67.7125 78.668 67.3877L78.667 67.3867L78.4609 67.0674C77.398 65.5208 75.7894 64.643 71.3408 62.6787C66.6972 60.6197 64.5683 59.3893 62.9395 57.8984L62.6201 57.5957C61.9499 56.941 61.5989 56.5727 61.3115 56.1846C61.0246 55.7971 60.7792 55.3611 60.3584 54.543L60.3564 54.54L60.0039 53.8359C59.6985 53.1976 59.5267 52.7305 59.418 52.2129C59.2677 51.4972 59.2266 50.6357 59.2188 49.0576V49.0557L59.2158 48.2949C59.2184 46.6863 59.2808 46.1931 59.4385 45.6885L59.5811 45.2607C59.7469 44.808 59.9933 44.2401 60.2617 43.6904C60.4376 43.3304 60.6152 42.9945 60.7734 42.7217C60.942 42.431 61.0579 42.2669 61.1084 42.21L61.1201 42.1963C62.0998 41.0482 62.4164 40.7364 63.0566 40.21L63.0576 40.209C64.9814 38.6248 68.061 37.5299 71.042 37.4219ZM21.623 37.9844C23.8622 37.9533 29.6348 37.9531 34.4463 37.9844C39.261 38.0156 45.3573 38.0312 48.0156 38.0312H51.8125V44.3125H38.8438V81.2979C38.6696 81.3052 38.4598 81.3148 38.2207 81.3203C37.5661 81.3354 36.7176 81.3428 35.8389 81.3418C34.0543 81.3398 32.2378 81.3038 31.6367 81.2402L31.6191 81.2383L31.4688 81.2246V44.3125H18.5V38.0195L21.6211 37.9844H21.623Z" stroke="#42CEB5" stroke-width="2"/>
</svg>
