<svg width="100" height="100" viewBox="0 0 100 100" fill="none" xmlns="http://www.w3.org/2000/svg">
<path d="M48.9429 21.0195C58.0806 20.7292 63.7285 23.7768 67.8804 27.2793C69.9836 29.0536 71.6975 30.9386 73.3345 32.6455C74.9354 34.3147 76.5109 35.8678 78.2476 36.7588C83.0147 39.2045 87.4085 39.4221 91.27 38.0957C93.6368 37.2827 95.7622 35.9024 97.6323 34.165C96.9206 35.8748 95.9568 37.736 94.7114 39.5352C92.2552 43.0834 88.7556 46.3261 84.0229 47.7666C71.856 51.4696 62.6096 46.9088 58.0073 43.457C57.0986 42.7754 56.0183 41.6961 54.7144 40.3809C53.4334 39.0889 51.9712 37.607 50.3608 36.2158C47.1613 33.4517 43.2099 30.8936 38.6167 30.8936C33.5863 30.8936 29.6379 33.3728 27.0376 35.8359C27.9418 33.3683 29.3521 30.6955 31.4966 28.3125C34.9644 24.459 40.4099 21.2907 48.9429 21.0195Z" stroke="#42CEB5" stroke-width="2"/>
<path d="M24.0518 50.9214C33.1895 50.6311 38.8374 53.6787 42.9893 57.1812C45.0925 58.9555 46.8064 60.8405 48.4434 62.5474C50.0443 64.2167 51.6198 65.7697 53.3564 66.6607C58.1235 69.1064 62.5174 69.324 66.3789 67.9976C68.7457 67.1846 70.871 65.8043 72.7412 64.067C72.0295 65.7767 71.0657 67.6379 69.8203 69.4371C67.3641 72.9854 63.8644 76.228 59.1318 77.6685C46.9649 81.3715 37.7185 76.8107 33.1162 73.3589C32.2074 72.6773 31.1272 71.598 29.8232 70.2828C28.5423 68.9908 27.0801 67.509 25.4697 66.1177C22.2702 63.3536 18.3188 60.7955 13.7256 60.7955C8.69517 60.7955 4.74681 63.2747 2.14648 65.7379C3.05064 63.2702 4.46099 60.5974 6.60547 58.2144C10.0733 54.3609 15.5188 51.1927 24.0518 50.9214Z" stroke="#42CEB5" stroke-width="2"/>
</svg>
