<svg width="100" height="100" viewBox="0 0 100 100" fill="none" xmlns="http://www.w3.org/2000/svg">
<path d="M49.4573 80.2341C49.1184 80.2341 48.8019 80.1437 48.508 79.9855L45.5018 78.1999C45.0496 77.9511 45.2757 77.8607 45.4114 77.8156C46.0216 77.6122 46.1346 77.5668 46.7675 77.2054C46.8354 77.16 46.926 77.1827 46.9936 77.2278L49.2993 78.6067C49.3896 78.6518 49.5027 78.6518 49.5704 78.6067L58.5894 73.3851C58.6798 73.34 58.7251 73.2494 58.7251 73.1366V62.7162C58.7251 62.603 58.6798 62.5128 58.5894 62.4674L49.5704 57.2686C49.48 57.2232 49.367 57.2232 49.2993 57.2686L40.2802 62.4674C40.1899 62.5126 40.1445 62.6257 40.1445 62.716V73.1364C40.1445 73.2269 40.1899 73.3398 40.2802 73.3851L42.7441 74.8091C44.0778 75.4872 44.914 74.6961 44.914 73.905V63.6202C44.914 63.4846 45.0271 63.3489 45.1853 63.3489H46.338C46.4738 63.3489 46.6093 63.4619 46.6093 63.6202V73.905C46.6093 75.6906 45.6373 76.7305 43.942 76.7305C43.4222 76.7305 43.0154 76.7305 41.8625 76.1653L39.4891 74.8091C38.9014 74.4702 38.5398 73.8371 38.5398 73.1591V62.7387C38.5398 62.0606 38.9014 61.4275 39.4891 61.0886L48.508 55.8671C49.0732 55.5506 49.8418 55.5506 50.4068 55.8671L59.4257 61.0886C60.0134 61.4275 60.3752 62.0606 60.3752 62.7387V73.1591C60.3752 73.8371 60.0134 74.4702 59.4257 74.8091L50.4068 80.0307C50.1129 80.1664 49.7739 80.2341 49.4575 80.2341H49.4573ZM52.2376 73.0687C48.2821 73.0687 47.4683 71.2604 47.4683 69.7233C47.4683 69.5876 47.5813 69.4521 47.7396 69.4521H48.915C49.0505 69.4521 49.1636 69.5424 49.1636 69.6782C49.3445 70.8761 49.8643 71.4638 52.2603 71.4638C54.159 71.4638 54.973 71.0343 54.973 70.0171C54.973 69.4294 54.7467 69.0001 51.7857 68.7062C49.3218 68.4574 47.7847 67.915 47.7847 65.9485C47.7847 64.1175 49.322 63.0325 51.8987 63.0325C54.7919 63.0325 56.2161 64.0272 56.397 66.1969C56.397 66.265 56.3743 66.3326 56.3291 66.4005C56.2837 66.4457 56.2161 66.4908 56.1482 66.4908H54.9728C54.8597 66.4908 54.7467 66.4005 54.7242 66.2874C54.4529 65.0444 53.7522 64.6374 51.8987 64.6374C49.8191 64.6374 49.5704 65.3608 49.5704 65.9031C49.5704 66.5587 49.8643 66.7621 52.6671 67.1237C55.4474 67.4856 56.7586 68.0054 56.7586 69.9492C56.7359 71.9385 55.1085 73.0687 52.2376 73.0687Z" fill="#42CEB5"/>
<path d="M72.7725 23.1289C72.8138 23.1538 72.8477 23.2018 72.8477 23.2725V50.8262C72.8477 50.8441 72.8423 50.8674 72.8281 50.8916C72.8139 50.9158 72.7931 50.9359 72.7695 50.9492L72.7588 50.9551L63.1777 56.4912C63.1535 56.5044 63.1262 56.5117 63.0986 56.5117C63.0844 56.5117 63.0703 56.5095 63.0566 56.5059L63.0176 56.4902L53.4385 50.9551L53.4287 50.9492L53.3965 50.9248C53.3865 50.915 53.3774 50.9039 53.3701 50.8916C53.3558 50.8672 53.3506 50.844 53.3506 50.8262V39.7734C53.3506 39.7557 53.3558 39.7323 53.3701 39.708C53.3772 39.6959 53.3857 39.6845 53.3955 39.6748L53.4287 39.6504L53.4385 39.6445L63.0176 34.1094C63.0423 34.0954 63.0702 34.088 63.0986 34.0879C63.1265 34.0879 63.1543 34.095 63.1787 34.1084L65.5723 35.4863L65.5986 35.501L65.625 35.5137C66.0418 35.7218 66.508 35.7218 66.9248 35.5137L66.9814 35.4863L67.0332 35.4512C67.4369 35.1818 67.6816 34.7395 67.6816 34.2578V20.291L72.7725 23.1289ZM89.3418 33.9521C89.3562 33.9521 89.371 33.9543 89.3848 33.958L89.4238 33.9746L98.9219 39.4785C98.9385 39.4888 98.9603 39.5091 98.9775 39.5391C98.9948 39.5692 99 39.597 99 39.6152V42.3047C99 42.3423 98.9904 42.372 98.9795 42.3916C98.9695 42.4095 98.9577 42.4202 98.9443 42.4277L99.4346 43.2998L98.9307 42.4355L93.8574 45.3945V43.4121C93.8572 42.8131 93.5201 42.3344 93.0928 42.0674L93.0762 42.0566L93.0596 42.0469L90.0527 40.3291C89.8138 40.1878 89.5409 40.1123 89.2627 40.1123C89.007 40.1124 88.7558 40.1758 88.5312 40.2959L88.4727 40.3291L85.4668 42.0469C84.9422 42.3339 84.6691 42.8897 84.6689 43.4121V46.8711C84.669 47.4697 85.0058 47.9496 85.4336 48.2168L85.4482 48.2256L85.4639 48.2354L94.4395 53.3975L89.3418 56.2363L89.3281 56.2441L89.3135 56.2529C89.3035 56.2587 89.2758 56.2689 89.2344 56.2578L89.1885 56.2383L79.6768 50.8164L79.6719 50.8135L79.6387 50.7891C79.6289 50.7794 79.6204 50.7679 79.6133 50.7559C79.5991 50.7317 79.5938 50.7083 79.5938 50.6904V39.6377C79.5938 39.6196 79.5991 39.5964 79.6133 39.5723C79.6275 39.5481 79.6482 39.528 79.6719 39.5146L79.6816 39.5088L89.2598 33.9736L89.2607 33.9746C89.2855 33.9605 89.3133 33.9522 89.3418 33.9521ZM10.7715 33.8252C10.7933 33.8316 10.8037 33.8359 10.8057 33.8369L20.3877 39.3516L20.3955 39.3564C20.4191 39.3697 20.4397 39.3897 20.4541 39.4141C20.4685 39.4385 20.4736 39.4617 20.4736 39.4795V39.4805L20.4941 53.584L15.415 50.6816L15.4092 50.6777L15.376 50.6533C15.3662 50.6436 15.3577 50.6322 15.3506 50.6201C15.3364 50.596 15.3311 50.5734 15.3311 50.5557V43.6162C15.3311 42.8459 14.9089 42.1349 14.2432 41.7559H14.2441L11.8252 40.3545C11.4647 40.1262 11.0718 40.0616 10.7598 40.0615C10.4171 40.0615 10.0322 40.1372 9.66992 40.3555V40.3545L7.25195 41.7559C6.58669 42.1351 6.16602 42.8466 6.16602 43.6162V50.5557C6.16594 50.5733 6.16055 50.5961 6.14648 50.6201C6.13223 50.6443 6.11146 50.6644 6.08789 50.6777L6.08203 50.6816L1.02051 53.5732L1 39.4795C1 39.4614 1.00531 39.4382 1.01953 39.4141C1.03379 39.3899 1.05441 39.3698 1.07812 39.3564L1.08691 39.3516L10.6709 33.8359L10.6699 33.835C10.6842 33.8268 10.6975 33.8212 10.708 33.8164C10.7101 33.8154 10.712 33.8143 10.7139 33.8135C10.7371 33.8177 10.7564 33.8208 10.7715 33.8252ZM63.0986 40.208C62.8959 40.2081 62.6959 40.2549 62.5137 40.3438L62.4814 40.3594L62.4512 40.377L59.1729 42.2754C58.701 42.5393 58.5391 43.0167 58.5391 43.3896V47.1875C58.5391 47.4944 58.6723 48.0183 59.1729 48.2998V48.3008L62.4512 50.2002L62.4814 50.2178L62.5137 50.2334C62.6959 50.3223 62.896 50.3681 63.0986 50.3682C63.3015 50.3682 63.5022 50.3224 63.6846 50.2334L63.7168 50.2178L63.7471 50.2002L67.0244 48.3008L67.0234 48.2998C67.4956 48.036 67.6591 47.5606 67.6592 47.1875V43.3896C67.6592 43.0839 67.5268 42.557 67.0234 42.2754H67.0244L63.7471 40.377L63.7168 40.3594L63.6846 40.3438L63.5449 40.2852C63.4021 40.2345 63.2509 40.208 63.0986 40.208Z" stroke="#42CEB5" stroke-width="2"/>
<path d="M90.9653 44.1372V46.0776L89.3081 47.0376L87.6519 46.0776V44.1372L89.3081 43.1763L90.9653 44.1372Z" stroke="#42CEB5" stroke-width="0.8"/>
<path d="M36.9238 33.9977C36.9522 33.9978 36.9802 34.0051 37.0049 34.0192L46.5029 39.5016C46.5196 39.512 46.5414 39.5322 46.5586 39.5621C46.5758 39.5923 46.5811 39.6193 46.5811 39.6373V50.6451C46.5811 50.6825 46.5715 50.7124 46.5605 50.7321C46.5506 50.7498 46.5395 50.7607 46.5264 50.7682L46.5166 50.774L37.0049 56.2633C36.9801 56.2774 36.9523 56.2847 36.9238 56.2848C36.9094 56.2848 36.8947 56.2836 36.8809 56.2799L36.8418 56.2633L27.3447 50.7819C27.328 50.7717 27.3056 50.7517 27.2881 50.7213C27.2708 50.6911 27.2656 50.6634 27.2656 50.6451V39.6373C27.2656 39.5998 27.2752 39.57 27.2861 39.5504C27.2961 39.5325 27.3079 39.5218 27.3213 39.5143L27.3311 39.5084L36.8418 34.0192C36.8667 34.005 36.8952 33.9977 36.9238 33.9977Z" stroke="#42CEB5" stroke-width="2"/>
</svg>
