<svg width="100" height="64" viewBox="0 0 100 64" fill="none" xmlns="http://www.w3.org/2000/svg">
<path d="M42.8574 1H57.1426C58.7731 1 60.3366 1.64455 61.4883 2.79102C62.6398 3.93742 63.2861 5.492 63.2861 7.11133V42.667C63.286 44.2862 62.6397 45.84 61.4883 46.9863C60.3366 48.1329 58.7732 48.7773 57.1426 48.7773H52.5713V57.8887H59.7139V63H53.5713C51.9409 63 50.3782 62.3552 49.2266 61.209C48.075 60.0626 47.4287 58.508 47.4287 56.8887V48.7773H42.8574C41.2268 48.7773 39.6634 48.1329 38.5117 46.9863C37.3603 45.84 36.714 44.2862 36.7139 42.667V7.11133C36.7139 5.492 37.3602 3.93742 38.5117 2.79102C39.6634 1.64455 41.2269 1 42.8574 1ZM7.14258 1H27.5713V6.11133H6.14258V22.333H21.4287C23.0592 22.333 24.6218 22.9785 25.7734 24.125C26.9249 25.2714 27.5713 26.825 27.5713 28.4443V42.667C27.5712 44.2862 26.9249 45.84 25.7734 46.9863C24.6218 48.1327 23.0592 48.7773 21.4287 48.7773H1V43.667H22.4287V27.4443H7.14258C5.5122 27.4443 3.94943 26.7996 2.79785 25.6533C1.64633 24.5069 1 22.9523 1 21.333V7.11133C1 5.492 1.64633 3.93742 2.79785 2.79102C3.94942 1.64474 5.51222 1.00007 7.14258 1ZM77.5713 1V43.667H99V48.7773H72.4287V1H77.5713ZM41.8574 43.667H58.1426V6.11133H41.8574V43.667Z" stroke="#42CEB5" stroke-width="2"/>
</svg>
