<svg width="100" height="100" viewBox="0 0 100 100" fill="none" xmlns="http://www.w3.org/2000/svg">
<path d="M24.4062 60.6377H1.73242L13.0693 41L24.4062 60.6377ZM49.8867 45.6592C51.6211 45.6592 53.0459 46.2228 54.0283 47.1406C55.0045 48.0527 55.6074 49.3723 55.6074 51.0225C55.6074 51.1025 55.6052 51.182 55.6016 51.2607H45.126L45.6367 52.6133C46.344 54.4869 48.2098 55.5595 50.2402 55.5596C51.4106 55.5596 52.5171 55.2075 53.3877 54.5498L54.3232 55.0898C53.2649 55.9052 51.8474 56.3926 50.2402 56.3926C46.7527 56.3925 44.1662 54.1678 44.166 51.0264C44.166 49.3742 44.769 48.053 45.7451 47.1406C46.7274 46.2225 48.1523 45.6592 49.8867 45.6592ZM74.3633 45.6592C76.221 45.6592 77.7204 46.3048 78.7139 47.3594L77.7656 47.9072C76.9504 46.9981 75.7584 46.4893 74.3633 46.4893C73.0652 46.4893 71.9118 46.9211 71.0811 47.7559C70.251 48.5901 69.8262 49.7429 69.8262 51.0264C69.8262 52.309 70.2494 53.4614 71.0791 54.2959C71.9098 55.1312 73.0637 55.5635 74.3633 55.5635C75.7585 55.5635 76.9504 55.0537 77.7656 54.1445L78.7148 54.6914C77.7228 55.7457 76.2223 56.3926 74.3633 56.3926C72.6269 56.3926 71.2024 55.8291 70.2207 54.9111C69.2452 53.999 68.6427 52.6788 68.6426 51.0264C68.6426 49.3742 69.2455 48.053 70.2217 47.1406C71.204 46.2225 72.6289 45.6592 74.3633 45.6592ZM87.9736 45.6592C89.7081 45.6592 91.1338 46.2227 92.1162 47.1406C93.0922 48.0527 93.6943 49.3725 93.6943 51.0225C93.6943 51.1025 93.6922 51.182 93.6885 51.2607H83.2129L83.7246 52.6133C84.4319 54.487 86.2975 55.5596 88.3281 55.5596C89.4983 55.5595 90.6042 55.2073 91.4746 54.5498L92.4102 55.0898C91.3519 55.9051 89.935 56.3925 88.3281 56.3926C84.8405 56.3926 82.2541 54.1679 82.2539 51.0264C82.2539 49.3742 82.8559 48.053 83.832 47.1406C84.8143 46.2225 86.2393 45.6593 87.9736 45.6592ZM99 41.7686V56.0391H97.8164V41.7686H99ZM60.9131 46.0127V48.2676H62.499C62.3986 48.3497 62.301 48.4366 62.208 48.5283C61.3721 49.3533 60.9132 50.5025 60.9131 51.8037V56.0391H59.7295V46.0127H60.9131ZM29.2402 41.7686L35.0781 51.8799L35.9434 53.3799L36.8096 51.8799L42.6465 41.7686H44.0127L35.9434 55.7461L27.875 41.7686H29.2402ZM49.8828 46.4893C47.7935 46.4894 46.1708 47.6255 45.5869 49.4893L45.1797 50.7881H54.584L54.1807 49.4912C53.6005 47.6245 51.9747 46.4893 49.8828 46.4893ZM87.9736 46.4893C85.8843 46.4894 84.2606 47.6255 83.6768 49.4893L83.2705 50.7881H92.6748L92.2715 49.4912C91.6913 47.6244 90.0655 46.4893 87.9736 46.4893ZM65.582 47.2695C65.5384 47.2682 65.4945 47.2676 65.4502 47.2676C64.5326 47.2676 63.6759 47.4992 62.9561 47.9424C63.0557 47.5529 63.3374 47.1462 63.8525 46.7871C64.3029 46.4732 64.8963 46.2289 65.582 46.1045V47.2695Z" stroke="#42CEB5" stroke-width="2"/>
</svg>
