<svg width="100" height="100" viewBox="0 0 100 100" fill="none" xmlns="http://www.w3.org/2000/svg">
<path d="M1.05371 47.7227C2.31052 20.7091 25.2637 -0.202872 52.2773 1.05371C79.2909 2.31052 100.203 25.2637 98.9463 52.2773C97.6895 79.2909 74.7363 100.203 47.7227 98.9463C20.7091 97.6892 -0.203093 74.7363 1.05371 47.7227ZM53.5342 3.68359C27.97 1.73134 5.63073 20.9017 3.67871 46.4658C2.66794 59.705 7.32314 72.0811 15.5957 81.2041L15.7051 81.3135C16.2449 81.8081 17.0464 81.9111 17.6982 81.5537L17.6992 81.5527C18.3511 81.1946 18.6941 80.4631 18.5664 79.7422L18.5352 79.5986C15.6003 68.0926 17.3124 56.0959 21.5664 45.9697C25.829 35.8232 32.5916 27.6746 39.6104 23.7959C44.8865 20.8802 49.8079 19.8942 54.1289 21.6416C57.63 23.0573 60.3872 24.9391 63.4521 27.0322C66.5097 29.1203 69.8437 31.3957 74.4043 33.4736C78.6929 35.4274 80.9356 37.9651 81.875 40.7129C82.824 43.4889 82.5041 46.6575 81.3018 49.9697C79.0879 56.0683 71.9872 59.4143 64.7617 59.2842L64.0625 59.2607C60.9745 59.1089 57.916 58.5922 55.4023 58.1719C53.5615 57.8639 51.8085 57.3768 50.3672 56.8818H50.3662C49.7149 56.655 48.9906 56.8752 48.5762 57.4277L48.5752 57.4287C48.213 57.9129 48.0577 58.7585 48.6289 59.3926C49.0583 59.8691 49.866 60.5207 50.7412 61.127C51.254 61.4821 51.8202 61.8409 52.3887 62.1602C51.9439 62.7589 51.5711 63.4322 51.2686 64.0723C50.7524 65.1643 50.383 66.277 50.1729 67.0391C49.881 68.0974 49.7222 69.3541 49.6504 70.457C49.5791 71.5525 49.5881 72.5792 49.6641 73.1826C50.1917 77.3689 51.719 81.1979 55.4287 84.5459L55.7949 84.8682C58.5097 87.2055 62.3733 88.8124 66.3613 88.9775L66.748 88.9893C72.2181 89.0866 78.6672 86.8197 83.8223 81.793L84.3291 81.2861L84.3398 81.2744C91.0798 73.8851 95.4958 64.2745 96.3154 53.5391C98.2674 27.9748 79.0984 5.63567 53.5342 3.68359ZM48.2754 22.8857C46.3991 23.0326 44.9494 24.2542 43.9795 25.6084C43.066 26.8839 42.4709 28.4172 42.2803 29.7148L42.248 29.9707C42.1016 31.3206 42.356 33.0902 43.2168 34.5479C44.1088 36.0583 45.6671 37.2381 47.9893 37.1924C50.5597 37.1417 52.3457 35.9869 53.3672 34.2412C54.353 32.5564 54.5694 30.4274 54.3057 28.4355C53.8877 25.2792 51.3997 22.6412 48.2754 22.8857Z" stroke="#42CEB5" stroke-width="2"/>
</svg>
