<svg width="100" height="100" viewBox="0 0 100 100" fill="none" xmlns="http://www.w3.org/2000/svg">
<path d="M33.667 67.6667H49.333V83.3337C49.3328 91.9812 42.3144 98.9996 33.667 98.9998C25.0194 98.9998 18.0002 91.9813 18 83.3337C18 74.686 25.0193 67.6667 33.667 67.6667Z" stroke="#42CEB5" stroke-width="2"/>
<path d="M33.667 34.3333H49.333V65.6663H33.667C25.0194 65.6663 18.0002 58.6478 18 50.0002C18 41.3525 25.0193 34.3333 33.667 34.3333Z" stroke="#42CEB5" stroke-width="2"/>
<path d="M33.667 1H49.333V32.333H33.667C25.0194 32.333 18.0002 25.3146 18 16.667C18 8.01928 25.0193 1 33.667 1Z" stroke="#42CEB5" stroke-width="2"/>
<path d="M67.0005 1C75.6481 1.00018 82.6665 8.01939 82.6665 16.667C82.6663 25.3144 75.6479 32.3328 67.0005 32.333H51.3335V1H67.0005Z" stroke="#42CEB5" stroke-width="2"/>
<path d="M67.0005 34.3333C75.6481 34.3334 82.6665 41.3526 82.6665 50.0002C82.6663 58.6477 75.6479 65.6661 67.0005 65.6663C58.3529 65.6663 51.3337 58.6478 51.3335 50.0002C51.3335 41.3525 58.3528 34.3333 67.0005 34.3333Z" stroke="#42CEB5" stroke-width="2"/>
</svg>
