<svg width="100" height="80" viewBox="0 0 100 80" fill="none" xmlns="http://www.w3.org/2000/svg">
<mask id="path-1-inside-1_612_82" fill="white">
<path d="M79.5322 0L100 21.3711L52.1719 75.0312L48.3174 79.3564L0 21.1729L21.2822 0H79.5322ZM48.4512 71.7148L59.0078 59.8711H38.6162L48.4512 71.7148ZM34.4023 48.1504H55.6562L55.6572 46.4883H70.9355L93.2139 21.4932L88.7139 16.7949L34.4023 48.1504ZM13.8887 30.0938L22.8418 40.876L67.877 14.875L67.0459 13.4336L78.9258 6.57422L77.4043 4.98535H57.3799L13.8887 30.0938ZM6.74609 21.4932L6.88965 21.666L35.7832 4.98535H23.3389L6.74609 21.4932Z"/>
</mask>
<path d="M79.5322 0L80.9766 -1.38336L80.3861 -2H79.5322V0ZM100 21.3711L101.493 22.7018L102.723 21.3223L101.444 19.9877L100 21.3711ZM52.1719 75.0312L50.6789 73.7005L50.6787 73.7006L52.1719 75.0312ZM48.3174 79.3564L46.7787 80.6342L48.2639 82.4226L49.8105 80.6871L48.3174 79.3564ZM0 21.1729L-1.41057 19.755L-2.70649 21.0443L-1.53864 22.4506L0 21.1729ZM21.2822 0V-2H20.4568L19.8717 -1.41785L21.2822 0ZM48.4512 71.7148L46.9125 72.9925L48.3975 74.7809L49.9442 73.0456L48.4512 71.7148ZM59.0078 59.8711L60.5008 61.2019L63.4696 57.8711H59.0078V59.8711ZM38.6162 59.8711V57.8711H34.3558L37.0775 61.1488L38.6162 59.8711ZM34.4023 48.1504L33.4024 46.4183L26.938 50.1504H34.4023V48.1504ZM55.6562 48.1504V50.1504H57.6551L57.6562 48.1516L55.6562 48.1504ZM55.6572 46.4883V44.4883H53.6584L53.6572 46.4871L55.6572 46.4883ZM70.9355 46.4883V48.4883H71.8321L72.4286 47.819L70.9355 46.4883ZM93.2139 21.4932L94.7069 22.8239L95.9365 21.4443L94.6582 20.1098L93.2139 21.4932ZM88.7139 16.7949L90.1582 15.4115L89.0728 14.2783L87.7139 15.0629L88.7139 16.7949ZM13.8887 30.0938L12.8887 28.3617L10.8352 29.5472L12.35 31.3714L13.8887 30.0938ZM22.8418 40.876L21.3031 42.1536L22.3808 43.4515L23.8418 42.608L22.8418 40.876ZM67.877 14.875L68.877 16.6071L70.608 15.6076L69.6096 13.876L67.877 14.875ZM67.0459 13.4336L66.0458 11.7016L64.3149 12.701L65.3133 14.4326L67.0459 13.4336ZM78.9258 6.57422L79.9258 8.30624L82.1331 7.0318L80.3703 5.19097L78.9258 6.57422ZM77.4043 4.98535L78.8488 3.6021L78.2582 2.98535H77.4043V4.98535ZM57.3799 4.98535V2.98535H56.844L56.3799 3.25328L57.3799 4.98535ZM6.74609 21.4932L5.33551 20.0753L4.03956 21.3646L5.20752 22.771L6.74609 21.4932ZM6.88965 21.666L5.35107 22.9438L6.42877 24.2415L7.8896 23.3981L6.88965 21.666ZM35.7832 4.98535L36.7832 6.71743L43.2477 2.98535H35.7832V4.98535ZM23.3389 4.98535V2.98535H22.5134L21.9283 3.56751L23.3389 4.98535ZM79.5322 0L78.0878 1.38336L98.5556 22.7545L100 21.3711L101.444 19.9877L80.9766 -1.38336L79.5322 0ZM100 21.3711L98.507 20.0403L50.6789 73.7005L52.1719 75.0312L53.6649 76.362L101.493 22.7018L100 21.3711ZM52.1719 75.0312L50.6787 73.7006L46.8243 78.0258L48.3174 79.3564L49.8105 80.6871L53.665 76.3619L52.1719 75.0312ZM48.3174 79.3564L49.856 78.0787L1.53864 19.8951L0 21.1729L-1.53864 22.4506L46.7787 80.6342L48.3174 79.3564ZM0 21.1729L1.41057 22.5907L22.6928 1.41785L21.2822 0L19.8717 -1.41785L-1.41057 19.755L0 21.1729ZM21.2822 0V2H79.5322V0V-2H21.2822V0ZM48.4512 71.7148L49.9442 73.0456L60.5008 61.2019L59.0078 59.8711L57.5148 58.5403L46.9582 70.3841L48.4512 71.7148ZM59.0078 59.8711V57.8711H38.6162V59.8711V61.8711H59.0078V59.8711ZM38.6162 59.8711L37.0775 61.1488L46.9125 72.9925L48.4512 71.7148L49.9898 70.4371L40.1549 58.5934L38.6162 59.8711ZM34.4023 48.1504V50.1504H55.6562V48.1504V46.1504H34.4023V48.1504ZM55.6562 48.1504L57.6562 48.1516L57.6572 46.4895L55.6572 46.4883L53.6572 46.4871L53.6562 48.1492L55.6562 48.1504ZM55.6572 46.4883V48.4883H70.9355V46.4883V44.4883H55.6572V46.4883ZM70.9355 46.4883L72.4286 47.819L94.7069 22.8239L93.2139 21.4932L91.7208 20.1624L69.4425 45.1575L70.9355 46.4883ZM93.2139 21.4932L94.6582 20.1098L90.1582 15.4115L88.7139 16.7949L87.2695 18.1783L91.7695 22.8766L93.2139 21.4932ZM88.7139 16.7949L87.7139 15.0629L33.4024 46.4183L34.4023 48.1504L35.4023 49.8825L89.7138 18.527L88.7139 16.7949ZM13.8887 30.0938L12.35 31.3714L21.3031 42.1536L22.8418 40.876L24.3805 39.5983L15.4274 28.8161L13.8887 30.0938ZM22.8418 40.876L23.8418 42.608L68.877 16.6071L67.877 14.875L66.877 13.1429L21.8418 39.1439L22.8418 40.876ZM67.877 14.875L69.6096 13.876L68.7785 12.4346L67.0459 13.4336L65.3133 14.4326L66.1443 15.874L67.877 14.875ZM67.0459 13.4336L68.046 15.1656L79.9258 8.30624L78.9258 6.57422L77.9257 4.8422L66.0458 11.7016L67.0459 13.4336ZM78.9258 6.57422L80.3703 5.19097L78.8488 3.6021L77.4043 4.98535L75.9598 6.3686L77.4813 7.95747L78.9258 6.57422ZM77.4043 4.98535V2.98535H57.3799V4.98535V6.98535H77.4043V4.98535ZM57.3799 4.98535L56.3799 3.25328L12.8887 28.3617L13.8887 30.0938L14.8886 31.8258L58.3798 6.71742L57.3799 4.98535ZM6.74609 21.4932L5.20752 22.771L5.35107 22.9438L6.88965 21.666L8.42823 20.3882L8.28467 20.2154L6.74609 21.4932ZM6.88965 21.666L7.8896 23.3981L36.7832 6.71743L35.7832 4.98535L34.7832 3.25327L5.8897 19.9339L6.88965 21.666ZM35.7832 4.98535V2.98535H23.3389V4.98535V6.98535H35.7832V4.98535ZM23.3389 4.98535L21.9283 3.56751L5.33551 20.0753L6.74609 21.4932L8.15667 22.911L24.7494 6.40319L23.3389 4.98535Z" fill="#42CEB5" mask="url(#path-1-inside-1_612_82)"/>
</svg>
