<svg width="104" height="100" viewBox="0 0 104 100" fill="none" xmlns="http://www.w3.org/2000/svg">
<mask id="path-1-outside-1_604_4" maskUnits="userSpaceOnUse" x="0" y="38" width="104" height="24" fill="black">
<rect fill="white" y="38" width="104" height="24"/>
<path d="M2 59.6676V57.036L10.7902 47.3407H2.27384V44.9307H14.1311V47.5623L5.25868 57.2576H14.3501V59.6676H2Z"/>
<path d="M22.2339 60C20.7734 60 19.6051 59.5106 18.7288 58.5319C17.8708 57.5346 17.4417 56.1588 17.4417 54.4044V44.9307H20.3444V53.6565C20.3444 54.9861 20.5726 55.9649 21.029 56.5928C21.4854 57.2207 22.1791 57.5346 23.1102 57.5346C24.169 57.5346 24.9906 57.193 25.5748 56.5097C26.1772 55.8079 26.4784 54.8292 26.4784 53.5734V44.9307H29.3811V59.6676H26.6701L26.6153 55.8172L27.0261 55.9834C26.7705 57.2761 26.232 58.2733 25.4104 58.9751C24.5889 59.6584 23.5301 60 22.2339 60Z"/>
<path d="M38.8333 60C37.4641 60 36.3048 59.7876 35.3555 59.3629C34.4245 58.9381 33.7033 58.3564 33.1922 57.6177C32.681 56.8606 32.3889 55.9926 32.3159 55.0139L35.3007 54.8753C35.4468 55.6879 35.7937 56.3343 36.3413 56.8144C36.889 57.2946 37.7197 57.5346 38.8333 57.5346C39.7461 57.5346 40.4672 57.3869 40.9966 57.0914C41.526 56.7959 41.7907 56.325 41.7907 55.6787C41.7907 55.3278 41.6994 55.0323 41.5169 54.7922C41.3526 54.5337 41.024 54.3213 40.5311 54.1551C40.0382 53.9705 39.3079 53.795 38.3404 53.6288C36.8981 53.3518 35.7663 53.0286 34.9448 52.6593C34.1232 52.2899 33.539 51.819 33.1922 51.2465C32.8453 50.6741 32.6719 49.9815 32.6719 49.169C32.6719 47.8209 33.1648 46.7221 34.1506 45.8726C35.1547 45.0231 36.5969 44.5983 38.4773 44.5983C39.7369 44.5983 40.7958 44.8199 41.6538 45.2632C42.5118 45.6879 43.1782 46.2696 43.6528 47.0083C44.1457 47.7285 44.4561 48.5411 44.5839 49.446L41.599 49.6122C41.5078 49.0951 41.3252 48.6519 41.0514 48.2825C40.7958 47.8947 40.4489 47.5993 40.0108 47.3961C39.5726 47.1745 39.0523 47.0637 38.4499 47.0637C37.5188 47.0637 36.8251 47.2484 36.3687 47.6177C35.9123 47.9871 35.6841 48.4672 35.6841 49.0582C35.6841 49.5014 35.7845 49.8615 35.9853 50.1385C36.2044 50.4155 36.5513 50.6464 37.0259 50.831C37.5006 50.9972 38.1304 51.145 38.9154 51.2742C40.4307 51.5328 41.6173 51.856 42.4753 52.2438C43.3333 52.6131 43.9358 53.0748 44.2827 53.6288C44.6295 54.1828 44.803 54.8569 44.803 55.651C44.803 56.5743 44.5474 57.3592 44.0362 58.0055C43.525 58.6519 42.8222 59.1505 41.9276 59.5014C41.0331 59.8338 40.0016 60 38.8333 60Z"/>
<path d="M52.792 59.6676C51.4045 59.6676 50.3822 59.3444 49.725 58.6981C49.0678 58.0517 48.7392 57.0452 48.7392 55.6787V41.4681H51.6419V55.4571C51.6419 56.1404 51.7879 56.6113 52.08 56.8698C52.3721 57.1283 52.8194 57.2576 53.4218 57.2576H55.503V59.6676H52.792ZM46.5211 47.3407V44.9307H55.503V47.3407H46.5211Z"/>
<path d="M62.2769 60C60.7616 60 59.5476 59.6491 58.6348 58.9474C57.7403 58.2456 57.293 57.2576 57.293 55.9834C57.293 54.7091 57.6673 53.7211 58.4157 53.0194C59.1825 52.2992 60.36 51.7821 61.9483 51.4681L66.9595 50.4986C66.9595 49.3536 66.6948 48.5042 66.1654 47.9501C65.636 47.3777 64.851 47.0914 63.8104 47.0914C62.8793 47.0914 62.1491 47.3038 61.6197 47.7285C61.0902 48.1348 60.7251 48.7442 60.5243 49.5568L57.5395 49.3629C57.8133 47.8855 58.4888 46.7221 59.5659 45.8726C60.6612 45.0231 62.0761 44.5983 63.8104 44.5983C65.782 44.5983 67.279 45.1339 68.3013 46.205C69.3419 47.2576 69.8622 48.7442 69.8622 50.6648V56.3989C69.8622 56.7498 69.917 56.9991 70.0265 57.1468C70.1543 57.2761 70.3551 57.3407 70.629 57.3407H71.1493V59.6676C71.058 59.6861 70.9119 59.7045 70.7111 59.723C70.5103 59.7415 70.3004 59.7507 70.0813 59.7507C69.4606 59.7507 68.922 59.6491 68.4656 59.446C68.0275 59.2428 67.6989 58.9104 67.4798 58.4488C67.2607 57.9686 67.1512 57.3315 67.1512 56.5374L67.4524 56.6759C67.3064 57.3223 66.9869 57.8947 66.494 58.3934C66.0193 58.892 65.4078 59.289 64.6593 59.5845C63.929 59.8615 63.1349 60 62.2769 60ZM62.7424 57.6731C63.6187 57.6731 64.3672 57.5069 64.9879 57.1745C65.6086 56.8236 66.0924 56.3435 66.4392 55.7341C66.7861 55.1247 66.9595 54.4321 66.9595 53.6565V52.7147L62.6876 53.5457C61.8113 53.7119 61.1906 53.9797 60.8255 54.349C60.4787 54.6999 60.3052 55.1524 60.3052 55.7064C60.3052 56.3343 60.5152 56.8236 60.9351 57.1745C61.3732 57.5069 61.9757 57.6731 62.7424 57.6731Z"/>
<path d="M73.6001 59.6676V44.9307H76.2564L76.3659 48.8643L76.0099 48.6704C76.1742 47.7101 76.4846 46.9344 76.9409 46.3435C77.3973 45.7525 77.9541 45.3186 78.6114 45.0416C79.2686 44.7461 79.9806 44.5983 80.7473 44.5983C81.8427 44.5983 82.7463 44.8476 83.4583 45.3463C84.1886 45.8264 84.7362 46.4912 85.1013 47.3407C85.4847 48.1717 85.6764 49.1228 85.6764 50.1939V59.6676H82.7737V51.0803C82.7737 50.2124 82.6824 49.4829 82.4999 48.892C82.3173 48.301 82.0161 47.8486 81.5962 47.5346C81.1763 47.2207 80.6286 47.0637 79.9532 47.0637C78.9308 47.0637 78.1002 47.4054 77.4612 48.0886C76.8223 48.7719 76.5028 49.7692 76.5028 51.0803V59.6676H73.6001Z"/>
<path d="M94.6337 60C93.3923 60 92.3061 59.6861 91.375 59.0582C90.4622 58.4303 89.7594 57.5439 89.2665 56.3989C88.7918 55.2355 88.5545 53.8689 88.5545 52.2992C88.5545 50.7295 88.801 49.3721 89.2939 48.2271C89.7868 47.0637 90.4896 46.1681 91.4024 45.5402C92.3152 44.9123 93.3923 44.5983 94.6337 44.5983C95.6378 44.5983 96.5323 44.8107 97.3173 45.2355C98.1024 45.6602 98.6957 46.2512 99.0973 47.0083V40H102V59.6676H99.289L99.2068 57.4515C98.8052 58.2456 98.1936 58.8735 97.3721 59.3352C96.5689 59.7784 95.6561 60 94.6337 60ZM95.4005 57.4515C96.1855 57.4515 96.8518 57.2484 97.3995 56.8421C97.9472 56.4358 98.3671 55.8449 98.6592 55.0693C98.9513 54.2936 99.0973 53.3703 99.0973 52.2992C99.0973 51.1911 98.9513 50.2585 98.6592 49.5014C98.3671 48.7258 97.9472 48.144 97.3995 47.7562C96.8518 47.35 96.1855 47.1468 95.4005 47.1468C94.2321 47.1468 93.301 47.6085 92.6073 48.5319C91.9136 49.4368 91.5667 50.6925 91.5667 52.2992C91.5667 53.8874 91.9136 55.1431 92.6073 56.0665C93.301 56.9898 94.2321 57.4515 95.4005 57.4515Z"/>
</mask>
<path d="M2 59.6676V57.036L10.7902 47.3407H2.27384V44.9307H14.1311V47.5623L5.25868 57.2576H14.3501V59.6676H2Z" stroke="#42CEB5" stroke-width="4" mask="url(#path-1-outside-1_604_4)"/>
<path d="M22.2339 60C20.7734 60 19.6051 59.5106 18.7288 58.5319C17.8708 57.5346 17.4417 56.1588 17.4417 54.4044V44.9307H20.3444V53.6565C20.3444 54.9861 20.5726 55.9649 21.029 56.5928C21.4854 57.2207 22.1791 57.5346 23.1102 57.5346C24.169 57.5346 24.9906 57.193 25.5748 56.5097C26.1772 55.8079 26.4784 54.8292 26.4784 53.5734V44.9307H29.3811V59.6676H26.6701L26.6153 55.8172L27.0261 55.9834C26.7705 57.2761 26.232 58.2733 25.4104 58.9751C24.5889 59.6584 23.5301 60 22.2339 60Z" stroke="#42CEB5" stroke-width="4" mask="url(#path-1-outside-1_604_4)"/>
<path d="M38.8333 60C37.4641 60 36.3048 59.7876 35.3555 59.3629C34.4245 58.9381 33.7033 58.3564 33.1922 57.6177C32.681 56.8606 32.3889 55.9926 32.3159 55.0139L35.3007 54.8753C35.4468 55.6879 35.7937 56.3343 36.3413 56.8144C36.889 57.2946 37.7197 57.5346 38.8333 57.5346C39.7461 57.5346 40.4672 57.3869 40.9966 57.0914C41.526 56.7959 41.7907 56.325 41.7907 55.6787C41.7907 55.3278 41.6994 55.0323 41.5169 54.7922C41.3526 54.5337 41.024 54.3213 40.5311 54.1551C40.0382 53.9705 39.3079 53.795 38.3404 53.6288C36.8981 53.3518 35.7663 53.0286 34.9448 52.6593C34.1232 52.2899 33.539 51.819 33.1922 51.2465C32.8453 50.6741 32.6719 49.9815 32.6719 49.169C32.6719 47.8209 33.1648 46.7221 34.1506 45.8726C35.1547 45.0231 36.5969 44.5983 38.4773 44.5983C39.7369 44.5983 40.7958 44.8199 41.6538 45.2632C42.5118 45.6879 43.1782 46.2696 43.6528 47.0083C44.1457 47.7285 44.4561 48.5411 44.5839 49.446L41.599 49.6122C41.5078 49.0951 41.3252 48.6519 41.0514 48.2825C40.7958 47.8947 40.4489 47.5993 40.0108 47.3961C39.5726 47.1745 39.0523 47.0637 38.4499 47.0637C37.5188 47.0637 36.8251 47.2484 36.3687 47.6177C35.9123 47.9871 35.6841 48.4672 35.6841 49.0582C35.6841 49.5014 35.7845 49.8615 35.9853 50.1385C36.2044 50.4155 36.5513 50.6464 37.0259 50.831C37.5006 50.9972 38.1304 51.145 38.9154 51.2742C40.4307 51.5328 41.6173 51.856 42.4753 52.2438C43.3333 52.6131 43.9358 53.0748 44.2827 53.6288C44.6295 54.1828 44.803 54.8569 44.803 55.651C44.803 56.5743 44.5474 57.3592 44.0362 58.0055C43.525 58.6519 42.8222 59.1505 41.9276 59.5014C41.0331 59.8338 40.0016 60 38.8333 60Z" stroke="#42CEB5" stroke-width="4" mask="url(#path-1-outside-1_604_4)"/>
<path d="M52.792 59.6676C51.4045 59.6676 50.3822 59.3444 49.725 58.6981C49.0678 58.0517 48.7392 57.0452 48.7392 55.6787V41.4681H51.6419V55.4571C51.6419 56.1404 51.7879 56.6113 52.08 56.8698C52.3721 57.1283 52.8194 57.2576 53.4218 57.2576H55.503V59.6676H52.792ZM46.5211 47.3407V44.9307H55.503V47.3407H46.5211Z" stroke="#42CEB5" stroke-width="4" mask="url(#path-1-outside-1_604_4)"/>
<path d="M62.2769 60C60.7616 60 59.5476 59.6491 58.6348 58.9474C57.7403 58.2456 57.293 57.2576 57.293 55.9834C57.293 54.7091 57.6673 53.7211 58.4157 53.0194C59.1825 52.2992 60.36 51.7821 61.9483 51.4681L66.9595 50.4986C66.9595 49.3536 66.6948 48.5042 66.1654 47.9501C65.636 47.3777 64.851 47.0914 63.8104 47.0914C62.8793 47.0914 62.1491 47.3038 61.6197 47.7285C61.0902 48.1348 60.7251 48.7442 60.5243 49.5568L57.5395 49.3629C57.8133 47.8855 58.4888 46.7221 59.5659 45.8726C60.6612 45.0231 62.0761 44.5983 63.8104 44.5983C65.782 44.5983 67.279 45.1339 68.3013 46.205C69.3419 47.2576 69.8622 48.7442 69.8622 50.6648V56.3989C69.8622 56.7498 69.917 56.9991 70.0265 57.1468C70.1543 57.2761 70.3551 57.3407 70.629 57.3407H71.1493V59.6676C71.058 59.6861 70.9119 59.7045 70.7111 59.723C70.5103 59.7415 70.3004 59.7507 70.0813 59.7507C69.4606 59.7507 68.922 59.6491 68.4656 59.446C68.0275 59.2428 67.6989 58.9104 67.4798 58.4488C67.2607 57.9686 67.1512 57.3315 67.1512 56.5374L67.4524 56.6759C67.3064 57.3223 66.9869 57.8947 66.494 58.3934C66.0193 58.892 65.4078 59.289 64.6593 59.5845C63.929 59.8615 63.1349 60 62.2769 60ZM62.7424 57.6731C63.6187 57.6731 64.3672 57.5069 64.9879 57.1745C65.6086 56.8236 66.0924 56.3435 66.4392 55.7341C66.7861 55.1247 66.9595 54.4321 66.9595 53.6565V52.7147L62.6876 53.5457C61.8113 53.7119 61.1906 53.9797 60.8255 54.349C60.4787 54.6999 60.3052 55.1524 60.3052 55.7064C60.3052 56.3343 60.5152 56.8236 60.9351 57.1745C61.3732 57.5069 61.9757 57.6731 62.7424 57.6731Z" stroke="#42CEB5" stroke-width="4" mask="url(#path-1-outside-1_604_4)"/>
<path d="M73.6001 59.6676V44.9307H76.2564L76.3659 48.8643L76.0099 48.6704C76.1742 47.7101 76.4846 46.9344 76.9409 46.3435C77.3973 45.7525 77.9541 45.3186 78.6114 45.0416C79.2686 44.7461 79.9806 44.5983 80.7473 44.5983C81.8427 44.5983 82.7463 44.8476 83.4583 45.3463C84.1886 45.8264 84.7362 46.4912 85.1013 47.3407C85.4847 48.1717 85.6764 49.1228 85.6764 50.1939V59.6676H82.7737V51.0803C82.7737 50.2124 82.6824 49.4829 82.4999 48.892C82.3173 48.301 82.0161 47.8486 81.5962 47.5346C81.1763 47.2207 80.6286 47.0637 79.9532 47.0637C78.9308 47.0637 78.1002 47.4054 77.4612 48.0886C76.8223 48.7719 76.5028 49.7692 76.5028 51.0803V59.6676H73.6001Z" stroke="#42CEB5" stroke-width="4" mask="url(#path-1-outside-1_604_4)"/>
<path d="M94.6337 60C93.3923 60 92.3061 59.6861 91.375 59.0582C90.4622 58.4303 89.7594 57.5439 89.2665 56.3989C88.7918 55.2355 88.5545 53.8689 88.5545 52.2992C88.5545 50.7295 88.801 49.3721 89.2939 48.2271C89.7868 47.0637 90.4896 46.1681 91.4024 45.5402C92.3152 44.9123 93.3923 44.5983 94.6337 44.5983C95.6378 44.5983 96.5323 44.8107 97.3173 45.2355C98.1024 45.6602 98.6957 46.2512 99.0973 47.0083V40H102V59.6676H99.289L99.2068 57.4515C98.8052 58.2456 98.1936 58.8735 97.3721 59.3352C96.5689 59.7784 95.6561 60 94.6337 60ZM95.4005 57.4515C96.1855 57.4515 96.8518 57.2484 97.3995 56.8421C97.9472 56.4358 98.3671 55.8449 98.6592 55.0693C98.9513 54.2936 99.0973 53.3703 99.0973 52.2992C99.0973 51.1911 98.9513 50.2585 98.6592 49.5014C98.3671 48.7258 97.9472 48.144 97.3995 47.7562C96.8518 47.35 96.1855 47.1468 95.4005 47.1468C94.2321 47.1468 93.301 47.6085 92.6073 48.5319C91.9136 49.4368 91.5667 50.6925 91.5667 52.2992C91.5667 53.8874 91.9136 55.1431 92.6073 56.0665C93.301 56.9898 94.2321 57.4515 95.4005 57.4515Z" stroke="#42CEB5" stroke-width="4" mask="url(#path-1-outside-1_604_4)"/>
</svg>
