<svg width="100" height="70" viewBox="0 0 100 70" fill="none" xmlns="http://www.w3.org/2000/svg">
<path d="M21.0293 20.0967C21.0264 17.6343 21.6759 15.2144 22.9121 13.083C24.1484 10.9517 25.9275 9.18361 28.0693 7.95898C30.2112 6.73441 32.6396 6.09686 35.1084 6.11035C37.5772 6.12387 39.9987 6.78815 42.127 8.03613L42.7891 8.4248L43.335 7.88574C46.703 4.56497 50.984 2.31675 55.6348 1.42676C60.2856 0.536799 65.0973 1.04555 69.458 2.8877C73.8185 4.72984 77.5318 7.82276 80.1279 11.7734C82.6431 15.6009 83.9999 20.0665 84.041 24.6367V25.0889C84.041 26.9121 83.8489 28.6356 83.4648 30.3604L83.248 31.332L84.2188 31.5527C88.7711 32.5879 92.782 35.259 95.4863 39.0557C98.1906 42.8524 99.3995 47.5099 98.8828 52.1387C98.366 56.7672 96.1599 61.0443 92.6846 64.1543C89.209 67.2644 84.7073 68.9897 80.0381 69H25.0293C19.0757 69.006 13.3318 66.8046 8.91406 62.8232C4.49648 58.842 1.71925 53.3649 1.12109 47.4561C0.522955 41.5472 2.14651 35.6268 5.67676 30.8447C9.20712 26.0625 14.3931 22.7593 20.2275 21.5771L21.0293 21.415V20.0967Z" stroke="#42CEB5" stroke-width="2"/>
</svg>
