<svg width="100" height="100" viewBox="0 0 100 100" fill="none" xmlns="http://www.w3.org/2000/svg">
<mask id="path-1-inside-1_62_38" fill="white">
<path fill-rule="evenodd" clip-rule="evenodd" d="M8 0H92L86.3188 91.4445L50 100L13.6812 91.4445L8 0ZM78.5156 16.9772H33.0837H21.484L22.243 27.8599H66.1555L65.4084 38.7427L22.9224 38.9834L23.5676 49.6255H64.8278L63.595 69.0161L50.0965 72.1166L36.5659 69.0157L35.7397 55.4296H23.9356L25.3525 77.4327L49.9998 83.2298L74.6472 77.4327L76.4275 49.6255H76.4321L77.1243 38.7427L77.8161 27.8599L78.5156 16.9772Z"/>
</mask>
<path d="M77.1243 37.7427H77.1194V39.7427H77.1243V37.7427ZM92 0L93.9962 0.124015L94.1281 -2H92V0ZM8 0V-2H5.87189L6.00385 0.124015L8 0ZM86.3188 91.4445L86.7774 93.3912L88.2229 93.0507L88.315 91.5685L86.3188 91.4445ZM50 100L49.5414 101.947L50 102.055L50.4586 101.947L50 100ZM13.6812 91.4445L11.685 91.5685L11.7771 93.0507L13.2226 93.3912L13.6812 91.4445ZM78.5156 16.9772L80.5115 17.1055L80.6483 14.9772H78.5156V16.9772ZM21.484 16.9772V14.9772H19.3397L19.4889 17.1163L21.484 16.9772ZM22.243 27.8599L20.2478 27.9991L20.3776 29.8599H22.243V27.8599ZM66.1555 27.8599L68.1508 27.9969L68.2975 25.8599H66.1555V27.8599ZM65.4084 38.7427L65.4198 40.7427L67.2766 40.7322L67.4038 38.8797L65.4084 38.7427ZM22.9224 38.9834L22.911 36.9835L20.7982 36.9954L20.926 39.1045L22.9224 38.9834ZM23.5676 49.6255L21.5713 49.7465L21.6852 51.6255H23.5676V49.6255ZM64.8278 49.6255L66.8238 49.7524L66.959 47.6255H64.8278V49.6255ZM63.595 69.0161L64.0427 70.9653L65.4963 70.6314L65.591 69.143L63.595 69.0161ZM50.0965 72.1166L49.6497 74.066L50.097 74.1685L50.5442 74.0658L50.0965 72.1166ZM36.5659 69.0157L34.5696 69.1371L34.6605 70.6308L36.1191 70.9651L36.5659 69.0157ZM35.7397 55.4296L37.736 55.3082L37.6217 53.4296H35.7397V55.4296ZM23.9356 55.4296V53.4296H21.8027L21.9397 55.5582L23.9356 55.4296ZM25.3525 77.4327L23.3566 77.5612L23.4518 79.0402L24.8946 79.3795L25.3525 77.4327ZM49.9998 83.2298L49.5419 85.1766L49.9998 85.2843L50.4577 85.1766L49.9998 83.2298ZM74.6472 77.4327L75.1051 79.3795L76.5484 79.0401L76.6431 77.5604L74.6472 77.4327ZM76.4275 49.6255V47.6255H74.5514L74.4316 49.4977L76.4275 49.6255ZM76.4321 49.6255V51.6255H78.3089L78.428 49.7525L76.4321 49.6255ZM77.1243 38.7427L79.1202 38.8697L79.1203 38.8696L77.1243 38.7427ZM77.8161 27.8599L75.8203 27.7317L75.8202 27.7331L77.8161 27.8599ZM92 -2H8V2H92V-2ZM88.315 91.5685L93.9962 0.124015L90.0038 -0.124015L84.3227 91.3205L88.315 91.5685ZM50.4586 101.947L86.7774 93.3912L85.8603 89.4978L49.5414 98.0533L50.4586 101.947ZM13.2226 93.3912L49.5414 101.947L50.4586 98.0533L14.1397 89.4978L13.2226 93.3912ZM6.00385 0.124015L11.685 91.5685L15.6773 91.3205L9.99615 -0.124015L6.00385 0.124015ZM33.0837 18.9772H78.5156V14.9772H33.0837V18.9772ZM21.484 18.9772H33.0837V14.9772H21.484V18.9772ZM24.2381 27.7208L23.4792 16.838L19.4889 17.1163L20.2478 27.9991L24.2381 27.7208ZM66.1555 25.8599H22.243V29.8599H66.1555V25.8599ZM67.4038 38.8797L68.1508 27.9969L64.1602 27.723L63.4131 38.6058L67.4038 38.8797ZM22.9337 40.9834L65.4198 40.7427L65.3971 36.7428L22.911 36.9835L22.9337 40.9834ZM25.564 49.5045L24.9187 38.8624L20.926 39.1045L21.5713 49.7465L25.564 49.5045ZM64.8278 47.6255H23.5676V51.6255H64.8278V47.6255ZM65.591 69.143L66.8238 49.7524L62.8319 49.4986L61.599 68.8892L65.591 69.143ZM50.5442 74.0658L64.0427 70.9653L63.1473 67.0668L49.6488 70.1673L50.5442 74.0658ZM36.1191 70.9651L49.6497 74.066L50.5433 70.1671L37.0127 67.0662L36.1191 70.9651ZM33.7434 55.5511L34.5696 69.1371L38.5622 68.8942L37.736 55.3082L33.7434 55.5511ZM23.9356 57.4296H35.7397V53.4296H23.9356V57.4296ZM27.3483 77.3041L25.9315 55.3011L21.9397 55.5582L23.3566 77.5612L27.3483 77.3041ZM50.4577 81.2829L25.8104 75.4858L24.8946 79.3795L49.5419 85.1766L50.4577 81.2829ZM74.1893 75.4858L49.5419 81.2829L50.4577 85.1766L75.1051 79.3795L74.1893 75.4858ZM74.4316 49.4977L72.6513 77.3049L76.6431 77.5604L78.4234 49.7533L74.4316 49.4977ZM76.4321 47.6255H76.4275V51.6255H76.4321V47.6255ZM75.1283 38.6158L74.4361 49.4985L78.428 49.7525L79.1202 38.8697L75.1283 38.6158ZM75.8202 27.7331L75.1283 38.6158L79.1203 38.8696L79.8121 27.9868L75.8202 27.7331ZM76.5197 16.8489L75.8203 27.7317L79.812 27.9882L80.5115 17.1055L76.5197 16.8489Z" fill="#42CEB5" mask="url(#path-1-inside-1_62_38)"/>
</svg>
