<svg width="81" height="94" viewBox="0 0 81 94" fill="none" xmlns="http://www.w3.org/2000/svg">
<path d="M73.0597 17.7005V92.2032H7.86011V1H58.9961L73.0597 17.7005Z" stroke="#42CEB5" stroke-width="2" stroke-miterlimit="10"/>
<path d="M79.9199 42.071V75.9685H1V42.071H79.9199Z" stroke="#42CEB5" stroke-width="2" stroke-miterlimit="10"/>
<path d="M49.3353 15.748H19.843C19.0654 15.748 18.4351 15.9719 18.4351 16.248C18.4351 16.5242 19.0654 16.748 19.843 16.748H49.3353C50.1128 16.748 50.7432 16.5242 50.7432 16.248C50.7432 15.9719 50.1128 15.748 49.3353 15.748Z" fill="#42CEB5"/>
<path d="M61.1275 23.2194H19.7924C19.0428 23.2194 18.4351 23.4429 18.4351 23.7186V23.7201C18.4351 23.9958 19.0428 24.2194 19.7924 24.2194H61.1275C61.8771 24.2194 62.4848 23.9958 62.4848 23.7201V23.7186C62.4848 23.4429 61.8771 23.2194 61.1275 23.2194Z" fill="#42CEB5"/>
<path d="M61.0303 30.3989H19.8896C19.0863 30.3989 18.4351 30.6228 18.4351 30.8989C18.4351 31.1751 19.0863 31.3989 19.8896 31.3989H61.0303C61.8336 31.3989 62.4848 31.1751 62.4848 30.8989C62.4848 30.6228 61.8336 30.3989 61.0303 30.3989Z" fill="#42CEB5"/>
<path d="M58.3397 1.17334C58.3397 1.17334 54.4505 22.327 72.9906 18.1539" stroke="#42CEB5" stroke-width="2" stroke-miterlimit="10"/>
<path d="M16.1055 50.5803H19.9947L31.1452 67.3664H27.4699L16.1055 50.5803Z" fill="#42CEB5"/>
<path d="M26.7816 50.5803L15.5649 67.3664H19.7965L31.1453 50.5803H26.7816ZM33.2766 50.5803H38.1966L41.5258 62.4154L44.4933 50.5803H49.6077V67.3664H46.6557L46.574 53.8784L43.3109 67.3664H39.7717L36.4814 54.2673L36.4231 67.3664H33.2766V50.5803ZM53.3491 50.5803H56.6939V64.6906H65.2542V67.3664H53.3491V50.5803Z" fill="#42CEB5"/>
</svg>
