<svg width="100" height="84" viewBox="0 0 100 84" fill="none" xmlns="http://www.w3.org/2000/svg">
<mask id="path-1-inside-1_601_112" fill="white">
<path d="M93.5361 48.6865C96.5452 49.3675 98.8654 49.9461 99.9795 50.3545L99.9775 60.3262C99.9783 61.3261 98.7783 62.4232 96.0625 63.8398C90.7269 66.6235 63.088 77.9986 57.2031 81.0693C51.319 84.1402 48.0497 84.1107 43.4014 81.8867C38.7532 79.6625 9.34014 67.7696 4.04102 65.2344C1.39324 63.9679 0.00012851 62.8987 0 61.8887V51.7734C0 51.7734 2.82098 51.157 7.05566 50.2168C16.2942 54.2203 39.3328 63.5738 43.4014 65.5195C48.0498 67.7436 51.319 67.7728 57.2031 64.7031C62.4381 61.9705 84.8847 52.668 93.5361 48.6865Z"/>
</mask>
<path d="M93.5361 48.6865L93.9776 46.7359L93.3161 46.5862L92.7 46.8697L93.5361 48.6865ZM99.9795 50.3545L101.979 50.3549L101.98 48.9576L100.668 48.4767L99.9795 50.3545ZM99.9775 60.3262L97.9775 60.3258V60.3277L99.9775 60.3262ZM96.0625 63.8398L95.1375 62.0666L95.1374 62.0667L96.0625 63.8398ZM57.2031 81.0693L56.2779 79.2962L56.2778 79.2963L57.2031 81.0693ZM43.4014 81.8867L42.5381 83.6908L42.5382 83.6909L43.4014 81.8867ZM4.04102 65.2344L4.90418 63.4302L4.90402 63.4301L4.04102 65.2344ZM0 61.8887H-2V61.8889L0 61.8887ZM0 51.7734L-0.426974 49.8195L-2 50.1633V51.7734H0ZM7.05566 50.2168L7.8509 48.3817L7.25558 48.1237L6.62218 48.2643L7.05566 50.2168ZM43.4014 65.5195L44.2646 63.7154L44.2642 63.7152L43.4014 65.5195ZM57.2031 64.7031L58.1282 66.4763L58.1286 66.4761L57.2031 64.7031ZM93.5361 48.6865L93.0947 50.6372C96.14 51.3264 98.3228 51.8773 99.2911 52.2323L99.9795 50.3545L100.668 48.4767C99.408 48.0148 96.9503 47.4086 93.9776 46.7359L93.5361 48.6865ZM99.9795 50.3545L97.9795 50.3541L97.9775 60.3258L99.9775 60.3262L101.978 60.3266L101.979 50.3549L99.9795 50.3545ZM99.9775 60.3262L97.9775 60.3277C97.9773 59.9809 98.1842 60.0045 97.6997 60.4412C97.2474 60.8489 96.4439 61.3851 95.1375 62.0666L96.0625 63.8398L96.9875 65.6131C98.3969 64.8779 99.5513 64.1573 100.378 63.4123C101.172 62.6963 101.979 61.6714 101.978 60.3246L99.9775 60.3262ZM96.0625 63.8398L95.1374 62.0667C92.5563 63.4132 84.4192 66.909 76.0485 70.5097C67.7886 74.0627 59.3064 77.7159 56.2779 79.2962L57.2031 81.0693L58.1284 82.8425C60.9847 81.352 69.2644 77.7823 77.6291 74.1841C85.883 70.6337 94.2331 67.0501 96.9876 65.613L96.0625 63.8398ZM57.2031 81.0693L56.2778 79.2963C53.4522 80.7709 51.464 81.3865 49.7466 81.4657C48.0636 81.5434 46.4243 81.1159 44.2646 80.0826L43.4014 81.8867L42.5382 83.6909C45.0268 84.8816 47.3463 85.5808 49.9311 85.4615C52.4814 85.3438 55.0699 84.4386 58.1285 82.8424L57.2031 81.0693ZM43.4014 81.8867L44.2647 80.0826C41.8777 78.9404 33.2833 75.3793 24.732 71.83C16.0951 68.2451 7.49147 64.6681 4.90418 63.4302L4.04102 65.2344L3.17785 67.0385C5.88968 68.3359 14.6422 71.973 23.1986 75.5244C31.8406 79.1114 40.2768 82.6088 42.5381 83.6908L43.4014 81.8867ZM4.04102 65.2344L4.90402 63.4301C3.62482 62.8183 2.78345 62.315 2.28876 61.9131C1.72026 61.4512 1.99994 61.4472 2 61.8884L0 61.8887L-2 61.8889C-1.99982 63.3403 -1.02351 64.3758 -0.23348 65.0176C0.630364 65.7195 1.80943 66.384 3.17802 67.0386L4.04102 65.2344ZM0 61.8887H2V51.7734H0H-2V61.8887H0ZM0 51.7734C0.426974 53.7273 0.42699 53.7273 0.427016 53.7273C0.427039 53.7273 0.427076 53.7273 0.427123 53.7273C0.427215 53.7273 0.42735 53.7272 0.427528 53.7272C0.427885 53.7271 0.428413 53.727 0.429112 53.7269C0.43051 53.7266 0.432591 53.7261 0.43535 53.7255C0.440869 53.7243 0.449099 53.7225 0.46 53.7201C0.4818 53.7153 0.514278 53.7082 0.55709 53.6989C0.642714 53.6801 0.769675 53.6523 0.935224 53.616C1.26632 53.5434 1.75177 53.4369 2.36959 53.301C3.60522 53.0291 5.37039 52.6397 7.48915 52.1693L7.05566 50.2168L6.62218 48.2643C4.50626 48.7341 2.7436 49.123 1.51006 49.3944C0.893298 49.5301 0.408839 49.6364 0.0786667 49.7088C-0.0864186 49.745 -0.21293 49.7727 -0.298121 49.7914C-0.340716 49.8007 -0.37298 49.8077 -0.39457 49.8125C-0.405365 49.8148 -0.413492 49.8166 -0.418907 49.8178C-0.421614 49.8184 -0.423644 49.8188 -0.42499 49.8191C-0.425663 49.8193 -0.426166 49.8194 -0.426497 49.8194C-0.426662 49.8195 -0.426785 49.8195 -0.426864 49.8195C-0.426904 49.8195 -0.426932 49.8195 -0.426952 49.8195C-0.426968 49.8195 -0.426974 49.8195 0 51.7734ZM7.05566 50.2168L6.26042 52.0519C15.6352 56.1145 38.4993 65.3922 42.5385 67.3238L43.4014 65.5195L44.2642 63.7152C40.1663 61.7555 16.9531 52.3261 7.8509 48.3817L7.05566 50.2168ZM43.4014 65.5195L42.5382 67.3237C45.0269 68.5144 47.3463 69.2136 49.931 69.0944C52.4813 68.9768 55.0697 68.0719 58.1282 66.4763L57.2031 64.7031L56.2781 62.9299C53.4524 64.404 51.4642 65.0194 49.7467 65.0986C48.0636 65.1762 46.4243 64.7487 44.2646 63.7154L43.4014 65.5195ZM57.2031 64.7031L58.1286 66.4761C60.6616 65.1539 67.4885 62.1837 74.8797 59C82.2074 55.8436 90.0172 52.5076 94.3723 50.5034L93.5361 48.6865L92.7 46.8697C88.4036 48.8469 80.6644 52.1529 73.2972 55.3263C65.9936 58.4723 58.9796 61.5197 56.2776 62.9301L57.2031 64.7031Z" fill="#42CEB5" mask="url(#path-1-inside-1_601_112)"/>
<mask id="path-3-inside-2_601_112" fill="white">
<path d="M95.9955 47.5225C101.196 49.4305 101.395 51.0019 96.0599 53.7852C90.7235 56.5681 63.0857 67.9426 57.2015 71.0127C51.3177 74.084 48.0489 74.0543 43.4007 71.8301C38.7521 69.6074 9.33951 57.7132 4.04137 55.1797C-1.25673 52.6447 -1.36713 50.9001 3.83727 48.8604C3.87083 48.8472 3.90524 48.8333 3.94079 48.8193C3.97388 48.8353 4.0069 48.8521 4.0404 48.8682C9.33921 51.4033 38.7521 63.2964 43.4007 65.5195C48.0494 67.7438 51.3182 67.7729 57.2025 64.7031C63.0564 61.6473 90.4402 50.3734 95.9769 47.5156C95.9831 47.5179 95.9893 47.5202 95.9955 47.5225Z"/>
</mask>
<path fill-rule="evenodd" clip-rule="evenodd" d="M95.9955 47.5225L96.6844 45.6448L96.6838 45.6447L95.9955 47.5225ZM96.0599 53.7852L96.9847 55.5585L96.985 55.5584L96.0599 53.7852ZM57.2015 71.0127L56.2764 69.2395L56.2761 69.2397L57.2015 71.0127ZM43.4007 71.8301L44.264 70.026L44.2635 70.0257L43.4007 71.8301ZM4.04137 55.1797L3.17814 56.9838L3.17858 56.984L4.04137 55.1797ZM3.83727 48.8604L4.56708 50.7224L4.56732 50.7223L3.83727 48.8604ZM3.94079 48.8193L4.8095 47.0179L4.02328 46.6387L3.21067 46.9574L3.94079 48.8193ZM4.0404 48.8682L4.90357 47.064L4.9034 47.0639L4.0404 48.8682ZM43.4007 65.5195L44.264 63.7154L44.2636 63.7152L43.4007 65.5195ZM57.2025 64.7031L58.1276 66.4763L58.128 66.4761L57.2025 64.7031ZM95.9769 47.5156L96.6659 45.6381L95.8407 45.3352L95.0596 45.7384L95.9769 47.5156ZM95.9955 47.5225L95.3066 49.4001C96.5626 49.8609 97.3599 50.248 97.8153 50.5617C98.3269 50.914 97.9961 50.8793 97.9797 50.3929C97.9647 49.9471 98.2484 49.9293 97.7156 50.395C97.246 50.8056 96.4257 51.3385 95.1349 52.0119L96.0599 53.7852L96.985 55.5584C98.3618 54.8401 99.5173 54.133 100.348 53.4065C101.116 52.7351 102.025 51.6833 101.977 50.2583C101.928 48.7927 100.906 47.8334 100.084 47.2674C99.2063 46.6628 98.0286 46.138 96.6844 45.6448L95.9955 47.5225ZM96.0599 53.7852L95.1351 52.0118C92.5534 53.3582 84.4162 56.8537 76.0459 60.454C67.7862 64.0067 59.3045 67.6596 56.2764 69.2395L57.2015 71.0127L58.1267 72.7859C60.9827 71.2957 69.262 67.7263 77.6264 64.1285C85.8801 60.5783 94.23 56.9951 96.9847 55.5585L96.0599 53.7852ZM57.2015 71.0127L56.2761 69.2397C53.4506 70.7145 51.4627 71.3301 49.7456 71.4093C48.0628 71.487 46.4237 71.0594 44.264 70.026L43.4007 71.8301L42.5375 73.6342C45.026 74.8249 47.3453 75.5243 49.93 75.4051C52.4803 75.2874 55.0686 74.3821 58.127 72.7857L57.2015 71.0127ZM43.4007 71.8301L44.2635 70.0257C41.8767 68.8845 33.2827 65.3236 24.7313 61.7742C16.0947 58.1895 7.49121 54.6124 4.90417 53.3754L4.04137 55.1797L3.17858 56.984C5.88968 58.2804 14.6415 61.9172 23.1979 65.4686C31.8395 69.0554 40.2762 72.5529 42.538 73.6344L43.4007 71.8301ZM4.04137 55.1797L4.90461 53.3756C3.63015 52.7658 2.7989 52.2629 2.30949 51.8622C1.76041 51.4126 1.98458 51.3773 1.99936 51.7563C2.01752 52.222 1.69977 52.2808 2.14585 51.9386C2.56051 51.6205 3.32208 51.2104 4.56708 50.7224L3.83727 48.8604L3.10746 46.9983C1.75027 47.5302 0.57398 48.103 -0.288828 48.7649C-1.12023 49.4027 -2.05507 50.4386 -1.9976 51.9122C-1.9435 53.2993 -1.02361 54.3029 -0.224542 54.9571C0.634204 55.6602 1.80354 56.3261 3.17814 56.9838L4.04137 55.1797ZM3.83727 48.8604L4.56732 50.7223C4.59 50.7135 4.61213 50.7046 4.62833 50.6982C4.64621 50.6911 4.65886 50.686 4.6709 50.6813L3.94079 48.8193L3.21067 46.9574C3.18717 46.9666 3.16485 46.9755 3.14824 46.9821C3.12996 46.9894 3.1181 46.9941 3.10722 46.9984L3.83727 48.8604ZM3.94079 48.8193L3.07208 50.6208C3.07716 50.6233 3.08323 50.6263 3.10292 50.636C3.11892 50.6439 3.14683 50.6578 3.1774 50.6724L4.0404 48.8682L4.9034 47.0639C4.79053 47.0099 4.97973 47.0999 4.8095 47.0179L3.94079 48.8193ZM4.0404 48.8682L3.17723 50.6723C5.88891 51.9697 14.6413 55.6067 23.1977 59.1581C31.8396 62.7449 40.2761 66.2422 42.5379 67.3238L43.4007 65.5195L44.2636 63.7152C41.8767 62.5738 33.2825 59.013 24.7311 55.4637C16.0942 51.8789 7.4907 48.3018 4.90357 47.064L4.0404 48.8682ZM43.4007 65.5195L42.5375 67.3237C45.0263 68.5145 47.3458 69.2137 49.9304 69.0945C52.4806 68.9769 55.069 68.0719 58.1276 66.4763L57.2025 64.7031L56.2774 62.9299C53.4517 64.4041 51.4635 65.0195 49.7461 65.0987C48.0631 65.1763 46.4238 64.7488 44.264 63.7154L43.4007 65.5195ZM57.2025 64.7031L58.128 66.4761C60.9688 64.9931 69.1772 61.4523 77.499 57.8723C85.7145 54.338 94.0442 50.7639 96.8942 49.2929L95.9769 47.5156L95.0596 45.7384C92.3729 47.1251 84.2424 50.6168 75.9183 54.1979C67.7006 57.7332 59.2901 61.3572 56.277 62.9302L57.2025 64.7031ZM95.9769 47.5156L95.2879 49.3932C95.2888 49.3935 95.2899 49.3939 95.2935 49.3952C95.2963 49.3963 95.3015 49.3982 95.3071 49.4003L95.9955 47.5225L96.6838 45.6447C96.6493 45.632 96.7114 45.6547 96.6659 45.6381L95.9769 47.5156Z" fill="#42CEB5" mask="url(#path-3-inside-2_601_112)"/>
<mask id="path-5-inside-3_601_112" fill="white">
<path d="M93.5361 48.6865C96.5452 49.3675 98.8654 49.9461 99.9795 50.3545L99.9775 60.3262C99.9783 61.3261 98.7783 62.4232 96.0625 63.8398C90.7269 66.6235 63.088 77.9986 57.2031 81.0693C51.319 84.1402 48.0497 84.1107 43.4014 81.8867C38.7532 79.6625 9.34014 67.7696 4.04102 65.2344C1.39324 63.9679 0.00012851 62.8987 0 61.8887V51.7734C0 51.7734 2.82098 51.157 7.05566 50.2168C16.2942 54.2203 39.3328 63.5738 43.4014 65.5195C48.0498 67.7436 51.319 67.7728 57.2031 64.7031C62.4381 61.9705 84.8847 52.668 93.5361 48.6865Z"/>
</mask>
<path d="M93.5361 48.6865L93.9776 46.7359L93.3161 46.5862L92.7 46.8697L93.5361 48.6865ZM99.9795 50.3545L101.979 50.3549L101.98 48.9576L100.668 48.4767L99.9795 50.3545ZM99.9775 60.3262L97.9775 60.3258V60.3277L99.9775 60.3262ZM96.0625 63.8398L95.1375 62.0666L95.1374 62.0667L96.0625 63.8398ZM57.2031 81.0693L56.2779 79.2962L56.2778 79.2963L57.2031 81.0693ZM43.4014 81.8867L42.5381 83.6908L42.5382 83.6909L43.4014 81.8867ZM4.04102 65.2344L4.90418 63.4302L4.90402 63.4301L4.04102 65.2344ZM0 61.8887H-2V61.8889L0 61.8887ZM0 51.7734L-0.426974 49.8195L-2 50.1633V51.7734H0ZM7.05566 50.2168L7.8509 48.3817L7.25558 48.1237L6.62218 48.2643L7.05566 50.2168ZM43.4014 65.5195L44.2646 63.7154L44.2642 63.7152L43.4014 65.5195ZM57.2031 64.7031L58.1282 66.4763L58.1286 66.4761L57.2031 64.7031ZM93.5361 48.6865L93.0947 50.6372C96.14 51.3264 98.3228 51.8773 99.2911 52.2323L99.9795 50.3545L100.668 48.4767C99.408 48.0148 96.9503 47.4086 93.9776 46.7359L93.5361 48.6865ZM99.9795 50.3545L97.9795 50.3541L97.9775 60.3258L99.9775 60.3262L101.978 60.3266L101.979 50.3549L99.9795 50.3545ZM99.9775 60.3262L97.9775 60.3277C97.9773 59.9809 98.1842 60.0045 97.6997 60.4412C97.2474 60.8489 96.4439 61.3851 95.1375 62.0666L96.0625 63.8398L96.9875 65.6131C98.3969 64.8779 99.5513 64.1573 100.378 63.4123C101.172 62.6963 101.979 61.6714 101.978 60.3246L99.9775 60.3262ZM96.0625 63.8398L95.1374 62.0667C92.5563 63.4132 84.4192 66.909 76.0485 70.5097C67.7886 74.0627 59.3064 77.7159 56.2779 79.2962L57.2031 81.0693L58.1284 82.8425C60.9847 81.352 69.2644 77.7823 77.6291 74.1841C85.883 70.6337 94.2331 67.0501 96.9876 65.613L96.0625 63.8398ZM57.2031 81.0693L56.2778 79.2963C53.4522 80.7709 51.464 81.3865 49.7466 81.4657C48.0636 81.5434 46.4243 81.1159 44.2646 80.0826L43.4014 81.8867L42.5382 83.6909C45.0268 84.8816 47.3463 85.5808 49.9311 85.4615C52.4814 85.3438 55.0699 84.4386 58.1285 82.8424L57.2031 81.0693ZM43.4014 81.8867L44.2647 80.0826C41.8777 78.9404 33.2833 75.3793 24.732 71.83C16.0951 68.2451 7.49147 64.6681 4.90418 63.4302L4.04102 65.2344L3.17785 67.0385C5.88968 68.3359 14.6422 71.973 23.1986 75.5244C31.8406 79.1114 40.2768 82.6088 42.5381 83.6908L43.4014 81.8867ZM4.04102 65.2344L4.90402 63.4301C3.62482 62.8183 2.78345 62.315 2.28876 61.9131C1.72026 61.4512 1.99994 61.4472 2 61.8884L0 61.8887L-2 61.8889C-1.99982 63.3403 -1.02351 64.3758 -0.23348 65.0176C0.630364 65.7195 1.80943 66.384 3.17802 67.0386L4.04102 65.2344ZM0 61.8887H2V51.7734H0H-2V61.8887H0ZM0 51.7734C0.426974 53.7273 0.42699 53.7273 0.427016 53.7273C0.427039 53.7273 0.427076 53.7273 0.427123 53.7273C0.427215 53.7273 0.42735 53.7272 0.427528 53.7272C0.427885 53.7271 0.428413 53.727 0.429112 53.7269C0.43051 53.7266 0.432591 53.7261 0.43535 53.7255C0.440869 53.7243 0.449099 53.7225 0.46 53.7201C0.4818 53.7153 0.514278 53.7082 0.55709 53.6989C0.642714 53.6801 0.769675 53.6523 0.935224 53.616C1.26632 53.5434 1.75177 53.4369 2.36959 53.301C3.60522 53.0291 5.37039 52.6397 7.48915 52.1693L7.05566 50.2168L6.62218 48.2643C4.50626 48.7341 2.7436 49.123 1.51006 49.3944C0.893298 49.5301 0.408839 49.6364 0.0786667 49.7088C-0.0864186 49.745 -0.21293 49.7727 -0.298121 49.7914C-0.340716 49.8007 -0.37298 49.8077 -0.39457 49.8125C-0.405365 49.8148 -0.413492 49.8166 -0.418907 49.8178C-0.421614 49.8184 -0.423644 49.8188 -0.42499 49.8191C-0.425663 49.8193 -0.426166 49.8194 -0.426497 49.8194C-0.426662 49.8195 -0.426785 49.8195 -0.426864 49.8195C-0.426904 49.8195 -0.426932 49.8195 -0.426952 49.8195C-0.426968 49.8195 -0.426974 49.8195 0 51.7734ZM7.05566 50.2168L6.26042 52.0519C15.6352 56.1145 38.4993 65.3922 42.5385 67.3238L43.4014 65.5195L44.2642 63.7152C40.1663 61.7555 16.9531 52.3261 7.8509 48.3817L7.05566 50.2168ZM43.4014 65.5195L42.5382 67.3237C45.0269 68.5144 47.3463 69.2136 49.931 69.0944C52.4813 68.9768 55.0697 68.0719 58.1282 66.4763L57.2031 64.7031L56.2781 62.9299C53.4524 64.404 51.4642 65.0194 49.7467 65.0986C48.0636 65.1762 46.4243 64.7487 44.2646 63.7154L43.4014 65.5195ZM57.2031 64.7031L58.1286 66.4761C60.6616 65.1539 67.4885 62.1837 74.8797 59C82.2074 55.8436 90.0172 52.5076 94.3723 50.5034L93.5361 48.6865L92.7 46.8697C88.4036 48.8469 80.6644 52.1529 73.2972 55.3263C65.9936 58.4723 58.9796 61.5197 56.2776 62.9301L57.2031 64.7031Z" fill="#42CEB5" mask="url(#path-5-inside-3_601_112)"/>
<mask id="path-7-inside-4_601_112" fill="white">
<path d="M95.9956 47.5225C101.196 49.4305 101.396 51.0019 96.061 53.7852C90.7259 56.5676 63.0877 67.9422 57.2026 71.0127C51.3187 74.0841 48.0492 74.0544 43.4009 71.8301C38.7518 69.6072 9.34183 57.7136 4.04248 55.1797C-1.25562 52.6447 -1.3669 50.9001 3.8374 48.8604C3.87093 48.8472 3.90541 48.8333 3.94092 48.8193C3.97405 48.8353 4.00699 48.8521 4.04053 48.8682C9.33896 51.4032 38.7514 63.2961 43.4009 65.5195C48.0495 67.7438 51.3193 67.7729 57.2036 64.7031C63.0585 61.6469 90.4398 50.3735 95.9771 47.5156C95.9833 47.5179 95.9894 47.5202 95.9956 47.5225Z"/>
</mask>
<path d="M95.9956 47.5225L96.6845 45.6448L96.684 45.6447L95.9956 47.5225ZM96.061 53.7852L96.9859 55.5585L96.9861 55.5584L96.061 53.7852ZM57.2026 71.0127L56.2775 69.2395L56.2772 69.2397L57.2026 71.0127ZM43.4009 71.8301L44.2642 70.026L44.2636 70.0257L43.4009 71.8301ZM4.04248 55.1797L3.17925 56.9838L3.17972 56.984L4.04248 55.1797ZM3.8374 48.8604L4.56722 50.7224L4.56745 50.7223L3.8374 48.8604ZM3.94092 48.8193L4.80965 47.0179L4.02342 46.6387L3.2108 46.9574L3.94092 48.8193ZM4.04053 48.8682L4.90371 47.064L4.90354 47.0639L4.04053 48.8682ZM43.4009 65.5195L44.2641 63.7154L44.2637 63.7152L43.4009 65.5195ZM57.2036 64.7031L58.1287 66.4763L58.1291 66.4761L57.2036 64.7031ZM95.9771 47.5156L96.6661 45.6381L95.8409 45.3352L95.0598 45.7384L95.9771 47.5156ZM95.9956 47.5225L95.3067 49.4001C96.5627 49.8609 97.3602 50.2481 97.8157 50.5618C98.3275 50.9142 97.9969 50.8796 97.9804 50.3934C97.9653 49.9474 98.2491 49.9294 97.7165 50.3951C97.247 50.8056 96.4268 51.3385 95.136 52.0119L96.061 53.7852L96.9861 55.5584C98.3629 54.8401 99.5184 54.1329 100.349 53.4064C101.117 52.735 102.026 51.683 101.978 50.2578C101.928 48.7923 100.906 47.8332 100.084 47.2673C99.2065 46.6628 98.0287 46.138 96.6845 45.6448L95.9956 47.5225ZM96.061 53.7852L95.1362 52.0118C92.5552 53.3579 84.4182 56.8533 76.0478 60.4537C67.7881 64.0064 59.3061 67.6594 56.2775 69.2395L57.2026 71.0127L58.1278 72.7859C60.9842 71.2955 69.2639 67.726 77.6283 64.1282C85.8821 60.578 94.2318 56.9948 96.9859 55.5585L96.061 53.7852ZM57.2026 71.0127L56.2772 69.2397C53.4517 70.7146 51.4635 71.3301 49.7462 71.4094C48.0632 71.487 46.4238 71.0594 44.2642 70.026L43.4009 71.8301L42.5376 73.6342C45.0262 74.825 47.3458 75.5244 49.9306 75.4051C52.481 75.2874 55.0696 74.3822 58.1281 72.7857L57.2026 71.0127ZM43.4009 71.8301L44.2636 70.0257C41.8766 68.8844 33.2832 65.3236 24.7323 61.7743C16.0962 58.1897 7.49292 54.6127 4.90524 53.3753L4.04248 55.1797L3.17972 56.984C5.89139 58.2806 14.6428 61.9174 23.1988 65.4687C31.84 69.0555 40.2761 72.5529 42.5382 73.6344L43.4009 71.8301ZM4.04248 55.1797L4.90571 53.3756C3.63125 52.7658 2.7999 52.2629 2.31037 51.8621C1.76113 51.4125 1.98513 51.377 2 51.7559C2.01827 52.2216 1.70042 52.2806 2.14629 51.9385C2.56081 51.6205 3.32225 51.2104 4.56722 50.7224L3.8374 48.8604L3.10759 46.9983C1.75041 47.5302 0.574137 48.1031 -0.288621 48.765C-1.12003 49.4029 -2.05474 50.439 -1.99693 51.9127C-1.94252 53.2996 -1.02257 54.303 -0.22348 54.9572C0.635313 55.6603 1.80466 56.3261 3.17925 56.9838L4.04248 55.1797ZM3.8374 48.8604L4.56745 50.7223C4.59012 50.7135 4.61225 50.7046 4.62846 50.6982C4.64635 50.6911 4.65901 50.686 4.67103 50.6813L3.94092 48.8193L3.2108 46.9574C3.18732 46.9666 3.16499 46.9755 3.14837 46.9821C3.13008 46.9894 3.11821 46.9941 3.10735 46.9984L3.8374 48.8604ZM3.94092 48.8193L3.07219 50.6208C3.0773 50.6233 3.08337 50.6263 3.10305 50.636C3.11906 50.6439 3.14694 50.6578 3.17752 50.6724L4.04053 48.8682L4.90354 47.0639C4.79084 47.01 4.97968 47.0999 4.80965 47.0179L3.94092 48.8193ZM4.04053 48.8682L3.17735 50.6723C5.88885 51.9696 14.641 55.6066 23.1974 59.1579C31.8392 62.7447 40.2759 66.242 42.538 67.3238L43.4009 65.5195L44.2637 63.7152C41.8764 62.5736 33.2822 59.0128 24.7308 55.4635C16.0939 51.8787 7.49064 48.3017 4.90371 47.064L4.04053 48.8682ZM43.4009 65.5195L42.5377 67.3236C45.0265 68.5145 47.3462 69.2137 49.931 69.0945C52.4815 68.9769 55.0701 68.072 58.1287 66.4763L57.2036 64.7031L56.2785 62.9299C53.4528 64.4041 51.4644 65.0195 49.7467 65.0987C48.0634 65.1764 46.4239 64.7488 44.2641 63.7154L43.4009 65.5195ZM57.2036 64.7031L58.1291 66.4761C60.9704 64.993 69.1785 61.4522 77.4998 57.8722C85.7149 54.3379 94.0441 50.7639 96.8943 49.2929L95.9771 47.5156L95.0598 45.7384C92.3728 47.1252 84.2427 50.6169 75.9191 54.1978C67.7017 57.7331 59.2917 61.3571 56.2781 62.9301L57.2036 64.7031ZM95.9771 47.5156L95.288 49.3932C95.2889 49.3935 95.29 49.3939 95.2936 49.3952C95.2965 49.3963 95.3016 49.3982 95.3072 49.4003L95.9956 47.5225L96.684 45.6447C96.6496 45.6321 96.7113 45.6547 96.6661 45.6381L95.9771 47.5156Z" fill="#42CEB5" mask="url(#path-7-inside-4_601_112)"/>
<mask id="path-9-inside-5_601_112" fill="white">
<path d="M92.6455 33.0908C96.0861 33.8578 98.7578 34.512 99.9795 34.96L99.9775 44.9326C99.9783 45.9322 98.7784 47.0296 96.0625 48.4463C90.7269 51.2303 63.0879 62.6048 57.2031 65.6768C51.3189 68.7465 48.0499 68.7163 43.4014 66.4922C38.7528 64.2691 9.34039 52.3762 4.04102 49.8408C1.39328 48.5744 0.00016666 47.5065 0 46.4961V36.3799C0 36.3799 3.2388 35.6709 7.98535 34.6152C17.751 38.8089 39.4631 47.6352 43.4014 49.5186C48.0499 51.7427 51.3189 51.7733 57.2031 48.7031C62.2669 46.0598 83.4371 37.2657 92.6455 33.0908Z"/>
</mask>
<path d="M92.6455 33.0908L93.0807 31.1387L92.4284 30.9933L91.8197 31.2693L92.6455 33.0908ZM99.9795 34.96L101.979 34.9604L101.98 33.5632L100.668 33.0822L99.9795 34.96ZM99.9775 44.9326L97.9775 44.9322V44.9342L99.9775 44.9326ZM96.0625 48.4463L95.1375 46.673L95.1373 46.6732L96.0625 48.4463ZM57.2031 65.6768L58.1282 67.45L58.1286 67.4497L57.2031 65.6768ZM43.4014 66.4922L44.2646 64.6881L44.2642 64.6879L43.4014 66.4922ZM4.04102 49.8408L4.90417 48.0367L4.90402 48.0366L4.04102 49.8408ZM0 46.4961H-2V46.4964L0 46.4961ZM0 36.3799L-0.427662 34.4261L-2 34.7703V36.3799H0ZM7.98535 34.6152L8.77452 32.7775L8.18132 32.5228L7.55114 32.6629L7.98535 34.6152ZM43.4014 49.5186L44.2646 47.7144L44.2642 47.7143L43.4014 49.5186ZM57.2031 48.7031L58.1283 50.4763L58.1286 50.4761L57.2031 48.7031ZM92.6455 33.0908L92.2103 35.0429C95.694 35.8195 98.2204 36.4451 99.2909 36.8377L99.9795 34.96L100.668 33.0822C99.2953 32.5789 96.4782 31.8961 93.0807 31.1387L92.6455 33.0908ZM99.9795 34.96L97.9795 34.9596L97.9775 44.9322L99.9775 44.9326L101.978 44.933L101.979 34.9604L99.9795 34.96ZM99.9775 44.9326L97.9775 44.9342C97.9773 44.587 98.1842 44.6106 97.6996 45.0476C97.2473 45.4553 96.4438 45.9916 95.1375 46.673L96.0625 48.4463L96.9875 50.2195C98.397 49.4843 99.5514 48.7636 100.378 48.0185C101.172 47.3027 101.979 46.2777 101.978 44.9311L99.9775 44.9326ZM96.0625 48.4463L95.1373 46.6732C92.5562 48.0199 84.4192 51.5156 76.0484 55.1163C67.7886 58.6694 59.3063 62.3228 56.2776 63.9038L57.2031 65.6768L58.1286 67.4497C60.9848 65.9588 69.2643 62.389 77.629 58.7908C85.8829 55.2403 94.2331 51.6567 96.9877 50.2194L96.0625 48.4463ZM57.2031 65.6768L56.2781 63.9036C53.4524 65.3776 51.4643 65.9928 49.747 66.0718C48.0639 66.1492 46.4245 65.7215 44.2646 64.6881L43.4014 66.4922L42.5382 68.2963C45.0268 69.487 47.3461 70.1865 49.9308 70.0676C52.4811 69.9503 55.0696 69.0456 58.1282 67.45L57.2031 65.6768ZM43.4014 66.4922L44.2642 64.6879C41.8774 63.5464 33.2833 59.9857 24.7319 56.4364C16.0951 52.8517 7.49159 49.2746 4.90417 48.0367L4.04102 49.8408L3.17786 51.645C5.88982 52.9424 14.6422 56.5795 23.1986 60.1308C31.8404 63.7176 40.2768 67.2149 42.5385 68.2965L43.4014 66.4922ZM4.04102 49.8408L4.90402 48.0366C3.62452 47.4246 2.78311 46.9216 2.28839 46.5198C1.72005 46.0583 1.99993 46.0545 2 46.4958L0 46.4961L-2 46.4964C-1.99976 47.9481 -1.02324 48.9834 -0.233054 49.6251C0.630753 50.3265 1.80977 50.9906 3.17802 51.645L4.04102 49.8408ZM0 46.4961H2V36.3799H0H-2V46.4961H0ZM0 36.3799C0.427662 38.3336 0.427679 38.3336 0.427709 38.3336C0.427735 38.3336 0.427777 38.3336 0.427829 38.3336C0.427934 38.3336 0.428088 38.3335 0.428292 38.3335C0.428699 38.3334 0.429303 38.3333 0.430103 38.3331C0.431703 38.3327 0.434087 38.3322 0.437249 38.3315C0.443573 38.3301 0.453008 38.3281 0.4655 38.3253C0.490484 38.3199 0.527699 38.3117 0.576721 38.301C0.674767 38.2795 0.820046 38.2476 1.00918 38.2061C1.38744 38.123 1.94111 38.0013 2.64315 37.8466C4.04721 37.5371 6.04483 37.0957 8.41957 36.5675L7.98535 34.6152L7.55114 32.6629C5.17932 33.1905 3.18426 33.6313 1.78228 33.9403C1.0813 34.0948 0.528621 34.2163 0.151277 34.2992C-0.0373943 34.3406 -0.182229 34.3724 -0.279846 34.3938C-0.328655 34.4045 -0.365659 34.4126 -0.390436 34.418C-0.402824 34.4207 -0.412156 34.4227 -0.418378 34.4241C-0.421489 34.4248 -0.423822 34.4253 -0.425372 34.4256C-0.426147 34.4258 -0.426726 34.4259 -0.427108 34.426C-0.427298 34.4261 -0.42744 34.4261 -0.427533 34.4261C-0.427579 34.4261 -0.427611 34.4261 -0.427634 34.4261C-0.427654 34.4261 -0.427662 34.4261 0 36.3799ZM7.98535 34.6152L7.19618 36.453C17.0784 40.6967 38.6404 49.4587 42.5385 51.3228L43.4014 49.5186L44.2642 47.7143C40.2857 45.8116 18.4235 36.9211 8.77452 32.7775L7.98535 34.6152ZM43.4014 49.5186L42.5382 51.3227C45.0267 52.5134 47.3461 53.2129 49.9307 53.0941C52.4811 52.9768 55.0696 52.0722 58.1283 50.4763L57.2031 48.7031L56.278 46.93C53.4524 48.4042 51.4643 49.0194 49.747 49.0983C48.0639 49.1757 46.4245 48.7479 44.2646 47.7144L43.4014 49.5186ZM57.2031 48.7031L58.1286 50.4761C60.5767 49.1982 67.0438 46.3766 74.1619 43.3079C81.2214 40.2645 88.8447 37.01 93.4714 34.9124L92.6455 33.0908L91.8197 31.2693C87.2379 33.3466 79.6719 36.5766 72.5783 39.6347C65.5432 42.6676 58.8933 45.5647 56.2776 46.9302L57.2031 48.7031Z" fill="#42CEB5" mask="url(#path-9-inside-5_601_112)"/>
<mask id="path-11-inside-6_601_112" fill="white">
<path d="M95.9951 32.1279C101.196 34.0355 101.395 35.6074 96.0605 38.3906C90.7254 41.1739 63.0871 52.5485 57.2021 55.6201C51.3182 58.6903 48.0487 58.6598 43.4004 56.4355C38.7508 54.2125 9.33905 42.319 4.04102 39.7852C-1.25668 37.251 -1.36735 35.5063 3.83691 33.4658C4.06208 33.3776 4.33219 33.2715 4.64355 33.1494C11.2575 36.178 38.9045 47.3686 43.4004 49.5186C48.0489 51.7428 51.3181 51.7731 57.2021 48.7031C62.842 45.759 88.4668 35.1853 95.2842 31.8613C95.5538 31.9628 95.7913 32.0532 95.9951 32.1279Z"/>
</mask>
<path d="M95.9951 32.1279L96.6839 30.2503L96.6837 30.2502L95.9951 32.1279ZM96.0605 38.3906L96.9856 40.1638L96.9856 40.1638L96.0605 38.3906ZM57.2021 55.6201L58.1274 57.3932L58.1276 57.3931L57.2021 55.6201ZM43.4004 56.4355L44.2637 54.6315L44.2631 54.6312L43.4004 56.4355ZM4.04102 39.7852L3.17798 41.5894L3.17811 41.5894L4.04102 39.7852ZM3.83691 33.4658L3.10723 31.6037L3.10686 31.6038L3.83691 33.4658ZM4.64355 33.1494L5.47623 31.331L4.7041 30.9774L3.91348 31.2874L4.64355 33.1494ZM43.4004 49.5186L44.2636 47.7144L44.2632 47.7142L43.4004 49.5186ZM57.2021 48.7031L58.1273 50.4763L58.1277 50.4761L57.2021 48.7031ZM95.2842 31.8613L95.9885 29.9894L95.1821 29.686L94.4077 30.0636L95.2842 31.8613ZM95.9951 32.1279L95.3064 34.0056C96.5623 34.4663 97.3597 34.8534 97.8152 35.1671C98.3268 35.5194 97.9962 35.4848 97.9797 34.9986C97.9646 34.5529 98.2483 34.5349 97.7158 35.0006C97.2463 35.4111 96.4262 35.9441 95.1355 36.6174L96.0605 38.3906L96.9856 40.1638C98.3624 39.4456 99.5178 38.7384 100.349 38.0118C101.117 37.3403 102.026 36.2883 101.977 34.8632C101.928 33.3977 100.906 32.4386 100.084 31.8727C99.2059 31.2681 98.0281 30.7434 96.6839 30.2503L95.9951 32.1279ZM96.0605 38.3906L95.1355 36.6174C92.5546 37.9638 84.4177 41.4594 76.0472 45.06C67.7876 48.613 59.3054 52.2663 56.2767 53.8471L57.2021 55.6201L58.1276 57.3931C60.9839 55.9023 69.2633 52.3325 77.6278 48.7345C85.8815 45.1841 94.2314 41.6007 96.9856 40.1638L96.0605 38.3906ZM57.2021 55.6201L56.2769 53.847C53.4516 55.3212 51.4634 55.9364 49.746 56.0154C48.0629 56.0928 46.4235 55.6649 44.2637 54.6315L43.4004 56.4355L42.5371 58.2396C45.0256 59.4304 47.3451 60.13 49.9297 60.0111C52.4802 59.8939 55.0688 58.9892 58.1274 57.3932L57.2021 55.6201ZM43.4004 56.4355L44.2631 54.6312C41.8758 53.4898 33.2818 49.9289 24.7306 46.3797C16.094 42.795 7.49083 39.2181 4.90392 37.9809L4.04102 39.7852L3.17811 41.5894C5.88923 42.886 14.6409 46.5228 23.1972 50.0741C31.8387 53.6608 40.2754 57.1583 42.5377 58.2399L43.4004 56.4355ZM4.04102 39.7852L4.90406 37.9809C3.62972 37.3714 2.79856 36.8687 2.30923 36.4681C1.76024 36.0186 1.98441 35.9833 1.99921 36.3624C2.01738 36.8279 1.69976 36.8867 2.14582 36.5444C2.56047 36.2262 3.32201 35.8159 4.56697 35.3278L3.83691 33.4658L3.10686 31.6038C1.74969 32.1359 0.573463 32.709 -0.289278 33.371C-1.12062 34.0089 -2.05526 35.0448 -1.99775 36.5184C-1.94361 37.9054 -1.02372 38.909 -0.224606 39.5632C0.63415 40.2662 1.80346 40.9319 3.17798 41.5894L4.04102 39.7852ZM3.83691 33.4658L4.5666 35.328C4.79128 35.2399 5.0645 35.1326 5.37363 35.0114L4.64355 33.1494L3.91348 31.2874C3.59987 31.4104 3.33288 31.5153 3.10723 31.6037L3.83691 33.4658ZM4.64355 33.1494L3.81088 34.9678C7.16033 36.5016 15.774 40.076 24.0496 43.5107C32.3935 46.9737 40.352 50.2777 42.5376 51.3229L43.4004 49.5186L44.2632 47.7142C41.9528 46.6094 33.8399 43.2432 25.5829 39.8162C17.2575 36.3609 8.74072 32.8258 5.47623 31.331L4.64355 33.1494ZM43.4004 49.5186L42.5372 51.3227C45.0258 52.5134 47.3452 53.2129 49.9298 53.0941C52.4802 52.9768 55.0687 52.0721 58.1273 50.4763L57.2021 48.7031L56.277 46.93C53.4515 48.4041 51.4634 49.0193 49.7461 49.0983C48.063 49.1757 46.4236 48.7479 44.2636 47.7144L43.4004 49.5186ZM57.2021 48.7031L58.1277 50.4761C60.8619 49.0487 68.5797 45.7099 76.5922 42.2618C84.5207 38.8498 92.6966 35.348 96.1607 33.659L95.2842 31.8613L94.4077 30.0636C91.0544 31.6986 83.0091 35.1457 75.011 38.5876C67.0968 41.9934 59.1822 45.4134 56.2766 46.9302L57.2021 48.7031ZM95.2842 31.8613L94.5799 33.7332C94.8384 33.8305 95.0922 33.927 95.3065 34.0056L95.9951 32.1279L96.6837 30.2502C96.4904 30.1793 96.2693 30.0951 95.9885 29.9894L95.2842 31.8613Z" fill="#42CEB5" mask="url(#path-11-inside-6_601_112)"/>
<mask id="path-13-inside-7_601_112" fill="white">
<path d="M99.9795 18.9873L99.9775 28.96C99.9782 29.9587 98.7782 31.0557 96.0625 32.4727C90.7268 35.2559 63.0878 46.6312 57.2031 49.7031C51.3189 52.7733 48.0499 52.7427 43.4014 50.5186C38.7528 48.2955 9.34066 36.4025 4.04102 33.8682C1.39312 32.6004 0 31.5318 0 30.5225V20.4062L0.000976562 20.4053C-0.0131627 21.4313 1.33895 22.5189 4.04199 23.8115C9.34002 26.3459 38.7514 38.2383 43.4004 40.4629C48.0487 42.686 51.3182 42.7157 57.2021 39.6455C63.0876 36.5749 90.7255 25.2002 96.0605 22.417C98.7019 21.0391 99.9847 19.958 99.9775 18.9863L99.9795 18.9873Z"/>
</mask>
<path d="M99.9795 18.9873L101.979 18.9877L101.98 17.7514L100.874 17.1985L99.9795 18.9873ZM99.9775 28.96L97.9775 28.9596V28.9612L99.9775 28.96ZM96.0625 32.4727L96.9875 34.2459L96.9877 34.2458L96.0625 32.4727ZM57.2031 49.7031L58.1283 51.4763L58.1286 51.4761L57.2031 49.7031ZM43.4014 50.5186L44.2646 48.7144L44.2642 48.7143L43.4014 50.5186ZM4.04102 33.8682L3.17737 35.6721L3.17819 35.6725L4.04102 33.8682ZM0 20.4062L-1.41421 18.992L-2 19.5778V20.4062H0ZM0.000976562 20.4053L2.00079 20.4328L2.06863 15.5092L-1.41324 18.9911L0.000976562 20.4053ZM4.04199 23.8115L4.90505 22.0073L4.90485 22.0072L4.04199 23.8115ZM43.4004 40.4629L42.5371 42.267L42.5375 42.2672L43.4004 40.4629ZM57.2021 39.6455L56.277 37.8723L56.2769 37.8724L57.2021 39.6455ZM96.0605 22.417L96.9856 24.1902L96.9856 24.1902L96.0605 22.417ZM99.9775 18.9863L100.872 17.1975L97.9535 15.7382L97.9776 19.0011L99.9775 18.9863ZM99.9795 18.9873L97.9795 18.9869L97.9775 28.9596L99.9775 28.96L101.978 28.9604L101.979 18.9877L99.9795 18.9873ZM99.9775 28.96L97.9775 28.9612C97.9773 28.6133 98.1848 28.6366 97.6997 29.0738C97.2473 29.4815 96.4436 30.0179 95.1373 30.6995L96.0625 32.4727L96.9877 34.2458C98.397 33.5105 99.5512 32.7899 100.378 32.0452C101.171 31.3299 101.978 30.3053 101.978 28.9587L99.9775 28.96ZM96.0625 32.4727L95.1375 30.6994C92.5563 32.0459 84.419 35.5416 76.0484 39.1424C67.7885 42.6956 59.3062 46.3492 56.2776 47.9302L57.2031 49.7031L58.1286 51.4761C60.9848 49.9852 69.2643 46.4152 77.629 42.8169C85.8829 39.2663 94.233 35.6827 96.9875 34.2459L96.0625 32.4727ZM57.2031 49.7031L56.278 47.93C53.4524 49.4042 51.4643 50.0194 49.747 50.0983C48.0639 50.1757 46.4245 49.7479 44.2646 48.7144L43.4014 50.5186L42.5382 52.3227C45.0267 53.5134 47.3461 54.2129 49.9307 54.0941C52.4811 53.9768 55.0696 53.0722 58.1283 51.4763L57.2031 49.7031ZM43.4014 50.5186L44.2642 48.7143C41.8774 47.5728 33.2834 44.012 24.732 40.4629C16.0953 36.8783 7.49159 33.3013 4.90384 32.0639L4.04102 33.8682L3.17819 35.6725C5.89009 36.9693 14.6422 40.606 23.1987 44.1573C31.8404 47.744 40.2768 51.2413 42.5385 52.3228L43.4014 50.5186ZM4.04102 33.8682L4.90466 32.0642C3.62515 31.4517 2.7835 30.9481 2.28858 30.5461C1.71952 30.0838 2 30.0802 2 30.5225H0H-2C-2 31.974 -1.02296 33.0094 -0.233489 33.6508C0.630121 34.3523 1.80898 35.0169 3.17737 35.6721L4.04102 33.8682ZM0 30.5225H2V20.4062H0H-2V30.5225H0ZM0 20.4062L1.41421 21.8205L1.41519 21.8195L0.000976562 20.4053L-1.41324 18.9911L-1.41421 18.992L0 20.4062ZM0.000976562 20.4053L-1.99883 20.3777C-2.01873 21.8219 -1.08459 22.8726 -0.277744 23.5449C0.587664 24.266 1.77809 24.9458 3.17914 25.6158L4.04199 23.8115L4.90485 22.0072C3.60285 21.3846 2.7657 20.8743 2.28283 20.4719C1.74139 20.0208 2.00655 20.0147 2.00079 20.4328L0.000976562 20.4053ZM4.04199 23.8115L3.17894 25.6157C5.89015 26.9127 14.6419 30.5493 23.1979 34.1006C31.8394 37.6874 40.2754 41.1848 42.5371 42.267L43.4004 40.4629L44.2637 38.6588C41.8763 37.5165 33.2822 33.9553 24.7313 30.4062C16.0948 26.8215 7.49186 23.2448 4.90505 22.0073L4.04199 23.8115ZM43.4004 40.4629L42.5375 42.2672C45.026 43.4573 47.3455 44.1563 49.9301 44.0371C52.4804 43.9194 55.0688 43.0145 58.1274 41.4186L57.2021 39.6455L56.2769 37.8724C53.4515 39.3467 51.4632 39.9621 49.7457 40.0413C48.0625 40.119 46.423 39.6915 44.2633 38.6586L43.4004 40.4629ZM57.2021 39.6455L58.1273 41.4187C60.984 39.9283 69.2636 36.3586 77.628 32.7607C85.8817 29.2104 94.2314 25.627 96.9856 24.1902L96.0605 22.417L95.1355 20.6438C92.5546 21.9902 84.4178 25.4857 76.0475 29.0862C67.7878 32.6391 59.3058 36.2922 56.277 37.8723L57.2021 39.6455ZM96.0605 22.417L96.9856 24.1902C98.3499 23.4785 99.4951 22.7782 100.323 22.0599C101.088 21.3964 101.988 20.3681 101.977 18.9716L99.9775 18.9863L97.9776 19.0011C97.9745 18.5762 98.2367 18.5743 97.7015 19.0387C97.2293 19.4484 96.4125 19.9776 95.1355 20.6438L96.0605 22.417ZM99.9775 18.9863L99.0831 20.7752L99.0851 20.7762L99.9795 18.9873L100.874 17.1985L100.872 17.1975L99.9775 18.9863Z" fill="#42CEB5" mask="url(#path-13-inside-7_601_112)"/>
<path d="M51.6426 1.00391C53.417 0.953154 55.1253 1.36375 57.7178 2.31445C60.3344 3.27395 68.5009 6.48597 76.6855 9.70508C84.8523 12.9172 93.0378 16.1363 95.6514 17.0947C96.9294 17.5631 97.8218 17.9849 98.3828 18.3711C98.9688 18.7745 98.9794 18.9877 98.9795 18.9912C98.9802 19.013 98.9653 19.2623 98.374 19.7793C97.8141 20.2688 96.9099 20.8457 95.5977 21.5303C92.9734 22.8993 84.7827 26.4168 76.4414 30.0049C68.1555 33.5692 59.7244 37.2022 56.7393 38.7598C53.8557 40.2644 51.7174 40.9522 49.792 41.041C47.8836 41.129 46.074 40.6328 43.832 39.5605C41.476 38.4332 32.9218 34.8885 24.3486 31.3301C15.7322 27.7537 7.09156 24.1615 4.47363 22.9092C3.17408 22.2877 2.25757 21.7448 1.67578 21.2686C1.06499 20.7686 1.0026 20.4908 1 20.4277C0.999245 20.4084 0.994935 20.1935 1.53711 19.7773C2.06373 19.3732 2.92922 18.9219 4.20215 18.4229C9.42081 16.3775 38.6492 4.90041 44.8135 2.68652C47.8941 1.58022 49.847 1.05531 51.6426 1.00391Z" stroke="#42CEB5" stroke-width="2"/>
<path d="M50.8052 33.8253L38.814 28.8468L55.9966 26.2062L50.8052 33.8253ZM28.9321 16.1525C32.2333 16.1525 35.1769 16.6741 37.2583 17.4816C38.3022 17.8866 39.0792 18.3438 39.5776 18.8009C40.0753 19.2574 40.2192 19.6373 40.2192 19.92C40.2191 20.203 40.0749 20.582 39.5776 21.0382C39.0793 21.4954 38.3022 21.9535 37.2583 22.3585C35.1769 23.166 32.2332 23.6866 28.9321 23.6866C25.631 23.6866 22.6873 23.1661 20.606 22.3585C19.5622 21.9535 18.786 21.4954 18.2876 21.0382C17.7902 20.582 17.6462 20.2029 17.646 19.92C17.646 19.6373 17.7899 19.2574 18.2876 18.8009C18.7859 18.3439 19.5624 17.8865 20.606 17.4816C22.6873 16.674 25.631 16.1525 28.9321 16.1525ZM50.4077 8.90833L50.7417 9.03918L51.0835 8.92786L55.5464 7.46497L54.6187 9.69446L54.2202 10.6505L55.1909 11.0148L57.8765 12.0206L53.5083 12.4757L52.9165 12.5372L52.688 13.0861L51.5229 15.8907L49.436 12.4181L49.1753 11.9825L48.6685 11.9366L43.2368 11.4474L46.3999 10.3068L47.4927 9.91223L46.939 8.89075L46.0181 7.19055L50.4077 8.90833Z" stroke="#42CEB5" stroke-width="2"/>
<path d="M83.252 19.2241L73.376 23.1304L73.3672 15.3149L83.252 19.2241Z" stroke="#42CEB5" stroke-width="2"/>
<path d="M71.377 23.9189L70.9033 24.1035L60.0322 19.8027L71.3672 15.3145L71.377 23.9189Z" stroke="#42CEB5" stroke-width="2"/>
</svg>
