<svg width="83" height="100" viewBox="0 0 83 100" fill="none" xmlns="http://www.w3.org/2000/svg">
<path d="M43.208 1.00977L43.2158 1.01074H43.2227C44.0392 1.0529 44.8294 1.31439 45.5088 1.76758C46.188 2.22064 46.7314 2.84846 47.082 3.58398L81.5488 76.6133L81.6055 76.7334C81.8601 77.3139 81.9957 77.9398 82 78.5742C82.0046 79.252 81.8613 79.9229 81.5801 80.54C81.2926 81.1641 80.8739 81.7198 80.3525 82.1689C79.8312 82.6179 79.219 82.9497 78.5576 83.1426L78.5547 83.1436L25.5127 98.7979H25.5117C24.503 99.0972 23.4242 99.0635 22.4365 98.7012C21.5105 98.3614 20.7114 97.7498 20.1426 96.9502L20.0312 96.7881L1.75586 68.5508L1.75391 68.5479C1.27069 67.807 1.00913 66.944 1 66.0605C0.990899 65.1771 1.23443 64.3092 1.70215 63.5586L1.7041 63.5557L39.0889 3.14355L39.0918 3.13867C39.5168 2.44299 40.1251 1.87634 40.8506 1.50098C41.5763 1.1256 42.3921 0.955223 43.208 1.00977ZM47.1221 12.6543C45.9915 10.6923 42.9083 11.0929 42.4238 13.4092L26.3428 90.2305V90.2324C25.8989 92.3805 27.9379 94.1682 30.0088 93.5557L30.0098 93.5566L75.0098 80.2793L75.0107 80.2803C75.4509 80.1544 75.8541 79.9347 76.1973 79.6396C76.5424 79.3429 76.8188 78.9746 77.0078 78.5605C77.1968 78.1465 77.2932 77.6963 77.291 77.2412C77.2888 76.7862 77.1881 76.3369 76.9951 75.9248L76.9932 75.9219L47.2256 12.8516L47.1221 12.6543Z" stroke="#42CEB5" stroke-width="2"/>
</svg>
