<svg width="100" height="101" viewBox="0 0 100 101" fill="none" xmlns="http://www.w3.org/2000/svg">
<path d="M32.7041 4.14026C27.8739 14.1357 24.659 28.3083 24.0049 44.2281H1.11816C3.37151 25.7671 15.8403 10.4684 32.7041 4.14026Z" stroke="#42CEB5" stroke-width="2"/>
<path d="M24.0049 56.2792C24.6589 72.1986 27.8741 86.3706 32.7041 96.3661C15.8405 90.0378 3.37141 74.7402 1.11816 56.2792H24.0049Z" stroke="#42CEB5" stroke-width="2"/>
<path d="M67.2947 4.14026C84.159 10.4681 96.6282 25.7666 98.8816 44.2281H75.9949C75.3408 28.308 72.125 14.1357 67.2947 4.14026Z" stroke="#42CEB5" stroke-width="2"/>
<path d="M98.8816 56.2792C96.6283 74.7406 84.1589 90.0381 67.2947 96.3661C72.1248 86.3706 75.3408 72.1989 75.9949 56.2792H98.8816Z" stroke="#42CEB5" stroke-width="2"/>
<path d="M63.9287 56.2792C63.3086 70.5071 60.5657 81.3461 57.5391 88.6434C55.9876 92.3839 54.3714 95.17 52.9482 97.0018C52.2354 97.9194 51.5898 98.5721 51.0469 98.9862C50.479 99.4193 50.1339 99.5076 50 99.5077C49.8662 99.5077 49.5212 99.4194 48.9531 98.9862C48.4102 98.5721 47.7647 97.9194 47.0518 97.0018C45.6286 95.1701 44.0124 92.3839 42.4609 88.6434C39.4343 81.3461 36.6914 70.5071 36.0713 56.2792H63.9287Z" stroke="#42CEB5" stroke-width="2"/>
<path d="M50 1C50.1338 1.00004 50.4792 1.08762 51.0469 1.52051C51.5899 1.9346 52.2353 2.58823 52.9482 3.50586C54.3714 5.33766 55.9876 8.12378 57.5391 11.8643C60.5657 19.1616 63.3087 30.0006 63.9287 44.2285H36.0713C36.6913 30.0006 39.4343 19.1616 42.4609 11.8643C44.0124 8.12375 45.6286 5.33765 47.0518 3.50586C47.7647 2.58823 48.4101 1.9346 48.9531 1.52051C49.5209 1.0876 49.8662 1 50 1Z" stroke="#42CEB5" stroke-width="2"/>
</svg>
