<svg width="100" height="100" viewBox="0 0 100 100" fill="none" xmlns="http://www.w3.org/2000/svg">
<path d="M13.9101 48.4021C3.83935 56.8363 -0.286824 65.9494 0.0154107 74.0607C0.317628 82.1716 5.04365 89.0429 12.1778 92.9489C26.4135 100.743 49.8821 96.7195 68.0757 68.7752C68.5163 68.9447 68.9949 69.0377 69.4953 69.0377C71.6789 69.0377 73.4491 67.2675 73.4491 65.0838C73.4491 62.9002 71.6789 61.13 69.4953 61.13C67.3116 61.13 65.5414 62.9002 65.5414 65.0838C65.5414 65.9436 65.8159 66.7394 66.2819 67.3881C48.4964 94.8265 26.1617 98.0288 13.2631 90.9667C6.74402 87.3974 2.54294 81.2024 2.2737 73.9766C2.00448 66.7512 5.66248 58.2572 15.3611 50.1346L13.9101 48.4021Z" fill="#42CEB5"/>
<path d="M74.3369 30.0728C72.4338 17.0753 66.8363 8.78427 59.7704 4.78951C52.705 0.794965 44.376 1.21747 37.3098 5.24514C23.2097 13.2821 14.3332 35.377 28.5929 65.5197C28.2178 65.8059 27.8879 66.1647 27.6257 66.5906C26.4809 68.4502 27.0604 70.8856 28.92 72.0304C30.7796 73.1751 33.215 72.5956 34.3597 70.736C35.5045 68.8765 34.925 66.441 33.0654 65.2963C32.333 64.8454 31.5113 64.662 30.7143 64.719C16.6718 35.1891 25.6531 14.4906 38.4289 7.20846C44.8859 3.52805 52.3637 3.19807 58.6582 6.75674C64.9524 10.3152 70.2681 17.883 72.1009 30.4002L74.3369 30.0728Z" fill="#42CEB5"/>
<path d="M60.3941 93.934C72.6988 98.533 82.6613 97.6263 89.5677 93.3618C96.4738 89.0975 100.119 81.5968 99.9972 73.4643C99.754 57.2365 84.6765 38.8078 51.3946 36.7679C51.3248 36.3009 51.1695 35.8387 50.9226 35.4034C49.8453 33.504 47.4322 32.8375 45.5328 33.9147C43.6333 34.992 42.9669 37.4051 44.0441 39.3046C45.1214 41.204 47.5345 41.8705 49.4339 40.7932C50.1818 40.3691 50.7385 39.7379 51.0729 39.0125C83.7135 40.947 97.5172 58.7946 97.7376 73.4981C97.849 80.9295 94.5329 87.64 88.3804 91.4389C82.2284 95.2377 73.0353 96.2462 61.1853 91.8171L60.3941 93.934Z" fill="#42CEB5"/>
</svg>
